<svg width="13" height="10" viewBox="0 0 13 10" fill="none" xmlns="http://www.w3.org/2000/svg">
<path d="M0.0394921 10L3.77049 0.199999H5.49249L9.23749 10H7.28449L6.50749 7.928H2.76249L1.99949 10H0.0394921ZM3.35049 6.269H5.90549L4.92549 3.644C4.89283 3.56467 4.85783 3.476 4.82049 3.378C4.78316 3.28 4.74816 3.182 4.71549 3.084C4.68283 2.98133 4.65483 2.89267 4.63149 2.818C4.60816 2.89267 4.58016 2.98133 4.54749 3.084C4.51483 3.182 4.47983 3.28 4.44249 3.378C4.40516 3.476 4.37016 3.56467 4.33749 3.644L3.35049 6.269ZM10.3999 10V0.199999H12.2129V10H10.3999Z" fill="#8AAA8A"/>
</svg>
