<svg width="16" height="17" viewBox="0 0 16 17" fill="none" xmlns="http://www.w3.org/2000/svg">
<g id="Frame">
<path id="Vector" d="M1.20312 14.0088H14.7969" stroke="#8AAA8A" stroke-width="1.5" stroke-linecap="round" stroke-linejoin="round"/>
<path id="Vector_2" d="M4.375 7.66504H2.5625C2.44232 7.66504 2.32707 7.71278 2.24209 7.79776C2.15711 7.88273 2.10938 7.99799 2.10938 8.11816V14.0088H4.82812V8.11816C4.82813 7.99799 4.78039 7.88273 4.69541 7.79776C4.61043 7.71278 4.49518 7.66504 4.375 7.66504Z" stroke="#8AAA8A" stroke-width="1.5" stroke-linecap="round" stroke-linejoin="round"/>
<path id="Vector_3" d="M8.90625 2.22754H7.09375C6.97357 2.22754 6.85832 2.27528 6.77334 2.36026C6.68836 2.44523 6.64063 2.56049 6.64062 2.68066V14.0088H9.35938V2.68066C9.35938 2.56049 9.31164 2.44523 9.22666 2.36026C9.14168 2.27528 9.02643 2.22754 8.90625 2.22754Z" stroke="#8AAA8A" stroke-width="1.5" stroke-linecap="round" stroke-linejoin="round"/>
<path id="Vector_4" d="M13.4375 4.94629H11.625C11.5048 4.94629 11.3896 4.99403 11.3046 5.07901C11.2196 5.16398 11.1719 5.27924 11.1719 5.39941V14.0088H13.8906V5.39941C13.8906 5.27924 13.8429 5.16398 13.7579 5.07901C13.6729 4.99403 13.5577 4.94629 13.4375 4.94629Z" stroke="#8AAA8A" stroke-width="1.5" stroke-linecap="round" stroke-linejoin="round"/>
</g>
</svg>
