<svg width="23" height="24" viewBox="0 0 23 24" fill="none" xmlns="http://www.w3.org/2000/svg">
<g id="ico-basket">
<path id="Vector" d="M5.38281 19.7645H15.4976C15.859 19.7645 16.2087 19.6365 16.4847 19.4032C16.7607 19.17 16.9452 18.8465 17.0055 18.4901L19.694 2.68737C19.7549 2.33159 19.9396 2.0088 20.2156 1.77613C20.4915 1.54346 20.8409 1.4159 21.2019 1.41602H22.2051" stroke="#8AAA8A" stroke-width="1.5" stroke-linecap="round" stroke-linejoin="round"/>
<path id="Vector_2" d="M7.29443 22.8232C7.19303 22.8232 7.09579 22.783 7.02409 22.7113C6.95239 22.6396 6.91211 22.5423 6.91211 22.4409C6.91211 22.3395 6.95239 22.2423 7.02409 22.1706C7.09579 22.0989 7.19303 22.0586 7.29443 22.0586" stroke="#8AAA8A" stroke-width="1.5"/>
<path id="Vector_3" d="M7.29443 22.8232C7.39583 22.8232 7.49308 22.783 7.56478 22.7113C7.63648 22.6396 7.67676 22.5423 7.67676 22.4409C7.67676 22.3395 7.63648 22.2423 7.56478 22.1706C7.49308 22.0989 7.39583 22.0586 7.29443 22.0586" stroke="#8AAA8A" stroke-width="1.5"/>
<path id="Vector_4" d="M14.9409 22.8232C14.8395 22.8232 14.7423 22.783 14.6706 22.7113C14.5989 22.6396 14.5586 22.5423 14.5586 22.4409C14.5586 22.3395 14.5989 22.2423 14.6706 22.1706C14.7423 22.0989 14.8395 22.0586 14.9409 22.0586" stroke="#8AAA8A" stroke-width="1.5"/>
<path id="Vector_5" d="M14.9409 22.8232C15.0423 22.8232 15.1396 22.783 15.2113 22.7113C15.283 22.6396 15.3232 22.5423 15.3232 22.4409C15.3232 22.3395 15.283 22.2423 15.2113 22.1706C15.1396 22.0989 15.0423 22.0586 14.9409 22.0586" stroke="#8AAA8A" stroke-width="1.5"/>
<path id="Vector_6" d="M17.5692 15.176H5.26245C4.58046 15.1759 3.91806 14.9479 3.38052 14.5282C2.84297 14.1085 2.4611 13.5212 2.29561 12.8596L0.817289 6.9463C0.78908 6.83352 0.786954 6.71581 0.811074 6.60209C0.835193 6.48837 0.884922 6.38165 0.956481 6.29004C1.02804 6.19843 1.11954 6.12434 1.22404 6.07341C1.32853 6.02247 1.44326 5.99603 1.55951 5.99609H19.1301" stroke="#8AAA8A" stroke-width="1.5" stroke-linecap="round" stroke-linejoin="round"/>
</g>
</svg>
