<svg width="22" height="22" viewBox="0 0 22 22" fill="none" xmlns="http://www.w3.org/2000/svg">
<g id="ico-bell">
<path id="Vector" d="M9.29175 19.3281C9.40024 19.6977 9.62552 20.0222 9.93387 20.2531C10.2422 20.4839 10.617 20.6087 11.0022 20.6087C11.3874 20.6087 11.7622 20.4839 12.0706 20.2531C12.3789 20.0222 12.6042 19.6977 12.7127 19.3281" stroke="#8AAA8A" stroke-width="1.5" stroke-linecap="round" stroke-linejoin="round"/>
<path id="Vector_2" d="M11 3.3125V1.39062" stroke="#8AAA8A" stroke-width="1.5" stroke-linecap="round" stroke-linejoin="round"/>
<path id="Vector_3" d="M11 3.3125C12.699 3.3125 14.3285 3.98744 15.5299 5.18885C16.7313 6.39025 17.4062 8.01971 17.4062 9.71875C17.4062 15.7372 18.6875 16.7656 18.6875 16.7656H3.3125C3.3125 16.7656 4.59375 15.129 4.59375 9.71875C4.59375 8.01971 5.26869 6.39025 6.4701 5.18885C7.6715 3.98744 9.30096 3.3125 11 3.3125Z" stroke="#8AAA8A" stroke-width="1.5" stroke-linecap="round" stroke-linejoin="round"/>
</g>
</svg>
