<svg width="21" height="20" viewBox="0 0 21 20" fill="none" xmlns="http://www.w3.org/2000/svg">
<g id="Group 897">
<path id="Path 1687" d="M18.8555 4.90381H2.12988C1.92825 4.90381 1.73488 4.98391 1.5923 5.1265C1.44973 5.26909 1.36963 5.46248 1.36963 5.66414V17.8294C1.36963 18.031 1.44973 18.2244 1.5923 18.367C1.73488 18.5096 1.92825 18.5897 2.12988 18.5897H18.8555C19.0571 18.5897 19.2505 18.5096 19.393 18.367C19.5356 18.2244 19.6157 18.031 19.6157 17.8294V5.66414C19.6157 5.46248 19.5356 5.26909 19.393 5.1265C19.2505 4.98391 19.0571 4.90381 18.8555 4.90381Z" stroke="#8AAA8A" stroke-width="1.5" stroke-linecap="round" stroke-linejoin="round"/>
<path id="Path 1688" d="M6.69141 4.90368C6.69141 3.89543 7.0919 2.92847 7.80477 2.21552C8.51765 1.50258 9.48452 1.10205 10.4927 1.10205C11.5008 1.10205 12.4677 1.50258 13.1806 2.21552C13.8935 2.92847 14.2939 3.89543 14.2939 4.90368" stroke="#8AAA8A" stroke-width="1.5" stroke-linecap="round" stroke-linejoin="round"/>
</g>
</svg>
