<svg width="16" height="17" viewBox="0 0 16 17" fill="none" xmlns="http://www.w3.org/2000/svg">
<g id="Frame" clip-path="url(#clip0_184_15339)">
<path id="Vector" d="M4.375 12.4227H10.3689C10.5831 12.4227 10.7903 12.3469 10.9539 12.2087C11.1175 12.0704 11.2268 11.8787 11.2625 11.6675L12.8557 2.30296C12.8918 2.09212 13.0013 1.90084 13.1648 1.76296C13.3283 1.62508 13.5354 1.54949 13.7493 1.54956H14.3438" stroke="#8AAA8A" stroke-width="1.5" stroke-linecap="round" stroke-linejoin="round"/>
<path id="Vector_2" d="M5.50781 14.2354C5.44772 14.2354 5.3901 14.2115 5.34761 14.169C5.30512 14.1265 5.28125 14.0689 5.28125 14.0088C5.28125 13.9487 5.30512 13.8911 5.34761 13.8486C5.3901 13.8061 5.44772 13.7822 5.50781 13.7822" stroke="#8AAA8A" stroke-width="1.5"/>
<path id="Vector_3" d="M5.50781 14.2354C5.5679 14.2354 5.62553 14.2115 5.66802 14.169C5.71051 14.1265 5.73438 14.0689 5.73438 14.0088C5.73438 13.9487 5.71051 13.8911 5.66802 13.8486C5.62553 13.8061 5.5679 13.7822 5.50781 13.7822" stroke="#8AAA8A" stroke-width="1.5"/>
<path id="Vector_4" d="M10.0391 14.2354C9.97897 14.2354 9.92135 14.2115 9.87886 14.169C9.83637 14.1265 9.8125 14.0689 9.8125 14.0088C9.8125 13.9487 9.83637 13.8911 9.87886 13.8486C9.92135 13.8061 9.97897 13.7822 10.0391 13.7822" stroke="#8AAA8A" stroke-width="1.5"/>
<path id="Vector_5" d="M10.0391 14.2354C10.0992 14.2354 10.1568 14.2115 10.1993 14.169C10.2418 14.1265 10.2656 14.0689 10.2656 14.0088C10.2656 13.9487 10.2418 13.8911 10.1993 13.8486C10.1568 13.8061 10.0992 13.7822 10.0391 13.7822" stroke="#8AAA8A" stroke-width="1.5"/>
<path id="Vector_6" d="M11.5964 9.70408H4.30347C3.89933 9.70403 3.5068 9.56892 3.18825 9.32021C2.86971 9.07151 2.64342 8.72347 2.54535 8.33141L1.66931 4.82724C1.65259 4.76042 1.65133 4.69066 1.66562 4.62327C1.67992 4.55588 1.70938 4.49264 1.75179 4.43835C1.7942 4.38406 1.84842 4.34016 1.91034 4.30997C1.97226 4.27979 2.04025 4.26412 2.10914 4.26416H12.5213" stroke="#8AAA8A" stroke-width="1.5" stroke-linecap="round" stroke-linejoin="round"/>
</g>
<defs>
<clipPath id="clip0_184_15339">
<rect width="16" height="16" fill="white" transform="translate(0 0.118164)"/>
</clipPath>
</defs>
</svg>
