<svg width="22" height="23" viewBox="0 0 22 23" fill="none" xmlns="http://www.w3.org/2000/svg">
<g id="Group 939">
<g id="Group 938">
<g id="Clip path group">
<mask id="mask0_183_16712" style="mask-type:luminance" maskUnits="userSpaceOnUse" x="0" y="0" width="22" height="23">
<g id="clip-path-18">
<path id="Rectangle 400" d="M22 0H0V22.0021H22V0Z" fill="white"/>
</g>
</mask>
<g >
<g id="Group 937">
<g id="Group 936">
<g id="Clip path group_2">
<mask id="mask1_183_16712" style="mask-type:luminance" maskUnits="userSpaceOnUse" x="0" y="0" width="22" height="23">
<g id="clip-path-18_2">
<path id="Rectangle 400_2" d="M22 0H0V22.0021H22V0Z" fill="white"/>
</g>
</mask>
<g >
<g id="Group 935">
<path id="Path 1772" d="M11.0004 22.0019C9.30129 22.0063 7.62472 21.6129 6.10486 20.8531C5.95067 20.7699 5.77152 20.7455 5.6007 20.7844L3.35824 21.3844C2.97911 21.4864 2.5798 21.4868 2.20048 21.3855C1.82116 21.2842 1.47519 21.0848 1.19739 20.8073C0.919581 20.5298 0.719727 20.1841 0.617926 19.8049C0.516125 19.4257 0.515967 19.0263 0.617468 18.647L1.21735 16.4043C1.25627 16.2335 1.23187 16.0543 1.14867 15.9001C0.388578 14.3792 -0.00480127 12.7015 4.42262e-05 11.0012C-0.00010029 8.82527 0.644937 6.69819 1.85359 4.88892C3.06223 3.07965 4.7802 1.66945 6.79025 0.836671C8.80029 0.00388786 11.0121 -0.214081 13.146 0.210328C15.2799 0.634738 17.2401 1.68246 18.7786 3.22101C20.3171 4.75956 21.3648 6.71982 21.7894 8.85391C22.2139 10.988 21.9961 13.2 21.1635 15.2103C20.3309 17.2206 18.921 18.9389 17.112 20.1477C15.3029 21.3566 13.1761 22.0019 11.0004 22.0019ZM5.74902 18.913C6.15841 18.9146 6.56183 19.0112 6.92761 19.1951C8.19209 19.8268 9.58693 20.1537 11.0004 20.1494C12.8096 20.1494 14.5781 19.6129 16.0824 18.6077C17.5867 17.6024 18.7591 16.1737 19.4515 14.5021C20.1438 12.8304 20.325 10.991 19.972 9.21644C19.6191 7.44186 18.7479 5.8118 17.4686 4.53239C16.1893 3.25299 14.5594 2.38171 12.785 2.02872C11.0106 1.67573 9.17133 1.8569 7.49987 2.54931C5.8284 3.24171 4.39978 4.41427 3.39465 5.91869C2.38953 7.42311 1.85305 9.19183 1.85305 11.0012C1.84896 12.4145 2.17577 13.8092 2.80731 15.0736C3.09157 15.6314 3.1625 16.2737 3.00679 16.88L2.4069 19.1227C2.38945 19.1877 2.38942 19.2561 2.40681 19.321C2.42419 19.386 2.45838 19.4453 2.50593 19.4928C2.55349 19.5404 2.61272 19.5746 2.67769 19.592C2.74265 19.6093 2.81105 19.6093 2.876 19.5919L5.11845 18.9919C5.32413 18.937 5.53613 18.9092 5.74902 18.9093" fill="#8AAA8A"/>
<g id="Group 934">
<g id="Group 933">
<g id="Clip path group_3">
</mask>
<g >
<g id="Group 932">
<path id="Path 1773" d="M15.0295 12.3901C14.6613 12.3913 14.3077 12.2461 14.0465 11.9866C13.7854 11.727 13.638 11.3743 13.6368 11.0061C13.6356 10.6379 13.7808 10.2842 14.0403 10.023C14.2999 9.76184 14.6525 9.61444 15.0207 9.61328H15.0295C15.3977 9.61328 15.7508 9.75956 16.0112 10.0199C16.2715 10.2803 16.4178 10.6335 16.4178 11.0017C16.4178 11.3699 16.2715 11.7231 16.0112 11.9835C15.7508 12.2438 15.3977 12.3901 15.0295 12.3901ZM10.9998 12.3901C10.6316 12.3913 10.278 12.2461 10.0168 11.9866C9.75566 11.727 9.60828 11.3743 9.60712 11.0061C9.60596 10.6379 9.75111 10.2842 10.0106 10.023C10.2702 9.76184 10.6228 9.61444 10.991 9.61328H10.9998C11.368 9.61328 11.7211 9.75956 11.9815 10.0199C12.2418 10.2803 12.3881 10.6335 12.3881 11.0017C12.3881 11.3699 12.2418 11.7231 11.9815 11.9835C11.7211 12.2438 11.368 12.3901 10.9998 12.3901ZM6.98106 12.3901C6.61286 12.3913 6.25928 12.2461 5.9981 11.9866C5.73693 11.727 5.58955 11.3743 5.58839 11.0061C5.58722 10.6379 5.73237 10.2842 5.99191 10.023C6.25144 9.76184 6.60409 9.61444 6.97229 9.61328H6.98106C7.34926 9.61328 7.70237 9.75956 7.96273 10.0199C8.22308 10.2803 8.36935 10.6335 8.36935 11.0017C8.36935 11.3699 8.22308 11.7231 7.96273 11.9835C7.70237 12.2438 7.34926 12.3901 6.98106 12.3901Z" fill="#8AAA8A"/>
</g>
</g>
</g>
</g>
</g>
</g>
</g>
</g>
</g>
</g>
</g>
</g>
</g>
</g>
</svg>
