<svg width="14" height="15" viewBox="0 0 14 15" fill="none" xmlns="http://www.w3.org/2000/svg">
<path d="M12.1315 11.4159C12.2929 11.6575 12.3854 11.9384 12.3994 12.2285C12.4133 12.5187 12.348 12.8072 12.2105 13.0631C12.073 13.3189 11.8685 13.5326 11.6189 13.6811C11.3692 13.8296 11.0839 13.9074 10.7935 13.9062H3.17267C2.88222 13.9074 2.59689 13.8296 2.34727 13.6811C2.09765 13.5326 1.89313 13.3189 1.75564 13.0631C1.61815 12.8072 1.55287 12.5187 1.56678 12.2285C1.58069 11.9384 1.67328 11.6575 1.83463 11.4159L5.62982 5.73843V1.09375H8.34727V5.73843L12.1315 11.4159Z" stroke="#8AAA8A" stroke-width="2" stroke-linecap="round" stroke-linejoin="round"/>
</svg>
