<svg width="20" height="15" viewBox="0 0 20 15" fill="none" xmlns="http://www.w3.org/2000/svg">
<path id="Path 1521" d="M14.574 5.89787H13.5681C13.2685 4.7416 12.6506 3.69254 11.7848 2.86982C10.9189 2.0471 9.8397 1.48371 8.66973 1.24362C7.49976 1.00354 6.28592 1.09639 5.16607 1.51163C4.04622 1.92687 3.06524 2.64786 2.33456 3.5927C1.60388 4.53754 1.15277 5.66838 1.03248 6.85676C0.912184 8.04514 1.12753 9.24345 1.65404 10.3156C2.18056 11.3877 2.99715 12.2907 4.01107 12.9219C5.02499 13.5532 6.1956 13.8875 7.38994 13.8868H14.574C15.0981 13.8868 15.6171 13.7835 16.1013 13.5829C16.5855 13.3824 17.0255 13.0883 17.3961 12.7177C17.7667 12.3471 18.0607 11.9071 18.2613 11.4228C18.4618 10.9385 18.5651 10.4195 18.5651 9.89536C18.5651 9.3712 18.4618 8.85217 18.2613 8.36791C18.0607 7.88365 17.7667 7.44364 17.3961 7.07301C17.0255 6.70237 16.5855 6.40836 16.1013 6.20778C15.6171 6.00719 15.0981 5.90395 14.574 5.90395V5.89787Z" stroke="#8AAA8A" stroke-width="2" stroke-linecap="round" stroke-linejoin="round"/>
</svg>
