<svg width="16" height="17" viewBox="0 0 16 17" fill="none" xmlns="http://www.w3.org/2000/svg">
<g id="Frame" clip-path="url(#clip0_184_15257)">
<path id="Vector" d="M7.09375 8.43599C7.09407 8.5926 7.03221 8.74293 6.92176 8.85395C6.8113 8.96497 6.6613 9.0276 6.50469 9.02808H1.79219C1.71462 9.02792 1.63785 9.01247 1.56626 8.98263C1.49466 8.95278 1.42965 8.90911 1.37495 8.85412C1.32024 8.79913 1.2769 8.7339 1.24742 8.66216C1.21794 8.59041 1.20289 8.51356 1.20313 8.43599V1.91703C1.20297 1.83944 1.2181 1.76257 1.24764 1.69082C1.27719 1.61908 1.32058 1.55385 1.37534 1.49887C1.43009 1.44389 1.49514 1.40023 1.56677 1.37039C1.6384 1.34055 1.7152 1.32511 1.79279 1.32495L6.50529 1.33281C6.66179 1.33345 6.81165 1.39615 6.92197 1.50715C7.03229 1.61815 7.09407 1.76839 7.09375 1.92489V8.43599Z" stroke="#8AAA8A" stroke-width="1.5" stroke-linecap="round" stroke-linejoin="round"/>
<path id="Vector_2" d="M14.7944 4.82188C14.7933 4.97705 14.7306 5.12542 14.6202 5.2344C14.5097 5.34338 14.3605 5.40406 14.2054 5.40309H9.49287C9.41602 5.40365 9.33981 5.38905 9.2686 5.36014C9.19739 5.33122 9.13258 5.28856 9.07788 5.23458C9.02317 5.1806 8.97964 5.11637 8.94977 5.04556C8.9199 4.97474 8.90428 4.89874 8.90381 4.82188V1.91403C8.90477 1.75903 8.96722 1.61074 9.07745 1.50176C9.18768 1.39278 9.33666 1.33202 9.49166 1.33282L14.2042 1.32497C14.3595 1.32384 14.5089 1.38442 14.6196 1.49341C14.7303 1.60239 14.7932 1.75085 14.7944 1.90617V4.82188Z" stroke="#8AAA8A" stroke-width="1.5" stroke-linecap="round" stroke-linejoin="round"/>
<path id="Vector_3" d="M7.09375 14.3357C7.09328 14.4127 7.07763 14.4889 7.04771 14.5599C7.01779 14.6309 6.97418 14.6953 6.91937 14.7495C6.86455 14.8036 6.79961 14.8464 6.72826 14.8754C6.6569 14.9045 6.58052 14.9192 6.50348 14.9187L1.79098 14.9109C1.63582 14.9115 1.48674 14.8505 1.37652 14.7413C1.26629 14.6321 1.20392 14.4836 1.20312 14.3284V11.423C1.20352 11.3461 1.21908 11.27 1.2489 11.1991C1.27873 11.1281 1.32224 11.0638 1.37694 11.0097C1.43165 10.9556 1.49648 10.9128 1.56773 10.8838C1.63898 10.8548 1.71526 10.8401 1.79219 10.8406H6.50469C6.66001 10.8398 6.8093 10.9007 6.91976 11.0099C7.03021 11.1191 7.09279 11.2677 7.09375 11.423V14.3357Z" stroke="#8AAA8A" stroke-width="1.5" stroke-linecap="round" stroke-linejoin="round"/>
<path id="Vector_4" d="M9.49348 14.9187C9.41583 14.9185 9.33898 14.9031 9.26731 14.8732C9.19564 14.8433 9.13057 14.7996 9.07581 14.7446C9.02104 14.6895 8.97766 14.6242 8.94815 14.5524C8.91864 14.4806 8.90357 14.4037 8.90381 14.326V7.80826C8.90357 7.73067 8.91862 7.65379 8.94809 7.58201C8.97757 7.51023 9.02089 7.44496 9.07559 7.38992C9.13029 7.33488 9.1953 7.29116 9.26689 7.26125C9.33849 7.23133 9.41528 7.21581 9.49287 7.21558H14.2054C14.283 7.21581 14.3598 7.23133 14.4314 7.26125C14.503 7.29116 14.568 7.33488 14.6227 7.38992C14.6774 7.44496 14.7207 7.51023 14.7502 7.58201C14.7796 7.65379 14.7947 7.73067 14.7944 7.80826V14.3182C14.7948 14.4747 14.733 14.625 14.6227 14.7361C14.5124 14.8472 14.3625 14.91 14.206 14.9108L9.49348 14.9187Z" stroke="#8AAA8A" stroke-width="1.5" stroke-linecap="round" stroke-linejoin="round"/>
</g>
<defs>
<clipPath id="clip0_184_15257">
<rect width="16" height="16" fill="white" transform="translate(0 0.118164)"/>
</clipPath>
</defs>
</svg>
