<svg xmlns="http://www.w3.org/2000/svg" width="63" height="20" viewBox="0 0 63 20" fill="none">
<path fill-rule="evenodd" clip-rule="evenodd" d="M43.2435 10.6773C42.1675 9.59641 41.565 8.13238 41.5684 6.60725C41.5718 5.08212 42.1809 3.62082 43.2618 2.54481C44.3426 1.4688 45.8066 0.866221 47.3317 0.869643C48.8568 0.873066 50.3181 1.4822 51.3941 2.56305L51.787 2.95599L52.1799 2.56305C53.2559 1.4822 54.7172 0.873066 56.2423 0.869643C57.7674 0.866221 59.2314 1.4688 60.3122 2.54481C61.3931 3.62082 62.0022 5.08212 62.0056 6.60725C62.009 8.13238 61.4065 9.59641 60.3305 10.6773L52.5303 18.9374C52.4348 19.0383 52.3197 19.1187 52.1921 19.1736C52.0645 19.2285 51.9271 19.2568 51.7882 19.2568C51.6493 19.2568 51.5119 19.2285 51.3843 19.1736C51.2567 19.1187 51.1416 19.0383 51.0461 18.9374L43.2435 10.6773ZM51.7846 16.7501L58.8403 9.27339L58.8609 9.25271C59.2054 8.90828 59.4786 8.49937 59.665 8.04935C59.8514 7.59933 59.9473 7.11699 59.9473 6.62989C59.9473 6.14279 59.8514 5.66045 59.665 5.21043C59.4786 4.7604 59.2054 4.3515 58.8609 4.00707C58.5165 3.66263 58.1076 3.38941 57.6576 3.20301C57.2076 3.0166 56.7253 2.92066 56.2382 2.92066C55.7511 2.92066 55.2687 3.0166 54.8187 3.20301C54.3687 3.38941 53.9598 3.66263 53.6154 4.00707L52.5011 5.12262C52.3095 5.31391 52.0498 5.42135 51.7791 5.42135C51.5083 5.42135 51.2487 5.31391 51.0571 5.12262L49.9416 4.00707C49.2384 3.35038 48.3075 2.99265 47.3455 3.00938C46.3836 3.02611 45.4657 3.416 44.7858 4.09673C44.1058 4.77747 43.717 5.69578 43.7014 6.6578C43.6858 7.61982 44.0446 8.55027 44.7021 9.25271L44.7216 9.27339L51.7846 16.7501Z" fill="#BA9553"/>
<path d="M12.0768 3.31104C4.47484 3.31104 1.43359 10.1552 1.43359 10.1552C1.43359 10.1552 4.47485 16.9981 12.078 16.9981C19.6811 16.9981 22.7224 10.1552 22.7224 10.1552C22.7224 10.1552 19.6811 3.31104 12.0768 3.31104Z" stroke="#BA9553" stroke-width="1.5" stroke-linecap="round" stroke-linejoin="round"/>
<path d="M12.0767 13.0445C12.6781 13.0445 13.2661 12.8662 13.7662 12.532C14.2663 12.1978 14.656 11.7228 14.8862 11.1671C15.1164 10.6114 15.1766 9.99985 15.0592 9.40989C14.9419 8.81994 14.6523 8.27803 14.227 7.85269C13.8017 7.42736 13.2598 7.1377 12.6699 7.02035C12.08 6.903 11.4686 6.96323 10.9129 7.19342C10.3572 7.42361 9.8823 7.81342 9.54815 8.31356C9.214 8.8137 9.03564 9.40171 9.03564 10.0032C9.03564 10.8098 9.35604 11.5834 9.92634 12.1538C10.4966 12.7241 11.2701 13.0445 12.0767 13.0445Z" stroke="#BA9553" stroke-width="1.5" stroke-linecap="round" stroke-linejoin="round"/>
</svg>