<svg width="38" height="27" viewBox="0 0 38 27" fill="none" xmlns="http://www.w3.org/2000/svg">
<g id="Group 917">
<path id="Line 117" d="M1 6.87378H36.4096" stroke="#162A26" stroke-width="1.5" stroke-linecap="round"/>
<path id="Line 118" d="M1 20.8323H36.4096" stroke="#162A26" stroke-width="1.5" stroke-linecap="round"/>
<g id="Ellipse 27">
<path id="Vector" d="M11.2529 12.8749C14.6119 12.8749 17.335 10.1517 17.335 6.79233C17.335 3.433 14.6119 0.709717 11.2529 0.709717C7.89392 0.709717 5.1709 3.433 5.1709 6.79233C5.1709 10.1517 7.89392 12.8749 11.2529 12.8749Z" fill="white"/>
<path id="Vector_2" d="M11.2527 11.9625C14.1079 11.9625 16.4225 9.64773 16.4225 6.79229C16.4225 3.93686 14.1079 1.62207 11.2527 1.62207C8.39757 1.62207 6.08301 3.93686 6.08301 6.79229C6.08301 9.64773 8.39757 11.9625 11.2527 11.9625Z" stroke="#162A26" stroke-width="1.5"/>
</g>
<g id="Ellipse 28">
<path id="Vector_3" d="M24.8062 26.3017C28.1652 26.3017 30.8882 23.5784 30.8882 20.2191C30.8882 16.8598 28.1652 14.1365 24.8062 14.1365C21.4471 14.1365 18.7241 16.8598 18.7241 20.2191C18.7241 23.5784 21.4471 26.3017 24.8062 26.3017Z" fill="white"/>
<path id="Vector_4" d="M24.806 25.3893C27.6611 25.3893 29.9757 23.0745 29.9757 20.219C29.9757 17.3636 27.6611 15.0488 24.806 15.0488C21.9508 15.0488 19.6362 17.3636 19.6362 20.219C19.6362 23.0745 21.9508 25.3893 24.806 25.3893Z" stroke="#162A26" stroke-width="1.5"/>
</g>
</g>
</svg>
