<svg width="20" height="19" viewBox="0 0 20 19" fill="none" xmlns="http://www.w3.org/2000/svg">
<path d="M5.89757 0.98999H2.65342C1.98162 0.98999 1.43701 1.53465 1.43701 2.20651V5.45098C1.43701 6.12285 1.98162 6.6675 2.65342 6.6675H5.89757C6.56938 6.6675 7.11398 6.12285 7.11398 5.45098V2.20651C7.11398 1.53465 6.56938 0.98999 5.89757 0.98999Z" stroke="#162a26" stroke-width="1.5" stroke-linecap="round" stroke-linejoin="round"/>
<path d="M5.89757 12.3438H2.65342C1.98162 12.3438 1.43701 12.8884 1.43701 13.5603V16.8047C1.43701 17.4766 1.98162 18.0213 2.65342 18.0213H5.89757C6.56938 18.0213 7.11398 17.4766 7.11398 16.8047V13.5603C7.11398 12.8884 6.56938 12.3438 5.89757 12.3438Z" stroke="#162a26" stroke-width="1.5" stroke-linecap="round" stroke-linejoin="round"/>
<path d="M17.2491 0.98999H14.005C13.3332 0.98999 12.7886 1.53465 12.7886 2.20651V5.45098C12.7886 6.12285 13.3332 6.6675 14.005 6.6675H17.2491C17.9209 6.6675 18.4655 6.12285 18.4655 5.45098V2.20651C18.4655 1.53465 17.9209 0.98999 17.2491 0.98999Z" stroke="#162a26" stroke-width="1.5" stroke-linecap="round" stroke-linejoin="round"/>
<path d="M17.2491 12.3438H14.005C13.3332 12.3438 12.7886 12.8884 12.7886 13.5603V16.8047C12.7886 17.4766 13.3332 18.0213 14.005 18.0213H17.2491C17.9209 18.0213 18.4655 17.4766 18.4655 16.8047V13.5603C18.4655 12.8884 17.9209 12.3438 17.2491 12.3438Z" stroke="#162a26" stroke-width="1.5" stroke-linecap="round" stroke-linejoin="round"/>
</svg>
