<svg width="16" height="17" viewBox="0 0 16 17" fill="none" xmlns="http://www.w3.org/2000/svg">
<g id="Frame" clip-path="url(#clip0_184_15322)">
<path id="Vector" d="M11.7272 2.06128L14.5227 3.45901L12.1931 6.72037V14.6408C12.1931 14.7644 12.1441 14.8829 12.0567 14.9703C11.9693 15.0576 11.8508 15.1067 11.7272 15.1067H10.3954C10.0881 15.1071 9.78559 15.0316 9.51463 14.8868C9.24368 14.742 9.01273 14.5324 8.84232 14.2768L7.84528 12.7809C7.64204 12.4745 7.53398 12.1149 7.53467 11.7472V8.1181" stroke="#8AAA8A" stroke-width="1.5" stroke-linecap="round" stroke-linejoin="round"/>
<path id="Vector_2" d="M14.5229 3.45898L14.9658 12.7548C14.9689 12.8178 14.959 12.8808 14.937 12.94C14.9149 12.9991 14.8811 13.0531 14.8375 13.0988C14.794 13.1445 14.7416 13.1808 14.6835 13.2056C14.6255 13.2304 14.563 13.2431 14.4999 13.2431H12.1934" stroke="#8AAA8A" stroke-width="1.5" stroke-linecap="round" stroke-linejoin="round"/>
<path id="Vector_3" d="M9.86373 1.12964L11.7274 2.06146C10.9049 5.88191 9.35247 7.41693 7.53418 8.11828C7.53418 8.11828 9.86373 3.45918 9.86373 1.12964Z" stroke="#8AAA8A" stroke-width="1.5" stroke-linecap="round" stroke-linejoin="round"/>
<path id="Vector_4" d="M1.47715 3.45898L1.03423 12.7548C1.0312 12.8178 1.04101 12.8808 1.06306 12.94C1.08512 12.9991 1.11895 13.0531 1.16252 13.0988C1.20609 13.1445 1.25849 13.1808 1.31652 13.2056C1.37456 13.2304 1.43703 13.2431 1.50014 13.2431H3.8067" stroke="#8AAA8A" stroke-width="1.5" stroke-linecap="round" stroke-linejoin="round"/>
<path id="Vector_5" d="M4.27251 2.06128L1.47705 3.45901L3.8066 6.72037V14.6408C3.8066 14.7644 3.85568 14.8829 3.94306 14.9703C4.03043 15.0576 4.14894 15.1067 4.27251 15.1067H5.60438C5.9116 15.1071 6.21415 15.0316 6.4851 14.8868C6.75606 14.742 6.98701 14.5324 7.15741 14.2768L7.99978 13.0101" stroke="#8AAA8A" stroke-width="1.5" stroke-linecap="round" stroke-linejoin="round"/>
<path id="Vector_6" d="M8.00022 7.13117C7.32062 5.63343 6.13659 2.79014 6.13659 1.12964L4.27295 2.06146C4.97802 5.33711 6.22045 6.93238 7.70639 7.76356" stroke="#8AAA8A" stroke-width="1.5" stroke-linecap="round" stroke-linejoin="round"/>
<path id="Vector_7" d="M6.13623 1.12964H9.8635" stroke="#8AAA8A" stroke-width="1.5" stroke-linecap="round" stroke-linejoin="round"/>
<path id="Vector_8" d="M9.39751 10.6808C9.33572 10.6808 9.27647 10.6562 9.23278 10.6125C9.18909 10.5688 9.16455 10.5096 9.16455 10.4478C9.16455 10.386 9.18909 10.3268 9.23278 10.2831C9.27647 10.2394 9.33572 10.2148 9.39751 10.2148" stroke="#8AAA8A" stroke-width="1.5"/>
<path id="Vector_9" d="M9.39795 10.6808C9.45973 10.6808 9.51899 10.6562 9.56267 10.6125C9.60636 10.5688 9.6309 10.5096 9.6309 10.4478C9.6309 10.386 9.60636 10.3268 9.56267 10.2831C9.51899 10.2394 9.45973 10.2148 9.39795 10.2148" stroke="#8AAA8A" stroke-width="1.5"/>
</g>
<defs>
<clipPath id="clip0_184_15322">
<rect width="16" height="16" fill="white" transform="translate(0 0.118164)"/>
</clipPath>
</defs>
</svg>
