<svg width="16" height="17" viewBox="0 0 16 17" fill="none" xmlns="http://www.w3.org/2000/svg">
<g id="Frame" clip-path="url(#clip0_184_15309)">
<path id="Vector" d="M12.5312 8.64983V2.22754C12.5313 1.98719 12.4358 1.75668 12.2658 1.58672C12.0959 1.41677 11.8654 1.32129 11.625 1.32129H4.375C4.13465 1.32129 3.90414 1.41677 3.73418 1.58672C3.56423 1.75668 3.46875 1.98719 3.46875 2.22754V8.64983" stroke="#8AAA8A" stroke-width="1.5" stroke-linecap="round" stroke-linejoin="round"/>
<path id="Vector_2" d="M13.6091 7.79486C13.6758 7.74195 13.7561 7.70891 13.8407 7.69953C13.9254 7.69016 14.0109 7.70482 14.0876 7.74184C14.1643 7.77885 14.229 7.83673 14.2743 7.90884C14.3196 7.98094 14.3437 8.06435 14.3438 8.1495V14.0099C14.3438 14.2503 14.2483 14.4808 14.0783 14.6507C13.9084 14.8207 13.6779 14.9162 13.4375 14.9162H2.5625C2.32215 14.9162 2.09164 14.8207 1.92168 14.6507C1.75173 14.4808 1.65625 14.2503 1.65625 14.0099V8.1495C1.65632 8.06435 1.68039 7.98094 1.7257 7.90884C1.771 7.83673 1.8357 7.77885 1.91239 7.74184C1.98908 7.70482 2.07464 7.69016 2.15928 7.69953C2.24391 7.70891 2.32419 7.74195 2.39092 7.79486L6.88048 11.3558C7.19977 11.6066 7.59401 11.7429 8 11.7429C8.40599 11.7429 8.80023 11.6066 9.11952 11.3558L13.6091 7.79486Z" stroke="#8AAA8A" stroke-width="1.5" stroke-linecap="round" stroke-linejoin="round"/>
<path id="Vector_3" d="M10.3008 10.4189L12.0782 12.1964" stroke="#8AAA8A" stroke-width="1.5" stroke-linecap="round" stroke-linejoin="round"/>
<path id="Vector_4" d="M5.69933 10.4189L3.92188 12.1964" stroke="#8AAA8A" stroke-width="1.5" stroke-linecap="round" stroke-linejoin="round"/>
<path id="Vector_5" d="M8.12083 6.96665C8.25168 7.13851 8.42202 7.27628 8.61743 7.36831C8.81284 7.46033 9.02755 7.50389 9.24337 7.4953C9.93152 7.4953 10.4898 7.07661 10.4898 6.56065C10.4898 6.0447 9.93333 5.62661 9.24579 5.62661C8.55825 5.62661 8 5.20792 8 4.69136C8 4.1748 8.55825 3.75672 9.24579 3.75672C9.46164 3.74797 9.6764 3.79146 9.87184 3.8835C10.0673 3.97553 10.2376 4.1134 10.3683 4.28536" stroke="#8AAA8A" stroke-width="1.5" stroke-linecap="round" stroke-linejoin="round"/>
<path id="Vector_6" d="M9.24561 7.49536V8.11826" stroke="#8AAA8A" stroke-width="1.5" stroke-linecap="round" stroke-linejoin="round"/>
<path id="Vector_7" d="M9.24561 3.13379V3.75668" stroke="#8AAA8A" stroke-width="1.5" stroke-linecap="round" stroke-linejoin="round"/>
<path id="Vector_8" d="M5.28125 3.58691H6.1875" stroke="#8AAA8A" stroke-width="1.5" stroke-linecap="round" stroke-linejoin="round"/>
<path id="Vector_9" d="M5.28125 5.39941H6.1875" stroke="#8AAA8A" stroke-width="1.5" stroke-linecap="round" stroke-linejoin="round"/>
<path id="Vector_10" d="M5.28125 7.21191H6.1875" stroke="#8AAA8A" stroke-width="1.5" stroke-linecap="round" stroke-linejoin="round"/>
</g>
<defs>
<clipPath id="clip0_184_15309">
<rect width="16" height="16" fill="white" transform="translate(0 0.118164)"/>
</clipPath>
</defs>
</svg>
