<svg width="20" height="19" viewBox="0 0 20 19" fill="none" xmlns="http://www.w3.org/2000/svg">
<g id="Group 700">
<path id="Rectangle 330" d="M17.2205 0.98999H2.62607C1.95427 0.98999 1.40967 1.53465 1.40967 2.20651V5.45098C1.40967 6.12285 1.95427 6.6675 2.62607 6.6675H17.2205C17.8923 6.6675 18.4369 6.12285 18.4369 5.45098V2.20651C18.4369 1.53465 17.8923 0.98999 17.2205 0.98999Z" stroke="#162A26" stroke-width="1.5" stroke-linecap="round" stroke-linejoin="round"/>
<path id="Rectangle 331" d="M17.2205 12.3438H2.62607C1.95427 12.3438 1.40967 12.8884 1.40967 13.5603V16.8047C1.40967 17.4766 1.95427 18.0213 2.62607 18.0213H17.2205C17.8923 18.0213 18.4369 17.4766 18.4369 16.8047V13.5603C18.4369 12.8884 17.8923 12.3438 17.2205 12.3438Z" stroke="#162A26" stroke-width="1.5" stroke-linecap="round" stroke-linejoin="round"/>
</g>
</svg>
