<svg width="23" height="23" viewBox="0 0 23 23" fill="none" xmlns="http://www.w3.org/2000/svg">
<g id="Frame">
<path id="Vector" d="M21.0191 8.94309V5.22746C21.0191 4.97134 20.9424 4.72109 20.7988 4.509C20.6552 4.29691 20.4514 4.13271 20.2136 4.03761L15.0886 1.98761C14.7832 1.86546 14.4425 1.86546 14.137 1.98761L8.68232 4.17C8.3769 4.29215 8.0362 4.29215 7.73078 4.17L2.67924 2.14904C2.58177 2.10998 2.4762 2.09548 2.37181 2.1068C2.26741 2.11813 2.16741 2.15495 2.08059 2.21401C1.99377 2.27307 1.9228 2.35256 1.87392 2.4455C1.82505 2.53843 1.79977 2.64196 1.8003 2.74696V15.0239C1.80026 15.28 1.87698 15.5303 2.02055 15.7424C2.16413 15.9545 2.36797 16.1186 2.60578 16.2138L7.73078 18.2638C8.0362 18.3859 8.3769 18.3859 8.68232 18.2638L11.1432 17.2789" stroke="#1F2024" stroke-width="1.5" stroke-linecap="round" stroke-linejoin="round"/>
<path id="Vector_2" d="M8.20654 4.26147V18.3552" stroke="#1F2024" stroke-width="1.5" stroke-linecap="round" stroke-linejoin="round"/>
<path id="Vector_3" d="M14.6128 1.89624V8.30249" stroke="#1F2024" stroke-width="1.5" stroke-linecap="round" stroke-linejoin="round"/>
<path id="Vector_4" d="M17.1753 10.9282C18.1947 10.9282 19.1724 11.3332 19.8932 12.054C20.6141 12.7749 21.019 13.7525 21.019 14.772C21.019 16.4128 18.723 19.5348 17.6801 20.869C17.6203 20.9458 17.5437 21.008 17.4562 21.0508C17.3688 21.0935 17.2727 21.1158 17.1753 21.1158C17.0779 21.1158 16.9818 21.0935 16.8943 21.0508C16.8069 21.008 16.7303 20.9458 16.6705 20.869C15.6275 19.5357 13.3315 16.4128 13.3315 14.772C13.3315 13.7525 13.7365 12.7749 14.4574 12.054C15.1782 11.3332 16.1559 10.9282 17.1753 10.9282Z" stroke="#1F2024" stroke-width="1.5" stroke-linecap="round" stroke-linejoin="round"/>
<path id="Vector_5" d="M17.1753 15.093C17.0903 15.093 17.0089 15.0593 16.9488 14.9992C16.8887 14.9391 16.855 14.8577 16.855 14.7727C16.855 14.6878 16.8887 14.6063 16.9488 14.5462C17.0089 14.4861 17.0903 14.4524 17.1753 14.4524" stroke="#1F2024" stroke-width="1.5"/>
<path id="Vector_6" d="M17.1753 15.093C17.2602 15.093 17.3417 15.0593 17.4018 14.9992C17.4619 14.9391 17.4956 14.8577 17.4956 14.7727C17.4956 14.6878 17.4619 14.6063 17.4018 14.5462C17.3417 14.4861 17.2602 14.4524 17.1753 14.4524" stroke="#1F2024" stroke-width="1.5"/>
</g>
</svg>
