<svg width="16" height="17" viewBox="0 0 16 17" fill="none" xmlns="http://www.w3.org/2000/svg">
<g id="Frame" clip-path="url(#clip0_184_15284)">
<g id="Group">
<path id="Vector" d="M13.8906 8.57129V14.0088C13.8906 14.2491 13.7951 14.4796 13.6252 14.6496C13.4552 14.8196 13.2247 14.915 12.9844 14.915H3.01562C2.77527 14.915 2.54476 14.8196 2.37481 14.6496C2.20485 14.4796 2.10938 14.2491 2.10938 14.0088V8.57129" stroke="#8AAA8A" stroke-width="1.5" stroke-linecap="round" stroke-linejoin="round"/>
<path id="Vector_2" d="M2.10938 11.29H9.8125" stroke="#8AAA8A" stroke-width="1.5" stroke-linecap="round" stroke-linejoin="round"/>
<path id="Vector_3" d="M9.8125 14.915V8.57129" stroke="#8AAA8A" stroke-width="1.5" stroke-linecap="round" stroke-linejoin="round"/>
<path id="Vector_4" d="M1.20312 5.39941C1.22898 5.83295 1.41942 6.24025 1.73553 6.53807C2.05163 6.83589 2.46955 7.00175 2.90385 7.00175C3.33816 7.00175 3.75607 6.83589 4.07218 6.53807C4.38829 6.24025 4.57873 5.83295 4.60458 5.39941C4.60458 5.84967 4.78345 6.28149 5.10183 6.59987C5.42021 6.91826 5.85203 7.09712 6.30229 7.09712C6.75255 7.09712 7.18437 6.91826 7.50275 6.59987C7.82113 6.28149 8 5.84967 8 5.39941C8.02585 5.83295 8.21629 6.24025 8.5324 6.53807C8.84851 6.83589 9.26642 7.00175 9.70073 7.00175C10.135 7.00175 10.5529 6.83589 10.8691 6.53807C11.1852 6.24025 11.3756 5.83295 11.4015 5.39941C11.4015 5.62236 11.4454 5.84312 11.5307 6.0491C11.616 6.25507 11.7411 6.44223 11.8987 6.59987C12.0564 6.75752 12.2435 6.88257 12.4495 6.96789C12.6555 7.05321 12.8762 7.09712 13.0992 7.09712C13.3221 7.09712 13.5429 7.05321 13.7489 6.96789C13.9548 6.88257 14.142 6.75752 14.2996 6.59987C14.4573 6.44223 14.5823 6.25507 14.6676 6.0491C14.753 5.84312 14.7969 5.62236 14.7969 5.39941L13.9692 1.67775C13.9472 1.57702 13.8915 1.4868 13.8113 1.422C13.7311 1.35719 13.6312 1.32167 13.5281 1.32129H2.47187C2.36877 1.32167 2.26889 1.35719 2.1887 1.422C2.10851 1.4868 2.05283 1.57702 2.03083 1.67775L1.20312 5.39941Z" stroke="#8AAA8A" stroke-width="1.5" stroke-linecap="round" stroke-linejoin="round"/>
</g>
</g>
<defs>
<clipPath id="clip0_184_15284">
<rect width="16" height="16" fill="white" transform="translate(0 0.118164)"/>
</clipPath>
</defs>
</svg>
