<svg width="22" height="14" viewBox="0 0 22 14" fill="none" xmlns="http://www.w3.org/2000/svg">
<g id="Group 896">
<path id="Path 1685" d="M19.8442 1.66406H2.05423C1.87281 1.66439 1.69893 1.73669 1.57076 1.8651C1.44259 1.99351 1.37061 2.16753 1.37061 2.34897V11.9291C1.37045 12.0191 1.38805 12.1082 1.42241 12.1914C1.45677 12.2745 1.50721 12.3501 1.57083 12.4137C1.63446 12.4774 1.71002 12.5278 1.79318 12.5622C1.87634 12.5965 1.96546 12.6141 2.05544 12.614H19.8442C19.934 12.6141 20.0231 12.5966 20.1062 12.5623C20.1892 12.528 20.2647 12.4777 20.3283 12.4142C20.392 12.3507 20.4424 12.2752 20.4768 12.1922C20.5113 12.1092 20.529 12.0202 20.529 11.9303V2.34897C20.5292 2.25898 20.5116 2.16984 20.4772 2.08668C20.4428 2.00351 20.3924 1.92794 20.3288 1.86431C20.2652 1.80068 20.1896 1.75024 20.1064 1.71587C20.0233 1.68151 19.9341 1.6639 19.8442 1.66406Z" stroke="#8AAA8A" stroke-width="1.5" stroke-linecap="round" stroke-linejoin="round"/>
<path id="Path 1686" d="M10.9488 9.53383C11.4225 9.53383 11.8856 9.39335 12.2795 9.13014C12.6733 8.86694 12.9803 8.49284 13.1616 8.05515C13.3429 7.61746 13.3903 7.13584 13.2979 6.67119C13.2055 6.20654 12.9774 5.77974 12.6424 5.44474C12.3074 5.10975 11.8807 4.88162 11.4161 4.78919C10.9515 4.69677 10.4699 4.7442 10.0322 4.9255C9.5946 5.1068 9.22054 5.41381 8.95736 5.80772C8.69418 6.20163 8.55371 6.66475 8.55371 7.1385C8.55371 7.77378 8.80605 8.38304 9.25522 8.83225C9.70439 9.28147 10.3136 9.53383 10.9488 9.53383Z" stroke="#8AAA8A" stroke-width="1.5" stroke-linecap="round" stroke-linejoin="round"/>
</g>
</svg>
