<svg width="16" height="17" viewBox="0 0 16 17" fill="none" xmlns="http://www.w3.org/2000/svg">
<g id="Frame" clip-path="url(#clip0_184_15301)">
<path id="Vector" d="M6.18317 14.915H2.23071C2.10183 14.915 1.97443 14.8875 1.85702 14.8343C1.73962 14.7811 1.63491 14.7035 1.54988 14.6066C1.46485 14.5098 1.40147 14.3959 1.36395 14.2726C1.32643 14.1493 1.31565 14.0194 1.33232 13.8916L2.45486 5.28221C2.48333 5.06394 2.59026 4.8635 2.75569 4.7183C2.92112 4.5731 3.13375 4.49308 3.35386 4.49316H4.02811C4.24812 4.49322 4.4606 4.57331 4.6259 4.7185C4.79121 4.86368 4.89805 5.06404 4.92651 5.28221L6.18317 14.915Z" stroke="#8AAA8A" stroke-width="1.5" stroke-linecap="round" stroke-linejoin="round"/>
<path id="Vector_2" d="M9.35498 4.49316H12.6374C12.8574 4.49322 13.0699 4.57331 13.2352 4.7185C13.4005 4.86368 13.5074 5.06404 13.5358 5.28221L14.659 13.8916C14.6756 14.0194 14.6648 14.1494 14.6273 14.2727C14.5897 14.3961 14.5263 14.51 14.4412 14.6069C14.3561 14.7037 14.2513 14.7813 14.1338 14.8345C14.0164 14.8876 13.8889 14.9151 13.76 14.915H6.18311" stroke="#8AAA8A" stroke-width="1.5" stroke-linecap="round" stroke-linejoin="round"/>
<path id="Vector_3" d="M4.02832 4.49316H7.99588" stroke="#8AAA8A" stroke-width="1.5" stroke-linecap="round" stroke-linejoin="round"/>
<path id="Vector_4" d="M11.6206 7.21191V3.13379C11.6206 2.65308 11.4296 2.19207 11.0897 1.85216C10.7498 1.51225 10.2888 1.32129 9.8081 1.32129C9.3274 1.32129 8.86638 1.51225 8.52647 1.85216C8.18656 2.19207 7.99561 2.65308 7.99561 3.13379V7.21191" stroke="#8AAA8A" stroke-width="1.5" stroke-linecap="round" stroke-linejoin="round"/>
<path id="Vector_5" d="M6.53654 1.62524C6.28804 1.79104 6.08438 2.01569 5.94366 2.2792C5.80294 2.54272 5.72954 2.83693 5.72998 3.13566V4.49322" stroke="#8AAA8A" stroke-width="1.5" stroke-linecap="round" stroke-linejoin="round"/>
</g>
<defs>
<clipPath id="clip0_184_15301">
<rect width="16" height="16" fill="white" transform="translate(0 0.118164)"/>
</clipPath>
</defs>
</svg>
