<svg width="202" height="33" viewBox="0 0 202 33" fill="none" xmlns="http://www.w3.org/2000/svg">
<rect width="202" height="33" fill="#888787"/>
<g id="Design Ideas">
<path d="M-2207 -892C-2207 -893.105 -2206.1 -894 -2205 -894H4900C4901.1 -894 4902 -893.105 4902 -892V1687C4902 1688.1 4901.1 1689 4900 1689H-2205C-2206.1 1689 -2207 1688.1 -2207 1687V-892Z" fill="#404040"/>
<g id="Dashboard 02" clip-path="url(#clip0_0_1)">
<rect width="1557" height="1902" transform="translate(-275 -738)" fill="white"/>
<g id="Clip path group">
<g id="08 DASHBOARD">
</g>
</g>
<g id="Frame 427319725">
<g id="material">
<g id="Component 32 &#226;&#128;&#147; 1">
<g id="Rectangle 325">
<path id="Vector" d="M285 -304.918H-15V125.082H285V-304.918Z" fill="white"/>
<path id="Vector_2" d="M284.392 -304.309H-14.3916V124.473H284.392V-304.309Z" stroke="#C6C6C6"/>
</g>
<g id="Group 684">
<g id="Group 659">
<path id="Path 1528" d="M60.6807 28.3287V11.9409" stroke="#8AAA8A" stroke-linecap="round"/>
<path id="Path 1529" d="M60.6783 17.0138C60.2163 16.7192 59.8329 16.3166 59.561 15.8409C59.2892 15.3651 59.137 14.8304 59.1177 14.2827" stroke="#8AAA8A" stroke-linecap="round"/>
<path id="Path 1530" d="M60.6782 17.0138C61.1402 16.7192 61.5236 16.3166 61.7955 15.8409C62.0674 15.3651 62.2195 14.8304 62.2389 14.2827" stroke="#8AAA8A" stroke-linecap="round"/>
<path id="Path 1531" d="M60.6792 24.8204C62.4223 23.5759 65.7613 20.2085 65.7711 16.3643C65.7681 16.2114 65.7173 16.0632 65.6256 15.9407C65.5339 15.8183 65.4061 15.7277 65.2602 15.6819L65.1142 15.6332C64.9591 15.5784 64.8236 15.479 64.7249 15.3474C64.6262 15.2157 64.5686 15.0578 64.5595 14.8935C64.3735 12.0289 63.1648 9.32633 61.1536 7.27812C61.0269 7.15727 60.8585 7.08984 60.6834 7.08984C60.5083 7.08984 60.34 7.15727 60.2133 7.27812C58.2034 9.22679 56.9836 11.849 56.7879 14.6417C56.7836 14.7704 56.7492 14.8962 56.6872 15.0091C56.6253 15.122 56.5377 15.2187 56.4315 15.2914L55.9559 15.6089C55.8483 15.678 55.7608 15.7742 55.7021 15.8877C55.6434 16.0013 55.6156 16.1283 55.6214 16.2561C55.7457 18.8952 56.8546 21.3919 58.7293 23.2535" stroke="#8AAA8A" stroke-linecap="round"/>
<path id="Path 1532" d="M60.6804 21.3067C59.9965 20.9024 59.4242 20.3339 59.0154 19.6527C58.6065 18.9715 58.374 18.199 58.3389 17.4053" stroke="#8AAA8A" stroke-linecap="round"/>
<path id="Path 1533" d="M60.6821 21.3067C61.366 20.9024 61.9383 20.3339 62.3472 19.6527C62.7561 18.9715 62.9886 18.199 63.0237 17.4053" stroke="#8AAA8A" stroke-linecap="round"/>
<path id="Path 1534" d="M46.5524 23.1803C44.9373 19.8086 44.6199 15.9603 45.6608 12.3695C46.7016 8.77866 49.0279 5.69668 52.1958 3.71143C55.3637 1.72619 59.1516 0.976608 62.8368 1.60569C66.5221 2.23476 69.8468 4.19847 72.1768 7.12222" stroke="#8AAA8A" stroke-linecap="round" stroke-linejoin="round"/>
<path id="Path 1535" d="M69.2598 6.88271L72.7873 8.02868L72.1901 4.22461" stroke="#8AAA8A" stroke-linecap="round" stroke-linejoin="round"/>
<path id="Path 1536" d="M74.0063 10.0444C75.6229 13.4125 75.9439 17.2576 74.9084 20.8472C73.8729 24.4368 71.5531 27.52 68.3909 29.5094C65.2288 31.4989 61.4453 32.2556 57.7613 31.6354C54.0772 31.0152 50.7501 29.0615 48.4136 26.1463" stroke="#8AAA8A" stroke-linecap="round" stroke-linejoin="round"/>
<path id="Path 1537" d="M48.3868 29.1389L47.7896 25.2217L51.142 26.3676" stroke="#8AAA8A" stroke-linecap="round" stroke-linejoin="round"/>
</g>
<g id="Group 660">
<path id="Path 1538" d="M137.405 28.3491C136.394 25.4087 132.942 23.8856 131.068 20.1363C129.602 17.2824 131.486 16.6814 130.56 13.0549C131.454 12.9065 132.61 15.2824 132.704 17.8164C133.165 18.7068 133.8 19.4955 134.572 20.1356C135.343 20.7757 136.236 21.2542 137.196 21.5426" stroke="#8AAA8A" stroke-miterlimit="10" stroke-linecap="round" stroke-linejoin="round"/>
<path id="Path 1539" d="M142.594 29.7508C142.607 28.5963 142.647 25.7253 142.594 24.5988C142.645 22.3166 142.594 20.9979 141.606 19.6001C140.844 18.3714 140.586 17.6537 140.016 16.7437C139.429 15.4267 139.077 14.0169 138.976 12.5783C138.925 11.5208 138.809 10.4674 138.63 9.42389C138.217 8.45068 137.811 8.41661 137.414 9.42389" stroke="#8AAA8A" stroke-miterlimit="10" stroke-linecap="round" stroke-linejoin="round"/>
<path id="Path 1540" d="M131.816 14.1964C131.828 11.6133 132.145 9.04072 132.762 6.53231C133.205 5.38148 133.766 5.34255 134.488 6.83036C134.256 9.90451 133.863 12.3838 134.488 15.2511" stroke="#8AAA8A" stroke-miterlimit="10" stroke-linecap="round" stroke-linejoin="round"/>
<path id="Path 1541" d="M136.336 15.1364C135.939 12.4834 135.939 9.78597 136.336 7.13292C136.188 4.57823 134.937 4.00768 134.491 6.83487" stroke="#8AAA8A" stroke-miterlimit="10" stroke-linecap="round" stroke-linejoin="round"/>
<path id="Path 1542" d="M137.97 15.1376C137.252 13.1596 137.404 10.6146 137.404 7.43097C137.08 6.09279 136.718 6.14875 136.333 7.13292" stroke="#8AAA8A" stroke-miterlimit="10" stroke-linecap="round" stroke-linejoin="round"/>
<path id="Path 1543" d="M150.108 28.3491C151.119 25.4087 154.571 23.8856 156.446 20.1363C157.912 17.2824 156.026 16.6814 156.953 13.0549C156.059 12.9065 154.903 15.2824 154.81 17.8164C154.349 18.7067 153.714 19.4954 152.942 20.1355C152.17 20.7756 151.278 21.2541 150.318 21.5426" stroke="#8AAA8A" stroke-miterlimit="10" stroke-linecap="round" stroke-linejoin="round"/>
<path id="Path 1544" d="M144.916 29.7508C144.903 28.5963 144.863 25.7253 144.916 24.5988C144.865 22.3166 144.916 20.9979 145.904 19.6001C146.665 18.3714 146.923 17.6537 147.494 16.7437C148.081 15.4265 148.433 14.0169 148.535 12.5783C148.586 11.5208 148.701 10.4674 148.88 9.42389C149.294 8.45068 149.7 8.41661 150.097 9.42389" stroke="#8AAA8A" stroke-miterlimit="10" stroke-linecap="round" stroke-linejoin="round"/>
<path id="Path 1545" d="M155.691 14.1964C155.679 11.6133 155.361 9.04072 154.744 6.53231C154.302 5.38148 153.741 5.34255 153.018 6.83036C153.251 9.90451 153.642 12.3838 153.018 15.2511" stroke="#8AAA8A" stroke-miterlimit="10" stroke-linecap="round" stroke-linejoin="round"/>
<path id="Path 1546" d="M151.17 15.1364C151.568 12.4834 151.568 9.78591 151.17 7.13292C151.319 4.57823 152.569 4.00768 153.016 6.83487" stroke="#8AAA8A" stroke-miterlimit="10" stroke-linecap="round" stroke-linejoin="round"/>
<path id="Path 1547" d="M149.534 15.1376C150.252 13.1596 150.099 10.6146 150.099 7.43097C150.423 6.09279 150.785 6.14875 151.17 7.13292" stroke="#8AAA8A" stroke-miterlimit="10" stroke-linecap="round" stroke-linejoin="round"/>
<path id="Path 1548" d="M143.751 7.90068C149.405 3.919 146.106 0.74509 143.751 3.43604C141.396 0.742657 138.097 3.919 143.751 7.90068Z" stroke="#8AAA8A" stroke-miterlimit="10" stroke-linecap="round" stroke-linejoin="round"/>
<path id="Path 1549" d="M154.288 25.9111C151.415 28.6649 147.577 30.1835 143.598 30.1414C139.618 30.0994 135.814 28.4999 132.999 25.686" stroke="#8AAA8A" stroke-linecap="round" stroke-linejoin="round"/>
</g>
<g id="Group 661">
<path id="Path 1550" d="M19.1543 27.0182C22.542 25.5048 25.4334 25.0498 27.7385 25.8393" stroke="#8AAA8A" stroke-miterlimit="10" stroke-linecap="round" stroke-linejoin="round"/>
<path id="Path 1551" d="M11.7225 27.3847C9.15451 25.1816 6.07546 23.6571 2.7666 22.9504M28.9092 23.5076C24.3546 21.0295 17.2795 23.347 9.39896 29.3603" stroke="#8AAA8A" stroke-miterlimit="10" stroke-linecap="round" stroke-linejoin="round"/>
<path id="Path 1552" d="M13.6911 25.853C10.5503 23.5415 6.62553 22.5603 2.7666 23.1219" stroke="#8AAA8A" stroke-miterlimit="10" stroke-linecap="round" stroke-linejoin="round"/>
<path id="Path 1553" d="M16.4243 24.6776C13.2516 22.8662 7.01341 21.5219 2.7666 22.9112" stroke="#8AAA8A" stroke-miterlimit="10" stroke-linecap="round" stroke-linejoin="round"/>
<path id="Path 1554" d="M7.45274 13.7559C6.73992 8.95915 10.45 5.09912 15.245 4.38867C15.3635 5.51816 15.2546 6.65995 14.9248 7.74668C14.595 8.83341 14.0509 9.84308 13.3246 10.7161C12.5983 11.5892 11.7046 12.308 10.6961 12.83C9.68764 13.3521 8.58483 13.6669 7.45274 13.7559Z" stroke="#8AAA8A" stroke-miterlimit="10" stroke-linecap="round" stroke-linejoin="round"/>
<path id="Path 1555" d="M11.3199 9.14258L6.57471 15.0427" stroke="#8AAA8A" stroke-miterlimit="10" stroke-linecap="round" stroke-linejoin="round"/>
<path id="Path 1556" d="M17.6557 3.85352C18.7959 4.01608 19.8929 4.40177 20.8839 4.98854C21.875 5.57532 22.7408 6.35168 23.4317 7.27324C24.1226 8.1948 24.6251 9.24351 24.9106 10.3594C25.196 11.4753 25.2588 12.6365 25.0952 13.7767C23.9546 13.615 22.8571 13.2299 21.8656 12.6434C20.874 12.0569 20.0079 11.2806 19.3168 10.3588C18.6257 9.437 18.1233 8.38793 17.8383 7.27165C17.5532 6.15537 17.4912 4.99381 17.6557 3.85352Z" stroke="#8AAA8A" stroke-miterlimit="10" stroke-linecap="round" stroke-linejoin="round"/>
<path id="Path 1557" d="M21.4972 9.06973L16.4248 2.43604" stroke="#8AAA8A" stroke-miterlimit="10" stroke-linecap="round" stroke-linejoin="round"/>
<path id="Path 1558" d="M22.3453 16.4589C19.0987 20.0598 13.3926 19.7289 9.79199 16.482C11.4624 14.8307 13.7152 13.9028 16.0639 13.8985C18.4126 13.8941 20.6688 14.8138 22.3453 16.4589Z" stroke="#8AAA8A" stroke-miterlimit="10" stroke-linecap="round" stroke-linejoin="round"/>
<path id="Path 1559" d="M16.0366 16.4831L23.8399 16.4673" stroke="#8AAA8A" stroke-miterlimit="10" stroke-linecap="round" stroke-linejoin="round"/>
<path id="Path 1560" d="M30.1564 10.4458C31.0759 12.7455 31.4202 15.235 31.1594 17.698C30.8985 20.1609 30.0405 22.523 28.6597 24.5792C27.2789 26.6353 25.4171 28.3233 23.236 29.4967C21.0549 30.6701 18.6203 31.2933 16.1437 31.3124C13.667 31.3314 11.2232 30.7456 9.02429 29.6059C6.8254 28.4661 4.93791 26.8069 3.5257 24.7722C2.1135 22.7376 1.21925 20.3889 0.920607 17.9303C0.621962 15.4716 0.927942 12.9772 1.81198 10.6636" stroke="#8AAA8A" stroke-linecap="round" stroke-linejoin="round"/>
</g>
<g id="Group 662">
<path id="Path 1561" d="M89.3516 13.6113C89.5461 10.6887 90.7165 7.91614 92.6751 5.73831C94.6337 3.56048 97.267 2.10359 100.153 1.60134C103.038 1.09909 106.009 1.58058 108.588 2.96858C111.167 4.35658 113.206 6.57065 114.376 9.25565C115.547 11.9406 115.781 14.941 115.043 17.7754C114.304 20.6098 112.635 23.114 110.303 24.8863C107.971 26.6586 105.112 27.5964 102.183 27.5491C99.2545 27.5018 96.4266 26.4723 94.1531 24.6257" stroke="#8AAA8A" stroke-linecap="round" stroke-linejoin="round"/>
<path id="Path 1562" d="M92.9981 23.184C91.9785 23.1385 91.0185 22.6902 90.3291 21.9375C89.6397 21.1848 89.2771 20.1893 89.3209 19.1694C90.3408 19.2143 91.3012 19.6624 91.9907 20.4152C92.6803 21.168 93.0427 22.164 92.9981 23.184Z" stroke="#8AAA8A" stroke-miterlimit="10" stroke-linecap="round" stroke-linejoin="round"/>
<path id="Path 1563" d="M95.5333 23.8822C95.2791 23.7025 95.0628 23.4745 94.8967 23.2112C94.7306 22.9479 94.618 22.6545 94.5654 22.3476C94.5127 22.0408 94.5211 21.7266 94.5899 21.423C94.6587 21.1193 94.7867 20.8323 94.9665 20.5781C95.2208 20.7577 95.4373 20.9856 95.6034 21.2489C95.7696 21.5122 95.8822 21.8057 95.9349 22.1126C95.9875 22.4195 95.9792 22.7338 95.9103 23.0374C95.8414 23.341 95.7133 23.6281 95.5333 23.8822Z" stroke="#8AAA8A" stroke-miterlimit="10" stroke-linecap="round" stroke-linejoin="round"/>
<path id="Path 1564" d="M99.2145 25.7825C98.8763 25.6553 98.5666 25.4627 98.3029 25.2158C98.0393 24.9688 97.8269 24.6723 97.6779 24.3432C97.5289 24.0141 97.4462 23.6588 97.4345 23.2977C97.4229 22.9366 97.4825 22.5768 97.61 22.2388C97.9483 22.3657 98.2583 22.5581 98.5221 22.805C98.786 23.0519 98.9985 23.3485 99.1475 23.6777C99.2966 24.0069 99.3792 24.3622 99.3907 24.7234C99.4022 25.0846 99.3423 25.4445 99.2145 25.7825Z" stroke="#8AAA8A" stroke-miterlimit="10" stroke-linecap="round" stroke-linejoin="round"/>
<path id="Path 1565" d="M107.431 25.3216C106.546 25.4478 105.647 25.2219 104.927 24.6923C104.207 24.1628 103.723 23.3719 103.58 22.4895C104.464 22.3649 105.362 22.5914 106.082 23.1207C106.802 23.65 107.286 24.4399 107.431 25.3216Z" stroke="#8AAA8A" stroke-miterlimit="10" stroke-linecap="round" stroke-linejoin="round"/>
<path id="Path 1566" d="M103.229 26.3446C102.856 26.2822 102.499 26.1469 102.179 25.9464C101.858 25.7459 101.58 25.4842 101.361 25.1761C101.141 24.8681 100.985 24.5199 100.9 24.1513C100.816 23.7828 100.805 23.4012 100.868 23.0283C101.241 23.0905 101.598 23.2257 101.919 23.4262C102.239 23.6266 102.517 23.8884 102.737 24.1964C102.956 24.5045 103.112 24.8528 103.197 25.2214C103.281 25.59 103.292 25.9717 103.229 26.3446Z" stroke="#8AAA8A" stroke-miterlimit="10" stroke-linecap="round" stroke-linejoin="round"/>
<path id="Path 1567" d="M110.921 22.9978C110.14 23.376 109.241 23.4298 108.42 23.1474C107.6 22.865 106.924 22.2693 106.542 21.4905C108.528 20.8409 110.486 21.5148 110.921 22.9978Z" stroke="#8AAA8A" stroke-miterlimit="10" stroke-linecap="round" stroke-linejoin="round"/>
<path id="Path 1568" d="M113.081 20.1099C112.429 20.5569 111.628 20.7295 110.849 20.5905C110.071 20.4514 109.378 20.0118 108.921 19.3666C110.522 18.5479 112.427 18.7681 113.081 20.1099Z" stroke="#8AAA8A" stroke-miterlimit="10" stroke-linecap="round" stroke-linejoin="round"/>
<path id="Path 1569" d="M93.3801 25.4847C93.1901 25.7421 92.9512 25.9595 92.6771 26.1244C92.4031 26.2894 92.0991 26.3987 91.7828 26.446C91.4664 26.4933 91.1438 26.4778 90.8335 26.4003C90.5231 26.3229 90.2311 26.1849 89.9741 25.9944C90.1641 25.737 90.403 25.5197 90.677 25.3547C90.9511 25.1898 91.255 25.0805 91.5714 25.0331C91.8877 24.9858 92.2103 25.0013 92.5207 25.0788C92.831 25.1563 93.1231 25.2942 93.3801 25.4847Z" stroke="#8AAA8A" stroke-miterlimit="10" stroke-linecap="round" stroke-linejoin="round"/>
<path id="Path 1570" d="M92.3521 28.8604C92.3752 27.6183 93.7254 26.757 95.2094 26.7838C95.0939 27.4322 94.7318 28.0107 94.1991 28.3979C93.6663 28.785 93.0044 28.9508 92.3521 28.8604Z" stroke="#8AAA8A" stroke-miterlimit="10" stroke-linecap="round" stroke-linejoin="round"/>
<path id="Path 1571" d="M94.9351 30.4529C94.968 30.0996 95.0703 29.7563 95.2362 29.4426C95.4021 29.129 95.6283 28.8512 95.9018 28.6251C96.1753 28.3991 96.4907 28.2293 96.8299 28.1254C97.1692 28.0215 97.5256 27.9857 97.8788 28.0199C97.846 28.3732 97.7437 28.7166 97.5779 29.0304C97.4121 29.3441 97.1859 29.622 96.9124 29.848C96.6388 30.0741 96.3234 30.2439 95.984 30.3477C95.6447 30.4515 95.2882 30.4873 94.9351 30.4529Z" stroke="#8AAA8A" stroke-miterlimit="10" stroke-linecap="round" stroke-linejoin="round"/>
<path id="Path 1572" d="M98.3948 31.533C98.3153 30.8565 98.5035 30.1757 98.9192 29.636C99.335 29.0964 99.9452 28.7407 100.62 28.645C100.7 29.3217 100.512 30.0029 100.096 30.5426C99.6801 31.0824 99.0695 31.4379 98.3948 31.533Z" stroke="#8AAA8A" stroke-miterlimit="10" stroke-linecap="round" stroke-linejoin="round"/>
<path id="Path 1573" d="M101.921 31.679C101.759 31.0731 101.843 30.4277 102.154 29.8832C102.465 29.3386 102.979 28.9391 103.583 28.7715C103.744 29.3773 103.66 30.0223 103.349 30.5666C103.038 31.1108 102.525 31.5106 101.921 31.679Z" stroke="#8AAA8A" stroke-miterlimit="10" stroke-linecap="round" stroke-linejoin="round"/>
<path id="Path 1574" d="M105.228 31.7654C105.102 31.3966 105.049 31.0066 105.073 30.6175C105.097 30.2285 105.198 29.848 105.369 29.4978C105.54 29.1476 105.779 28.8345 106.071 28.5766C106.363 28.3186 106.703 28.1207 107.072 27.9941C107.327 28.7388 107.277 29.5544 106.931 30.2615C106.585 30.9687 105.973 31.5096 105.228 31.7654Z" stroke="#8AAA8A" stroke-miterlimit="10" stroke-linecap="round" stroke-linejoin="round"/>
<path id="Path 1575" d="M109.209 31.0269C108.802 30.4212 108.651 29.6789 108.789 28.9621C108.928 28.2454 109.344 27.6126 109.948 27.2021C110.15 27.5018 110.292 27.8384 110.365 28.1927C110.437 28.5471 110.439 28.9123 110.371 29.2675C110.302 29.6226 110.164 29.9608 109.965 30.2627C109.766 30.5646 109.509 30.8243 109.209 31.0269Z" stroke="#8AAA8A" stroke-miterlimit="10" stroke-linecap="round" stroke-linejoin="round"/>
<path id="Path 1576" d="M113.11 29.8273C112.759 29.5476 112.469 29.1995 112.257 28.8041C112.045 28.4088 111.915 27.9745 111.876 27.5276C111.837 27.0807 111.89 26.6305 112.03 26.2044C112.17 25.7783 112.396 25.3851 112.692 25.0488C113.042 25.329 113.332 25.6773 113.544 26.0726C113.755 26.4679 113.885 26.9021 113.924 27.3488C113.963 27.7955 113.911 28.2455 113.771 28.6715C113.631 29.0975 113.406 29.4907 113.11 29.8273Z" stroke="#8AAA8A" stroke-miterlimit="10" stroke-linecap="round" stroke-linejoin="round"/>
<path id="Path 1577" d="M116.334 26.0247C115.973 25.8471 115.65 25.5996 115.385 25.2963C115.12 24.9931 114.918 24.6403 114.791 24.2584C114.663 23.8764 114.613 23.4729 114.643 23.0713C114.672 22.6698 114.781 22.278 114.963 21.9189C115.324 22.0974 115.646 22.3454 115.91 22.6488C116.174 22.9521 116.376 23.3048 116.503 23.6864C116.631 24.0681 116.682 24.4712 116.652 24.8725C116.623 25.2738 116.515 25.6654 116.334 26.0247Z" stroke="#8AAA8A" stroke-miterlimit="10" stroke-linecap="round" stroke-linejoin="round"/>
<path id="Path 1578" d="M102.224 21.3084C97.0409 16.3912 97.2854 8.53494 102.203 3.35742C107.127 8.53494 107.4 16.3852 102.224 21.3084Z" stroke="#8AAA8A" stroke-miterlimit="10" stroke-linecap="round" stroke-linejoin="round"/>
<path id="Path 1579" d="M103.955 5.90088L102.273 8.06629L100.364 5.90088" stroke="#8AAA8A" stroke-miterlimit="10" stroke-linecap="round" stroke-linejoin="round"/>
<path id="Path 1580" d="M105.067 8.04102L102.213 11.5531L99.4458 8.04102" stroke="#8AAA8A" stroke-miterlimit="10" stroke-linecap="round" stroke-linejoin="round"/>
<path id="Path 1581" d="M105.712 10.9556L102.236 15.0163L98.7002 10.9556" stroke="#8AAA8A" stroke-miterlimit="10" stroke-linecap="round" stroke-linejoin="round"/>
<path id="Path 1582" d="M105.916 13.9229L102.209 18.6004L98.5601 13.9229" stroke="#8AAA8A" stroke-miterlimit="10" stroke-linecap="round" stroke-linejoin="round"/>
<path id="Path 1583" d="M102.204 3.36328V20.8252" stroke="#8AAA8A" stroke-miterlimit="10" stroke-linecap="round" stroke-linejoin="round"/>
</g>
<g id="Group 683">
<path id="Path 1584" d="M172.552 24.0504C173.144 23.219 173.94 22.5544 174.864 22.121C175.463 21.8492 176.121 21.7333 176.776 21.7841C177.432 21.835 178.064 22.0509 178.614 22.4117C181.388 22.9815 184.234 23.1088 187.047 22.7889C189.384 22.6599 188.983 24.6136 187.76 25.0552C185.513 25.6129 183.2 25.867 180.886 25.8107" stroke="#8AAA8A" stroke-miterlimit="10" stroke-linecap="round" stroke-linejoin="round"/>
<path id="Path 1585" d="M178.535 29.7666C181.49 28.0781 185.021 29.0866 186.556 28.5002C187.871 28.0403 190.956 27.3177 192.424 26.8153C194.035 25.9116 195.577 24.8919 197.04 23.7643L198.297 22.6621C199.359 21.358 198.598 21.2023 197.203 21.4456C196.063 21.9723 194.906 22.6901 193.217 23.4188C191.685 24.0376 190.073 24.4381 188.429 24.6085" stroke="#8AAA8A" stroke-miterlimit="10" stroke-linecap="round" stroke-linejoin="round"/>
<path id="Path 1586" d="M178.621 22.409C178.686 22.1812 178.799 21.97 178.953 21.7897C179.107 21.6094 179.297 21.4641 179.512 21.3637C179.727 21.2633 179.96 21.2101 180.197 21.2076C180.434 21.2051 180.669 21.2535 180.886 21.3494" stroke="#8AAA8A" stroke-miterlimit="10" stroke-linecap="round" stroke-linejoin="round"/>
<path id="Path 1587" d="M181.006 21.7461C181.006 20.4797 182.272 20.4797 182.755 21.3495" stroke="#8AAA8A" stroke-miterlimit="10" stroke-linecap="round" stroke-linejoin="round"/>
<path id="Path 1588" d="M184.325 20.6134C183.569 19.774 182.378 19.8835 182.202 20.8299" stroke="#8AAA8A" stroke-miterlimit="10" stroke-linecap="round" stroke-linejoin="round"/>
<path id="Path 1589" d="M185.625 17.1052C186.427 15.6459 187.765 14.5554 189.356 14.0639C189.925 13.8409 190.445 13.5073 190.884 13.0824C191.324 12.6575 191.675 12.1497 191.918 11.5883C192.201 10.5051 192.201 9.36731 191.918 8.28418C191.205 8.28418 191.078 9.36445 189.904 10.2452C187.974 11.5031 187.273 11.0846 186.22 12.8121C185.165 15.1332 185.733 17.4422 185.733 20.0845C186.071 19.8685 186.461 19.7465 186.861 19.7311C187.262 19.7157 187.659 19.8075 188.013 19.9969" stroke="#8AAA8A" stroke-miterlimit="10" stroke-linecap="round" stroke-linejoin="round"/>
<path id="Path 1590" d="M185.649 20.7099C185.649 18.2768 185.87 15.5384 184.901 13.4034C183.928 11.8134 183.287 12.2003 181.511 11.0421C180.431 10.2319 180.315 9.23926 179.66 9.23926C179.399 10.2362 179.399 11.2836 179.66 12.2806C179.883 12.7956 180.206 13.2614 180.611 13.651C181.015 14.0406 181.493 14.3463 182.016 14.5506C183.343 15.1053 185.023 15.8997 185.649 17.3656" stroke="#8AAA8A" stroke-miterlimit="10" stroke-linecap="round" stroke-linejoin="round"/>
<path id="Path 1591" d="M185.528 3.5957C186.178 3.70032 187.37 6.71487 187.318 8.18321C187.259 9.87053 185.725 9.78415 185.528 14.1855C185.024 9.88877 183.993 9.29998 184.399 7.47641C184.94 6.23662 185.319 4.93234 185.528 3.5957Z" stroke="#8AAA8A" stroke-miterlimit="10" stroke-linecap="round" stroke-linejoin="round"/>
<path id="Path 1592" d="M194.109 23.0138C192.717 22.4055 192.297 20.1976 191.014 21.897" stroke="#8AAA8A" stroke-miterlimit="10" stroke-linecap="round" stroke-linejoin="round"/>
<path id="Path 1593" d="M189.277 21.5283C189.781 20.6341 190.726 20.5319 192.075 21.2971" stroke="#8AAA8A" stroke-miterlimit="10" stroke-linecap="round" stroke-linejoin="round"/>
<path id="Path 1594" d="M187.513 20.4394C187.787 19.8384 188.851 20.0392 189.871 20.825C191.189 19.7988 192.204 18.4329 192.806 16.8738C193.75 15.4626 194.481 16.0027 194.304 17.4614C194.113 18.6677 193.656 19.8166 192.966 20.825" stroke="#8AAA8A" stroke-miterlimit="10" stroke-linecap="round" stroke-linejoin="round"/>
<path id="Path 1595" d="M184.355 20.3627C184.457 20.1509 184.62 19.9752 184.825 19.8593C185.029 19.7434 185.264 19.6928 185.497 19.7143" stroke="#8AAA8A" stroke-miterlimit="10" stroke-linecap="round" stroke-linejoin="round"/>
<path id="Path 1596" d="M192.077 21.2987C193.411 20.6262 194.56 19.6401 195.429 18.4252C197.055 17.0043 197.773 17.0566 197.19 19.2184C196.45 20.6029 195.478 21.8508 194.318 22.9081" stroke="#8AAA8A" stroke-miterlimit="10" stroke-linecap="round" stroke-linejoin="round"/>
<path id="Path 1597" d="M192.128 18.2875C192.615 17.0394 191.62 16.7997 190.92 17.7535C190.248 18.7161 189.352 19.5013 188.309 20.0418" stroke="#8AAA8A" stroke-miterlimit="10" stroke-linecap="round" stroke-linejoin="round"/>
<path id="Path 1598" d="M193.751 29.4139C191.953 30.5613 189.931 31.3132 187.819 31.6198C185.708 31.9264 183.556 31.7806 181.505 31.1921C179.454 30.6036 177.552 29.5859 175.924 28.2064C174.297 26.8269 172.981 25.1172 172.065 23.1906C171.148 21.264 170.651 19.1645 170.608 17.0315C170.564 14.8984 170.975 12.7804 171.812 10.818C172.649 8.85553 173.894 7.09349 175.463 5.64867C177.033 4.20385 178.892 3.10926 180.917 2.4375" stroke="#8AAA8A" stroke-linecap="round" stroke-linejoin="round"/>
<path id="Path 1599" d="M191.025 2.65039C194.155 3.84166 196.798 6.04264 198.536 8.90504C200.274 11.7674 201.008 15.1278 200.621 18.4542" stroke="#8AAA8A" stroke-linecap="round" stroke-linejoin="round"/>
</g>
</g>
</g>
</g>
</g>
</g>
<path d="M-2205 -893H4900V-895H-2205V-893ZM4901 -892V1687H4903V-892H4901ZM4900 1688H-2205V1690H4900V1688ZM-2206 1687V-892H-2208V1687H-2206ZM-2205 1688C-2205.55 1688 -2206 1687.55 -2206 1687H-2208C-2208 1688.66 -2206.66 1690 -2205 1690V1688ZM4901 1687C4901 1687.55 4900.55 1688 4900 1688V1690C4901.66 1690 4903 1688.66 4903 1687H4901ZM4900 -893C4900.55 -893 4901 -892.552 4901 -892H4903C4903 -893.657 4901.66 -895 4900 -895V-893ZM-2205 -895C-2206.66 -895 -2208 -893.657 -2208 -892H-2206C-2206 -892.552 -2205.55 -893 -2205 -893V-895Z" fill="white" fill-opacity="0.1"/>
</g>
<defs>
<clipPath id="clip0_0_1">
<rect width="1557" height="1902" fill="white" transform="translate(-275 -738)"/>
</clipPath>
</defs>
</svg>
