<svg width="33" height="33" viewBox="0 0 33 33" fill="none" xmlns="http://www.w3.org/2000/svg">
<path id="search-ico" fill-rule="evenodd" clip-rule="evenodd" d="M15.4977 3.25858C13.4966 3.25838 11.5259 3.7491 9.75848 4.68774C7.99105 5.62638 6.48083 6.98427 5.36018 8.64239C4.23954 10.3005 3.54269 12.2082 3.33072 14.1983C3.11876 16.1884 3.39814 18.2002 4.14439 20.0572C4.89063 21.9142 6.08096 23.5597 7.61102 24.8497C9.14108 26.1396 10.9642 27.0345 12.9205 27.4559C14.8768 27.8772 16.9066 27.8123 18.832 27.2667C20.7573 26.7211 22.5195 25.7114 23.9639 24.3263C24.0658 24.1863 24.1889 24.0632 24.3289 23.9614C25.988 22.2303 27.102 20.0499 27.5324 17.691C27.9628 15.3321 27.6908 12.8987 26.7499 10.6931C25.8091 8.48759 24.2411 6.60711 22.2406 5.28535C20.2401 3.96359 17.8954 3.25881 15.4977 3.25858ZM27.5475 25.2387C30.0418 22.1523 31.2571 18.2265 30.943 14.2705C30.6289 10.3145 28.8092 6.62972 25.8591 3.97569C22.909 1.32165 19.0532 -0.0994032 15.0865 0.00541189C11.1198 0.110227 7.34448 1.73292 4.53862 4.53905C1.73276 7.34518 0.110216 11.1209 0.00541138 15.088C-0.0993937 19.0551 1.32153 22.9112 3.97531 25.8616C6.62909 28.812 10.3135 30.6318 14.2691 30.9459C18.2248 31.2601 22.1502 30.0446 25.2363 27.5501L29.8355 32.1498C30.142 32.4563 30.5577 32.6285 30.9911 32.6285C31.4245 32.6285 31.8402 32.4563 32.1467 32.1498C32.4532 31.8433 32.6254 31.4276 32.6254 30.9941C32.6254 30.5606 32.4532 30.1449 32.1467 29.8384L27.5475 25.2387Z" fill="#6B956B"/>
</svg>
