<svg width="16" height="17" viewBox="0 0 16 17" fill="none" xmlns="http://www.w3.org/2000/svg">
<g id="Frame" clip-path="url(#clip0_184_15266)">
<path id="Vector" d="M5.67032 12.3114H1.94305C1.69592 12.3114 1.4589 12.2132 1.28415 12.0385C1.1094 11.8637 1.01123 11.6267 1.01123 11.3796V4.85687C1.01123 4.60973 1.1094 4.37272 1.28415 4.19797C1.4589 4.02322 1.69592 3.92505 1.94305 3.92505H11.2612C11.5084 3.92505 11.7454 4.02322 11.9201 4.19797C12.0949 4.37272 12.193 4.60973 12.193 4.85687V5.78869" stroke="#8AAA8A" stroke-width="1.5" stroke-linecap="round" stroke-linejoin="round"/>
<path id="Vector_2" d="M11.8925 4.17171L10.1401 1.54461C10.0551 1.41723 9.94016 1.31274 9.80527 1.24036C9.67038 1.16798 9.51973 1.12996 9.36665 1.12964H3.83786C3.68446 1.12965 3.53344 1.16753 3.3982 1.23992C3.26295 1.31231 3.14767 1.41697 3.06259 1.54461L1.31201 4.17171" stroke="#8AAA8A" stroke-width="1.5" stroke-linecap="round" stroke-linejoin="round"/>
<path id="Vector_3" d="M6.60205 1.12964V3.92509" stroke="#8AAA8A" stroke-width="1.5" stroke-linecap="round" stroke-linejoin="round"/>
<path id="Vector_4" d="M9.86373 12.3113H7.53418V14.6408" stroke="#8AAA8A" stroke-width="1.5" stroke-linecap="round" stroke-linejoin="round"/>
<path id="Vector_5" d="M14.6264 12.7666C14.3797 13.4877 13.9018 14.1072 13.2671 14.529C12.6323 14.9507 11.8761 15.1512 11.1158 15.0993C10.3554 15.0474 9.63344 14.7461 9.06187 14.242C8.4903 13.7378 8.10107 13.0592 7.95459 12.3113" stroke="#8AAA8A" stroke-width="1.5" stroke-linecap="round" stroke-linejoin="round"/>
<path id="Vector_6" d="M12.6592 10.4477H14.9887V8.11816" stroke="#8AAA8A" stroke-width="1.5" stroke-linecap="round" stroke-linejoin="round"/>
<path id="Vector_7" d="M7.89648 9.99236C8.14323 9.27129 8.62104 8.65181 9.25581 8.23003C9.89057 7.80825 10.6468 7.60775 11.4071 7.65965C12.1675 7.71154 12.8895 8.01292 13.461 8.51703C14.0326 9.02114 14.4218 9.6998 14.5683 10.4477" stroke="#8AAA8A" stroke-width="1.5" stroke-linecap="round" stroke-linejoin="round"/>
</g>
<defs>
<clipPath id="clip0_184_15266">
<rect width="16" height="16" fill="white" transform="translate(0 0.118164)"/>
</clipPath>
</defs>
</svg>
