<svg width="16" height="17" viewBox="0 0 16 17" fill="none" xmlns="http://www.w3.org/2000/svg">
<g id="Frame" clip-path="url(#clip0_184_15348)">
<path id="Vector" d="M7.12137 2.34117C7.23224 2.46424 7.36773 2.56264 7.51906 2.63C7.67039 2.69735 7.83419 2.73215 7.99983 2.73215C8.16547 2.73215 8.32927 2.69735 8.4806 2.63C8.63193 2.56264 8.76742 2.46424 8.87829 2.34117L9.44983 1.71405C9.61363 1.53276 9.82952 1.40661 10.0679 1.35291C10.3062 1.29922 10.5554 1.3206 10.7811 1.41413C11.0068 1.50766 11.198 1.66875 11.3286 1.8753C11.4591 2.08185 11.5225 2.32373 11.51 2.56774L11.4671 3.41357C11.4588 3.57857 11.4852 3.74348 11.5445 3.89768C11.6038 4.05187 11.6948 4.19194 11.8115 4.30884C11.9283 4.42575 12.0682 4.51691 12.2223 4.57645C12.3764 4.63599 12.5413 4.66258 12.7063 4.65453L13.5521 4.61163C13.796 4.59961 14.0376 4.6633 14.2438 4.79396C14.4501 4.92463 14.6109 5.11588 14.7041 5.34151C14.7974 5.56713 14.8187 5.81608 14.7649 6.05425C14.7112 6.29241 14.5851 6.50813 14.404 6.67184L13.7745 7.23976C13.6515 7.35078 13.5533 7.48636 13.486 7.63772C13.4188 7.78909 13.384 7.95288 13.384 8.11852C13.384 8.28415 13.4188 8.44794 13.486 8.59931C13.5533 8.75068 13.6515 8.88625 13.7745 8.99728L14.404 9.5652C14.5853 9.729 14.7114 9.94489 14.7651 10.1832C14.8188 10.4216 14.7974 10.6707 14.7039 10.8964C14.6104 11.1222 14.4493 11.3134 14.2427 11.4439C14.0362 11.5744 13.7943 11.6378 13.5503 11.6254L12.7045 11.5825C12.5391 11.574 12.3738 11.6003 12.2192 11.6597C12.0647 11.7191 11.9243 11.8103 11.8072 11.9274C11.6901 12.0445 11.5989 12.1849 11.5395 12.3394C11.4801 12.494 11.4538 12.6593 11.4623 12.8247L11.5052 13.6705C11.516 13.9133 11.4518 14.1535 11.3214 14.3586C11.1909 14.5636 11.0005 14.7235 10.776 14.8166C10.5515 14.9096 10.3038 14.9313 10.0665 14.8787C9.82924 14.826 9.61393 14.7016 9.44983 14.5224L8.88131 13.8934C8.77034 13.7705 8.63482 13.6723 8.4835 13.6051C8.33218 13.5378 8.16844 13.5031 8.00285 13.5031C7.83726 13.5031 7.67352 13.5378 7.5222 13.6051C7.37088 13.6723 7.23536 13.7705 7.12439 13.8934L6.55345 14.5224C6.38961 14.7025 6.17421 14.8277 5.93663 14.8809C5.69904 14.9341 5.45083 14.9127 5.22582 14.8197C5.00082 14.7267 4.80998 14.5665 4.67931 14.3611C4.54864 14.1557 4.48451 13.9149 4.49566 13.6717L4.53916 12.8259C4.54767 12.6605 4.52136 12.4952 4.46195 12.3406C4.40253 12.1861 4.31133 12.0457 4.19424 11.9286C4.07716 11.8115 3.93679 11.7203 3.78223 11.6609C3.62767 11.6015 3.46236 11.5752 3.297 11.5837L2.45116 11.6266C2.20725 11.6393 1.96538 11.5763 1.75875 11.446C1.55212 11.3158 1.39087 11.1248 1.29713 10.8993C1.2034 10.6737 1.18177 10.4247 1.23522 10.1864C1.28867 9.94805 1.41458 9.73212 1.59566 9.56822L2.2246 9.0003C2.34752 8.88927 2.44577 8.7537 2.51302 8.60233C2.58027 8.45096 2.61502 8.28717 2.61502 8.12154C2.61502 7.9559 2.58027 7.79211 2.51302 7.64075C2.44577 7.48938 2.34752 7.3538 2.2246 7.24278L1.59566 6.67184C1.41517 6.50811 1.28964 6.29264 1.23624 6.05487C1.18285 5.8171 1.20418 5.56864 1.29734 5.34346C1.39049 5.11827 1.55092 4.92735 1.75669 4.7968C1.96245 4.66624 2.20352 4.60241 2.44693 4.61405L3.29277 4.65694C3.45845 4.66566 3.62411 4.63942 3.77899 4.57994C3.93387 4.52046 4.0745 4.42906 4.19176 4.31169C4.30902 4.19432 4.40028 4.05359 4.45961 3.89866C4.51894 3.74372 4.54501 3.57803 4.53614 3.41236L4.49566 2.56592C4.48425 2.3226 4.54818 2.08169 4.67875 1.87605C4.80932 1.67041 5.00015 1.51007 5.22522 1.4169C5.45028 1.32373 5.69861 1.30227 5.93632 1.35545C6.17403 1.40863 6.38955 1.53386 6.55345 1.71405L7.12137 2.34117Z" stroke="#8AAA8A" stroke-width="1.5" stroke-linecap="round" stroke-linejoin="round"/>
<path id="Vector_2" d="M5.28125 8.11865C5.28125 8.47568 5.35157 8.82922 5.4882 9.15907C5.62483 9.48893 5.82509 9.78864 6.07755 10.0411C6.33001 10.2936 6.62973 10.4938 6.95958 10.6304C7.28943 10.7671 7.64297 10.8374 8 10.8374C8.35703 10.8374 8.71057 10.7671 9.04042 10.6304C9.37027 10.4938 9.66999 10.2936 9.92245 10.0411C10.1749 9.78864 10.3752 9.48893 10.5118 9.15907C10.6484 8.82922 10.7188 8.47568 10.7188 8.11865C10.7188 7.76162 10.6484 7.40809 10.5118 7.07823C10.3752 6.74838 10.1749 6.44866 9.92245 6.19621C9.66999 5.94375 9.37027 5.74348 9.04042 5.60685C8.71057 5.47022 8.35703 5.3999 8 5.3999C7.64297 5.3999 7.28943 5.47022 6.95958 5.60685C6.62973 5.74348 6.33001 5.94375 6.07755 6.19621C5.82509 6.44866 5.62483 6.74838 5.4882 7.07823C5.35157 7.40809 5.28125 7.76162 5.28125 8.11865Z" stroke="#8AAA8A" stroke-width="1.5" stroke-linecap="round" stroke-linejoin="round"/>
</g>
<defs>
<clipPath id="clip0_184_15348">
<rect width="16" height="16" fill="white" transform="translate(0 0.118164)"/>
</clipPath>
</defs>
</svg>
