<svg width="18" height="15" viewBox="0 0 18 15" fill="none" xmlns="http://www.w3.org/2000/svg">
<path d="M16.5628 2.43188V6.48656H12.2385" stroke="#8AAA8A" stroke-width="2" stroke-linecap="round" stroke-linejoin="round"/>
<path d="M1.42578 12.5693V8.51465H5.75011" stroke="#8AAA8A" stroke-width="2" stroke-linecap="round" stroke-linejoin="round"/>
<path d="M3.15308 5.47323C3.50432 4.50099 4.09754 3.63431 4.87673 2.95503C5.66131 2.27082 6.60475 1.79404 7.62094 1.56819C8.64263 1.34232 9.70448 1.37451 10.7106 1.66187C11.7122 1.94569 12.6265 2.47651 13.3697 3.20563L16.5627 6.15327M1.42578 8.85273L4.61885 11.8004C5.36239 12.5282 6.27666 13.0577 7.27791 13.3405C8.28359 13.6262 9.34454 13.6571 10.3652 13.4305C11.3826 13.2052 12.3274 12.7284 13.113 12.0437C13.8922 11.3644 14.4854 10.4977 14.8367 9.52547" stroke="#8AAA8A" stroke-width="2" stroke-linecap="round" stroke-linejoin="round"/>
</svg>
