<svg width="16" height="17" viewBox="0 0 16 17" fill="none" xmlns="http://www.w3.org/2000/svg">
<g id="Frame" clip-path="url(#clip0_184_15334)">
<path id="Vector" d="M1.80729 1.32129H14.1927C14.1927 1.32129 14.7969 1.32129 14.7969 1.92546V14.3109C14.7969 14.3109 14.7969 14.915 14.1927 14.915H1.80729C1.80729 14.915 1.20312 14.915 1.20312 14.3109V1.92546C1.20312 1.92546 1.20312 1.32129 1.80729 1.32129Z" stroke="#8AAA8A" stroke-width="1.5" stroke-linecap="round" stroke-linejoin="round"/>
<path id="Vector_2" d="M7.99995 12.6495L3.75206 8.04813C3.37749 7.65316 3.13188 7.15364 3.04782 6.61584C2.96376 6.07803 3.04523 5.52738 3.28141 5.03696C3.44883 4.67089 3.70335 4.35139 4.02274 4.10637C4.34212 3.86136 4.71665 3.69829 5.1136 3.63142C5.51054 3.56455 5.91782 3.5959 6.29986 3.72275C6.68189 3.8496 7.02704 4.06807 7.30516 4.35909L7.99995 5.07986L8.69353 4.35969C8.97156 4.06891 9.31655 3.85062 9.69837 3.72389C10.0802 3.59715 10.4872 3.56581 10.884 3.63262C11.2807 3.69942 11.655 3.86234 11.9743 4.10713C12.2935 4.35193 12.548 4.67117 12.7155 5.03696C12.9519 5.52724 13.0334 6.07784 12.9494 6.6156C12.8653 7.15335 12.6196 7.65279 12.2448 8.04752L7.99995 12.6495Z" stroke="#8AAA8A" stroke-width="1.5" stroke-linecap="round" stroke-linejoin="round"/>
</g>
<defs>
<clipPath id="clip0_184_15334">
<rect width="16" height="16" fill="white" transform="translate(0 0.118164)"/>
</clipPath>
</defs>
</svg>
