<svg xmlns="http://www.w3.org/2000/svg" width="94.409" height="75"><defs><clipPath id="clip-path"><path id="Rectangle_414" data-name="Rectangle 414" fill="none" d="M0 0h94.41v75H0z"/></clipPath></defs><g id="Group_966" data-name="Group 966"><g id="Group_965" data-name="Group 965" clip-path="url('#clip-path')"><path id="Path_1781" data-name="Path 1781" d="M34.2 59.117a6.441 6.441 0 1 0 6.439 6.442 6.448 6.448 0 0 0-6.439-6.442m0 9.23a2.789 2.789 0 1 1 2.788-2.788 2.805 2.805 0 0 1-2.788 2.788M13.079 3.34a1.839 1.839 0 0 0-1.791-1.459h-9.43a1.858 1.858 0 0 0 0 3.717h7.9L27.224 55.8a1.841 1.841 0 0 0 1.791 1.461h48.539V53.54h-47.01Zm56.177 55.777A6.441 6.441 0 1 0 75.7 65.56a6.448 6.448 0 0 0-6.439-6.442m0 9.23a2.789 2.789 0 1 1 2.788-2.788 2.762 2.762 0 0 1-2.788 2.788M22.176 16.621l1.861 3.719h56.44a26.361 26.361 0 0 1-1.661 5.51H25.431l.465 1.858h52.123a40.168 40.168 0 0 1-2.319 4.317 14.355 14.355 0 0 1-.929 1.2H27.289l.465 1.858h45.019c-4.646 3.719-12.282 5.51-17 5.51H29.547l1.858 3.719h22.18c10.623 0 19.324-3.255 24.037-9.23 6.307-8.1 7.371-18.459 7.371-18.459ZM72.841 35.08l1.794-1.726a14.929 14.929 0 0 1-1.794 1.726" transform="translate(0 3)" fill="#394b31"/><path id="Path_1782" data-name="Path 1782" d="M53.169 14.568A14.068 14.068 0 1 1 39.1.5a14.069 14.069 0 0 1 14.069 14.068" transform="translate(39.942 .797)" fill="#fff"/><path id="Path_1783" data-name="Path 1783" d="M39.9 30.731a15.365 15.365 0 1 1 15.365-15.366A15.384 15.384 0 0 1 39.9 30.731m0-28.131a12.77 12.77 0 1 0 12.77 12.77A12.784 12.784 0 0 0 39.9 2.6" transform="translate(39.145 -.001)" fill="#394b31"/><path id="Path_1784" data-name="Path 1784" d="m35.636 17.492-8.145-8.92.958-.872 7.13 7.8L46.01 2.638l1.007.815Z" transform="translate(43.862 4.209)" fill="#af813e"/><path id="Path_1785" data-name="Path 1785" d="M36.387 19.656 27.048 9.43l2.385-2.178 6.808 7.454 10.133-12.5 2.51 2.035ZM28.88 9.513l7.447 8.155 10.73-13.235-.493-.4L36.3 16.7l-6.95-7.615Z" transform="translate(43.156 3.524)" fill="#af813e"/></g></g></svg>