<svg xmlns="http://www.w3.org/2000/svg" width="96.705" height="75.757"><defs><clipPath id="clip-path"><path id="Rectangle_438" data-name="Rectangle 438" fill="none" d="M0 0h96.705v75.757H0z"/></clipPath></defs><g id="Group_974" data-name="Group 974"><g id="Group_973" data-name="Group 973" clip-path="url('#clip-path')"><path id="Path_1798" data-name="Path 1798" d="M95.2 0H1.512A1.6 1.6 0 0 0 0 1.681v58.81a1.606 1.606 0 0 0 1.512 1.684h34.523v10.217h-7.95v3.365h40.538v-3.365h-7.95V62.175H95.2a1.606 1.606 0 0 0 1.512-1.684V1.681A1.6 1.6 0 0 0 95.2 0M57.653 72.392h-18.6v-10.22h18.6Zm36.032-13.581H3.023V3.362h90.662Z" fill="#394b31"/><path id="Rectangle_434" data-name="Rectangle 434" transform="translate(55.656 12.315)" fill="#af813e" d="M0 0h30.221v3.362H0z"/><path id="Rectangle_435" data-name="Rectangle 435" transform="translate(55.656 36.229)" fill="#af813e" d="M0 0h30.221v3.362H0z"/><path id="Rectangle_436" data-name="Rectangle 436" transform="translate(55.656 48.183)" fill="#af813e" d="M0 0h30.221v3.362H0z"/><path id="Path_1799" data-name="Path 1799" d="M33.711 15.394a2.582 2.582 0 0 0 2.43-2.311l2.829-1.8-1.5-2.916-2.691 1.712a2.277 2.277 0 0 0-1.069-.285 2.67 2.67 0 0 0-2.518 2.8c0 .069.031.125.035.191l-3.217 3.133a2.115 2.115 0 0 0-.483-.11 2.675 2.675 0 0 0-2.518 2.8 2.964 2.964 0 0 0 .42 1.458l-3 8.9a2.366 2.366 0 0 0-.677.191l-5-4.55a2.531 2.531 0 0 0-2.346-1.847 2.673 2.673 0 0 0-2.518 2.8c0 .085.038.157.044.238l-6 10.21v-4.834h2.81v-3.362H5.933v-3.8h2.81v-3.365h-2.81v-3.8h2.81v-3.366h-2.81V9.68h2.81V6.316h-2.81v-2.39h-3.01v39.236h35.251V39.8h-4.23v-3.12H30.92v3.12h-3.415v-3.12h-3.023v3.12h-3.418v-3.12h-3.02v3.12h-3.418v-3.12h-3.02v3.12h-4.29l6.761-11.5a2.382 2.382 0 0 0 .329.075 2.28 2.28 0 0 0 1.245-.42l4.749 4.32a2.57 2.57 0 0 0 2.415 2.217 2.673 2.673 0 0 0 2.518-2.8 3.1 3.1 0 0 0-.22-1.126l3.136-9.31a2.737 2.737 0 0 0 1.8-2.64 1.873 1.873 0 0 0-.034-.191l3.221-3.133a2.261 2.261 0 0 0 .48.107" transform="translate(6.243 8.385)" fill="#af813e"/><path id="Rectangle_437" data-name="Rectangle 437" transform="translate(55.656 24.272)" fill="#af813e" d="M0 0h30.221v3.362H0z"/></g></g></svg>