<svg xmlns="http://www.w3.org/2000/svg" width="81.686" height="75.368"><defs><clipPath id="clip-path"><path id="Rectangle_413" data-name="Rectangle 413" fill="none" d="M0 0h81.686v75.368H0z"/></clipPath></defs><g id="Group_964" data-name="Group 964"><g id="Group_963" data-name="Group 963" clip-path="url('#clip-path')"><path id="Path_1776" data-name="Path 1776" d="M32.048.217A31.786 31.786 0 1 0 63.834 32 31.788 31.788 0 0 0 32.048.217M27.895 6.59l.175-.2a3.4 3.4 0 0 0 1.019-2.09 2.806 2.806 0 0 0-.542-1.884 29.268 29.268 0 0 1 7.785.1 2.79 2.79 0 0 0 1.157.89 3.275 3.275 0 0 0 2.154.247 1.828 1.828 0 0 0 .632-.29q.922.262 1.819.58a1.92 1.92 0 0 0 1.592 1.449 2.579 2.579 0 0 0 1.419-.18A29.822 29.822 0 0 1 61.385 26.8a2.19 2.19 0 0 0-.19.895.613.613 0 0 0 .007.137c-.035.055-.082.085-.3.19a2.946 2.946 0 0 0-.92.625 3.364 3.364 0 0 0-.662 1.042 1.479 1.479 0 0 1-.272.467 1.077 1.077 0 0 1-.417.17 2.278 2.278 0 0 0-1.462.982 2.616 2.616 0 0 0-.342 1.674l.007.152a2.113 2.113 0 0 1-.267.11 1.627 1.627 0 0 0-.215-1.195 1.35 1.35 0 0 0-1.145-.667 1.645 1.645 0 0 0-1.13.527 5.679 5.679 0 0 0-.085-1.255 1.86 1.86 0 0 1 .13-1.06l.055-.187a2.018 2.018 0 0 1 .4-.695 3.654 3.654 0 0 0 .752-1.447 4.854 4.854 0 0 0 .075-1.782 7.567 7.567 0 0 1-.047-.6l-.02-.525a10.758 10.758 0 0 0-.187-1.929l-.067-.347a5.694 5.694 0 0 0-.845-2.307 4.3 4.3 0 0 0-1.692-1.662 3.384 3.384 0 0 0-.615-.26 4.708 4.708 0 0 0-.947-.19l-.31-.042a3.886 3.886 0 0 0-1.357.085c-.285.057-.465.1-.607.027a1.207 1.207 0 0 1-.385-.382c-.095-.117-.192-.242-.322-.387a3.426 3.426 0 0 1-.307-.395 3.828 3.828 0 0 0-.755-.85 3.777 3.777 0 0 0-1.27-.747 4.1 4.1 0 0 0-2.752.2 4.318 4.318 0 0 0-1.419.852c-.155.127-.32.265-.48.372s-.3.155-.432.22a4 4 0 0 0-1.065.662 7.52 7.52 0 0 1-1.419.9 1.094 1.094 0 0 1-.365-.117 2.756 2.756 0 0 0-.885-.255l-.215-.015c-.067 0-.135 0-.187.01a2.7 2.7 0 0 0-1 .287 1.525 1.525 0 0 1-.3.117 3.931 3.931 0 0 1-1.12.06 5.517 5.517 0 0 0-1.794.145 3.448 3.448 0 0 0-1.035.517c-.262.177-.325.21-.425.21s-.17-.042-.447-.26a3.29 3.29 0 0 0-1.207-.667 6.5 6.5 0 0 0-.987-.18L27.86 18c-.522-.077-.895-.107-1.317-.142-.195-.015-.4-.032-.642-.055h-.28l-.047.017-.112.007-.012-.007a7.6 7.6 0 0 0-1.13-.685 9.226 9.226 0 0 0-.962-.422 4.5 4.5 0 0 0-.16-1.145 2.586 2.586 0 0 0-.077-.215c.012-.045.032-.122.07-.24a2.786 2.786 0 0 1 .417-.765c.052-.037.1-.067.15-.1a3 3 0 0 0 .652-.525 3.522 3.522 0 0 0 1.04-2.342 2.509 2.509 0 0 0-.737-1.822c-.092-.107-.232-.277-.252-.3.042-.167.115-.24.532-.515a6.37 6.37 0 0 0 .687-.507 4.592 4.592 0 0 1 .787-.525 4.686 4.686 0 0 0 1.429-1.12M4.638 43.709a29.606 29.606 0 0 1-2.209-8.454 8.192 8.192 0 0 1 .94-1.387 4.223 4.223 0 0 1 .945-.79 5.783 5.783 0 0 0 1.372-1.2 4.673 4.673 0 0 0 .88-1.967c.157-.62.247-.927.575-1.155a2.7 2.7 0 0 1 1.474-.407c.235-.02.485-.045.76-.085l.365-.052a6.914 6.914 0 0 1 3.184.027 4.848 4.848 0 0 1 1.742.972 12.382 12.382 0 0 0 1.334.913 10.478 10.478 0 0 1 1.117.757 5.937 5.937 0 0 0 2.874 1.352 3.718 3.718 0 0 0 1.872-.312 2.187 2.187 0 0 1 .612-.177.282.282 0 0 1 .142.037c.65.362.795.662.822.867-.14.04-.34.075-.49.1-.7.12-2 .347-2.147 1.687a1.569 1.569 0 0 0 .347 1.275c.52.587 1.492.525 2.584.277a6.879 6.879 0 0 1 1.35-.217 1.15 1.15 0 0 1 .332.04 7.72 7.72 0 0 0 .9.252c.135.032.312.072.465.115-.112.02-.227.042-.325.057a5.583 5.583 0 0 0-1.449.395c-.372.172-.692.337-.99.495a8.571 8.571 0 0 1-1.829.765 2.514 2.514 0 0 1-.922-.05 5.073 5.073 0 0 0-.887-.1 1.984 1.984 0 0 0-1.712.86 3.239 3.239 0 0 0-.112 3.271 3.1 3.1 0 0 0 3.168 1.93 10.269 10.269 0 0 0 3.371-.71 4.657 4.657 0 0 0 1.949-1.429 3.256 3.256 0 0 1 1.1-.912l.5-.23c1.042-.48 1.8-.822 2.622-.437.22.1.315.3.515.792A3.2 3.2 0 0 0 33.22 42.7a3.521 3.521 0 0 0 2.547.062c.442-.127.795-.235 1.052-.085s.38.377.585.812a4.643 4.643 0 0 0 .847 1.33c.13.137.255.272.372.4A5.108 5.108 0 0 0 41.4 47.09a2.645 2.645 0 0 0 .592.07 3.728 3.728 0 0 0 1.7-.5c.385-.19.682-.332.925-.257 1.015.332 1.225.56 1.32.965.085.325-.26.6-1.534 1.212-.2.1-.4.195-.595.295a4.608 4.608 0 0 1-1.972.462c-.31.027-.642.055-1 .1a17.51 17.51 0 0 0-2 .4 9.137 9.137 0 0 1-2.009.337 2.336 2.336 0 0 1-1.534-.525 3.1 3.1 0 0 1-.795-1.065 8.255 8.255 0 0 0-.687-1.1 7.237 7.237 0 0 1-.747-1.34c-.507-1.077-1.142-2.417-2.582-2.417a2.359 2.359 0 0 0-.757.132 2.921 2.921 0 0 0-1.764 1.927 4.538 4.538 0 0 1-.375.765 5.848 5.848 0 0 0-.727 1.592c-.28.835-.367.935-.59.967-.36.05-.585-.1-1.117-.487-.16-.115-.325-.235-.5-.35a3.443 3.443 0 0 1-.8-.8 5.508 5.508 0 0 0-1.147-1.15 6.406 6.406 0 0 0-1.6-.832 5.312 5.312 0 0 1-1.075-.52 1.934 1.934 0 0 1-.4-.43 2.288 2.288 0 0 0-1.774-1.062h-.1a2.724 2.724 0 0 0-2.456 1.482 8.424 8.424 0 0 0-.63 1.682c-.312 1.04-.742 2.459-1.412 2.459-.695-.047-2.734-1.834-3.716-2.694A20.632 20.632 0 0 0 7.8 44.971l-.33-.227a4.423 4.423 0 0 0-2.544-1.06c-.092 0-.187.015-.285.025M32.048 61.8a29.786 29.786 0 0 1-26.32-15.827c.19.117.39.25.6.4l.36.247a19.714 19.714 0 0 1 1.546 1.28c2.067 1.807 3.626 3.094 4.9 3.179 2.247.15 2.966-2.284 3.444-3.866a7.758 7.758 0 0 1 .447-1.262.787.787 0 0 1 .767-.495 1.951 1.951 0 0 1 .275.31 3.715 3.715 0 0 0 .862.852 7.157 7.157 0 0 0 1.452.717 4.54 4.54 0 0 1 1.155.587 3.728 3.728 0 0 1 .765.785 5.34 5.34 0 0 0 1.257 1.22c.152.1.295.2.43.3a3.281 3.281 0 0 0 2.564.847 2.806 2.806 0 0 0 2.192-2.3 4.3 4.3 0 0 1 .48-1.095 6.032 6.032 0 0 0 .575-1.13c.255-.612.34-.732.565-.807a.274.274 0 0 1 .132-.027c.2.062.575.852.775 1.277a8.742 8.742 0 0 0 .972 1.707 6.652 6.652 0 0 1 .517.837 4.928 4.928 0 0 0 1.3 1.672 4.34 4.34 0 0 0 2.769.955 10.56 10.56 0 0 0 2.472-.392 16.093 16.093 0 0 1 1.8-.36c.33-.045.627-.07.907-.095a6.462 6.462 0 0 0 2.717-.677c.177-.09.362-.18.547-.27 1.237-.6 3.106-1.5 2.6-3.476a3.43 3.43 0 0 0-2.639-2.379 2.507 2.507 0 0 0-.765-.12 3.638 3.638 0 0 0-1.654.49 1.636 1.636 0 0 1-.96.277 3.333 3.333 0 0 1-1.759-1.275c-.125-.14-.257-.282-.4-.432a2.893 2.893 0 0 1-.487-.8 3.4 3.4 0 0 0-1.37-1.677 3.41 3.41 0 0 0-2.617-.115c-.437.127-.792.237-1.062.092-.225-.117-.327-.33-.525-.82a3.062 3.062 0 0 0-1.509-1.847 3.7 3.7 0 0 0-1.592-.365 6.418 6.418 0 0 0-2.712.8l-.48.22a5.163 5.163 0 0 0-1.762 1.387 2.8 2.8 0 0 1-1.14.9 8.613 8.613 0 0 1-2.712.595c-.92 0-1.187-.347-1.325-.685-.335-.827-.3-1.1-.017-1.395a3.181 3.181 0 0 1 .552.07 4.442 4.442 0 0 0 1.772.012 10.28 10.28 0 0 0 2.229-.922c.275-.145.57-.3.92-.462a4.151 4.151 0 0 1 .942-.242c.772-.132 2.379-.407 2.262-2.069-.12-1.484-1.474-1.8-2.284-1.994a5.524 5.524 0 0 1-.682-.187 2.971 2.971 0 0 0-.94-.157 1.668 1.668 0 0 0 .275-.815 3.033 3.033 0 0 0-1.844-2.926 2.274 2.274 0 0 0-1.1-.287 3.608 3.608 0 0 0-1.32.307 1.968 1.968 0 0 1-.882.2 4.079 4.079 0 0 1-1.972-.98 12.926 12.926 0 0 0-1.315-.89 9.79 9.79 0 0 1-1.122-.767 6.763 6.763 0 0 0-2.4-1.3 9.015 9.015 0 0 0-4.014-.08l-.357.052c-.237.035-.455.055-.662.072a4.619 4.619 0 0 0-2.417.75 3.538 3.538 0 0 0-1.372 2.3 2.913 2.913 0 0 1-.5 1.2 3.873 3.873 0 0 1-.947.807 7.829 7.829 0 0 0-.942.727v-.165A29.8 29.8 0 0 1 26.37 2.751c.11.172.222.337.33.487.347.477.432.63.41.91-.025.327-.15.485-.542.937l-.195.227a2.846 2.846 0 0 1-.892.672 6.544 6.544 0 0 0-1.1.75 4.338 4.338 0 0 1-.485.35 2.78 2.78 0 0 0-1.362 1.689 2.242 2.242 0 0 0 .652 2.054 1.65 1.65 0 0 1 .285.41 1.554 1.554 0 0 1-.512 1.132 1.2 1.2 0 0 1-.272.21c-.112.072-.23.15-.362.25l-.12.11a4.538 4.538 0 0 0-.892 1.539 2.008 2.008 0 0 0-.042 1.587l.042.117a4.814 4.814 0 0 1 .072.817l-.085 1.21.81.2a5.611 5.611 0 0 1 1.345.51 5.763 5.763 0 0 1 .867.53l.292.2a1.8 1.8 0 0 0 1.2.145c.21.02.395.035.57.05.382.03.72.057 1.2.127l.31.037a4.592 4.592 0 0 1 .7.122 1.546 1.546 0 0 1 .5.31 2.408 2.408 0 0 0 3.219.135 1.555 1.555 0 0 1 .462-.25 3.556 3.556 0 0 1 1.142-.075 5.824 5.824 0 0 0 1.712-.115 3.407 3.407 0 0 0 .647-.24 1.939 1.939 0 0 1 .252-.107h.072l.05-.007a1.26 1.26 0 0 1 .3.1 2.93 2.93 0 0 0 1.13.277c1.072 0 2.734-1.382 2.754-1.4a2.121 2.121 0 0 1 .595-.355c.18-.085.37-.175.632-.327a8.27 8.27 0 0 0 .7-.527 2.486 2.486 0 0 1 .815-.515 2.049 2.049 0 0 1 1.452-.192 2.213 2.213 0 0 1 1.037.852 5.2 5.2 0 0 0 .472.6c.087.095.157.187.225.272a3.139 3.139 0 0 0 .992.892 2.978 2.978 0 0 0 1.964.18 1.855 1.855 0 0 1 .662-.067l.352.047a3.125 3.125 0 0 1 .587.11 1.454 1.454 0 0 1 .282.117 2.436 2.436 0 0 1 .98 1.012 3.81 3.81 0 0 1 .55 1.592l.072.355a8.766 8.766 0 0 1 .15 1.6l.02.547c.01.265.03.495.052.712a3.053 3.053 0 0 1-.027 1.13 1.821 1.821 0 0 1-.4.7 3.827 3.827 0 0 0-.735 1.36l-.05.17a3.7 3.7 0 0 0-.157 2.059 8.062 8.062 0 0 1 .027 1.165c-.02 1.125-.03 1.869.442 2.347a1.115 1.115 0 0 0 .8.34l.307-.02.2-.1a2.842 2.842 0 0 0 .75-.545l.022.055a1.66 1.66 0 0 0 1.6.96c.82 0 2.477-.58 2.589-1.654a4.785 4.785 0 0 0 0-.78c-.02-.35-.015-.417.052-.522a1.553 1.553 0 0 1 .317-.11 2.758 2.758 0 0 0 1.26-.66 3.29 3.29 0 0 0 .695-1.072 1.523 1.523 0 0 1 .282-.482 1.173 1.173 0 0 1 .347-.21c.05.725.085 1.452.085 2.189a29.8 29.8 0 0 1-29.8 29.8" transform="translate(.393 .325)" fill="#af813e"/><path id="Path_1777" data-name="Path 1777" d="M22.39 11.506a2.8 2.8 0 0 0-1.774 1.759 2.492 2.492 0 0 1-.507.812 5.113 5.113 0 0 1-1.2.8 6.954 6.954 0 0 0-1.6 1.08 6.677 6.677 0 0 1-.655.51c-.732.517-1.842 1.3-1.517 2.784a1.84 1.84 0 0 0 1.909 1.482 7.039 7.039 0 0 0 2.042-.447c.337-.107.672-.217.977-.285a7.512 7.512 0 0 0 4.236-2.147c.142-.142.29-.282.442-.427 1.127-1.075 2.826-2.7 1.562-4.573a3.41 3.41 0 0 0-3.909-1.345m.975 4.478c-.16.155-.32.307-.477.462a5.58 5.58 0 0 1-3.254 1.609c-.362.08-.762.207-1.162.335a6.339 6.339 0 0 1-1.4.352c.02-.12.177-.27.73-.66a8.075 8.075 0 0 0 .86-.675 5.069 5.069 0 0 1 1.182-.78 7.051 7.051 0 0 0 1.619-1.095 4.249 4.249 0 0 0 .955-1.422c.255-.537.332-.642.527-.7a2.039 2.039 0 0 1 .555-.085 1.32 1.32 0 0 1 1.155.625c.255.382-.032.837-1.285 2.029" transform="translate(22.594 17.011)" fill="#af813e"/><path id="Path_1778" data-name="Path 1778" d="M14.566 21.316a2.411 2.411 0 0 0-.7.107c-1.449.467-1.38 1.922-1.345 2.7a5.611 5.611 0 0 1 0 .795 4.067 4.067 0 0 1-.135.62 2.365 2.365 0 0 0 .435 2.539 2.132 2.132 0 0 0 1.509.607 3.693 3.693 0 0 0 2.57-1.32 3.493 3.493 0 0 0 .047-4.6 3.127 3.127 0 0 0-2.382-1.447m.865 4.713a1.869 1.869 0 0 1-1.1.672.177.177 0 0 1-.14-.052 2.578 2.578 0 0 1 .117-.6 6.761 6.761 0 0 0 .187-.91 7.542 7.542 0 0 0 .012-1.11 4.363 4.363 0 0 1 0-.725c.17-.03.365.027.885.692a1.511 1.511 0 0 1 .04 2.029" transform="translate(18.295 31.955)" fill="#af813e"/><path id="Path_1779" data-name="Path 1779" d="M47.073 34.05 28.815 19.258a30.979 30.979 0 0 1-8.28 9.062l18.826 15.25a6.126 6.126 0 1 0 7.712-9.519" transform="translate(30.784 28.869)" fill="#fff"/><path id="Line_162" data-name="Line 162" transform="translate(55.394 53.934)" fill="#fff" d="M22.405 18.204 0 0"/><path id="Path_1780" data-name="Path 1780" d="M78.841 61.707 61.119 47.349a32.5 32.5 0 1 0-10.151 11.566l18.191 14.74a7.65 7.65 0 0 0 4.823 1.714 8.186 8.186 0 0 0 .82-.042 7.691 7.691 0 0 0 4.039-13.62M3.082 32.4A29.318 29.318 0 1 1 32.4 61.719 29.352 29.352 0 0 1 3.082 32.4m71.393 39.818a4.551 4.551 0 0 1-3.349-.992l-17.3-14.013c.512-.425.952-.92 1.434-1.372l19.972 16.224a4.517 4.517 0 0 1-.757.152m3.341-2.077L57.478 53.617a33.051 33.051 0 0 0 2.494-3.176l16.9 13.693a4.556 4.556 0 0 1 .945 6.008" transform="translate(.001 .001)" fill="#394b31"/></g></g></svg>