<svg xmlns="http://www.w3.org/2000/svg" width="24.492" height="17.147"><path id="Path_1220" data-name="Path 1220" d="M32.246 40.145c-.077 0-7.669-.006-9.583-.524a3.078 3.078 0 0 1-2.163-2.158 32.389 32.389 0 0 1-.5-5.891 32.493 32.493 0 0 1 .5-5.891 3.14 3.14 0 0 1 2.163-2.181c1.894-.5 9.5-.5 9.582-.5s7.688.006 9.583.525a3.066 3.066 0 0 1 2.159 2.159 30.818 30.818 0 0 1 .5 5.91 32.495 32.495 0 0 1-.5 5.891 3.07 3.07 0 0 1-2.159 2.159c-1.894.5-9.5.5-9.582.5M29.8 27.9v7.347l6.375-3.671L29.8 27.9Z" transform="translate(-20 -22.998)" fill="#8aaa8a"/></svg>