<svg xmlns="http://www.w3.org/2000/svg" width="21.828" height="21.838"><g id="Group_958" data-name="Group 958" transform="translate(-14.04 -12.807)" fill="#8aaa8a"><path id="Rectangle_287" data-name="Rectangle 287" transform="translate(14.474 20.085)" d="M0 0h4.506v14.559H0z"/><path id="Path_1208" data-name="Path 1208" d="M15.947 17.489a2.687 2.687 0 1 0-2.665-2.689 2.676 2.676 0 0 0 2.665 2.687" transform="translate(.758 .691)"/><path id="Path_1209" data-name="Path 1209" d="M25 25.942c0-2.046.942-3.266 2.746-3.266 1.656 0 2.452 1.171 2.452 3.266v7.643h4.485v-9.219c0-3.9-2.21-5.784-5.3-5.784A5.075 5.075 0 0 0 25 20.987v-1.961h-4.32v14.559H25Z" transform="translate(1.181 1.06)"/></g></svg>