<svg xmlns="http://www.w3.org/2000/svg" width="23.877" height="23.878"><g id="Group_549" data-name="Group 549" transform="translate(-13.014 -13.015)"><g id="Group_960" data-name="Group 960" fill="#8aaa8a"><path id="Path_1211" data-name="Path 1211" d="M24.25 14.463c3.188 0 3.565.012 4.824.07a6.589 6.589 0 0 1 2.217.411 3.956 3.956 0 0 1 2.266 2.265 6.646 6.646 0 0 1 .411 2.218c.057 1.258.07 1.636.07 4.823s-.013 3.565-.07 4.824a6.646 6.646 0 0 1-.411 2.218 3.956 3.956 0 0 1-2.266 2.265 6.589 6.589 0 0 1-2.217.411c-1.259.057-1.636.07-4.824.07s-3.565-.013-4.824-.07a6.589 6.589 0 0 1-2.217-.411 3.956 3.956 0 0 1-2.266-2.265 6.646 6.646 0 0 1-.411-2.218c-.057-1.259-.069-1.636-.069-4.824s.012-3.565.069-4.823a6.646 6.646 0 0 1 .411-2.218 3.956 3.956 0 0 1 2.266-2.265 6.589 6.589 0 0 1 2.217-.411c1.259-.058 1.636-.07 4.824-.07m0-2.151c-3.242 0-3.649.014-4.923.072a8.767 8.767 0 0 0-2.9.555 6.1 6.1 0 0 0-3.491 3.491 8.725 8.725 0 0 0-.555 2.9c-.058 1.274-.072 1.68-.072 4.922s.014 3.65.072 4.923a8.725 8.725 0 0 0 .555 2.9 6.1 6.1 0 0 0 3.491 3.491 8.767 8.767 0 0 0 2.9.555c1.274.058 1.681.072 4.923.072s3.649-.014 4.923-.072a8.767 8.767 0 0 0 2.9-.555 6.1 6.1 0 0 0 3.491-3.491 8.749 8.749 0 0 0 .556-2.9c.057-1.273.071-1.68.071-4.923s-.014-3.648-.071-4.922a8.749 8.749 0 0 0-.556-2.9 6.1 6.1 0 0 0-3.491-3.491 8.767 8.767 0 0 0-2.9-.555c-1.274-.058-1.681-.072-4.923-.072" transform="translate(.702 .703)"/><path id="Path_1212" data-name="Path 1212" d="M23.937 17.806a6.131 6.131 0 1 0 6.131 6.131 6.131 6.131 0 0 0-6.131-6.131m0 10.111a3.98 3.98 0 1 1 3.98-3.98 3.98 3.98 0 0 1-3.98 3.98" transform="translate(1.017 1.016)"/><path id="Path_1213" data-name="Path 1213" d="M31.146 17.654a1.433 1.433 0 1 1-1.432-1.432 1.433 1.433 0 0 1 1.432 1.432" transform="translate(1.613 .926)"/></g></g></svg>