<svg id="Group_976" data-name="Group 976" xmlns="http://www.w3.org/2000/svg" width="69.172" height="46.361"><defs><clipPath id="clip-path"><path id="Rectangle_439" data-name="Rectangle 439" fill="none" d="M0 0h69.172v46.361H0z"/></clipPath></defs><g id="Group_975" data-name="Group 975" clip-path="url('#clip-path')"><path id="Path_1800" data-name="Path 1800" d="M30.016 19.691a2.377 2.377 0 1 1-2.375-2.375 2.376 2.376 0 0 1 2.375 2.375" transform="translate(29.928 20.515)" fill="#af813e"/><path id="Path_1801" data-name="Path 1801" d="M17.221 19.691a2.377 2.377 0 1 1-2.375-2.375 2.376 2.376 0 0 1 2.375 2.375" transform="translate(14.77 20.515)" fill="#af813e"/><path id="Path_1802" data-name="Path 1802" d="M10.473 19.691A2.377 2.377 0 1 1 8.1 17.316a2.376 2.376 0 0 1 2.375 2.375" transform="translate(6.775 20.515)" fill="#af813e"/><path id="Path_1803" data-name="Path 1803" d="M28.024 16.991a3.085 3.085 0 1 0 3.085 3.085 3.088 3.088 0 0 0-3.085-3.085m0 4.754a1.668 1.668 0 1 1 1.667-1.669 1.672 1.672 0 0 1-1.667 1.669" transform="translate(29.545 20.13)" fill="#394b31"/><path id="Path_1804" data-name="Path 1804" d="M15.23 16.991a3.085 3.085 0 1 0 3.085 3.085 3.09 3.09 0 0 0-3.085-3.085m0 4.754a1.668 1.668 0 1 1 1.67-1.669 1.672 1.672 0 0 1-1.667 1.669" transform="translate(14.386 20.13)" fill="#394b31"/><path id="Path_1805" data-name="Path 1805" d="M8.481 16.991a3.085 3.085 0 1 0 3.083 3.085 3.09 3.09 0 0 0-3.083-3.085m0 4.754a1.668 1.668 0 1 1 1.667-1.669 1.672 1.672 0 0 1-1.667 1.669" transform="translate(6.39 20.13)" fill="#394b31"/><path id="Path_1806" data-name="Path 1806" d="M3.7 6.46a.709.709 0 0 0-.483.878L4.893 13.1a.709.709 0 0 0 1.361-.4L4.58 6.943a.709.709 0 0 0-.88-.483" transform="translate(3.78 7.621)" fill="#af813e"/><path id="Path_1807" data-name="Path 1807" d="M7.375 6.13a.707.707 0 1 0-1.357.4l1.826 6.292a.707.707 0 1 0 1.357-.4Z" transform="translate(7.095 6.658)" fill="#af813e"/><path id="Path_1808" data-name="Path 1808" d="M11.671 13.013a.709.709 0 0 0 .483-.878l-1.982-6.818a.708.708 0 1 0-1.359.4l1.979 6.818a.709.709 0 0 0 .878.483" transform="translate(10.408 5.695)" fill="#af813e"/><path id="Path_1809" data-name="Path 1809" d="M14.619 12.732a.709.709 0 0 0 .483-.878l-2.133-7.348a.709.709 0 0 0-1.361.4l2.132 7.347a.71.71 0 0 0 .878.483" transform="translate(13.719 4.734)" fill="#af813e"/><path id="Path_1810" data-name="Path 1810" d="M17.569 12.445a.709.709 0 0 0 .483-.878l-2.288-7.874a.707.707 0 0 0-1.359.393l2.285 7.876a.71.71 0 0 0 .878.483" transform="translate(17.032 3.771)" fill="#af813e"/><path id="Path_1811" data-name="Path 1811" d="M68.466 31.7a.707.707 0 0 0 .7-.708V28.16a2.131 2.131 0 0 0-1.864-2.108l-4.57-.57c-.738-4.208-.426-2.425-1.411-8.055a2.122 2.122 0 0 0-2.1-1.756H48a2.136 2.136 0 0 0-2.124 2.124v11.147h-3.115v-4.067a.707.707 0 0 0-.649-.706l-15.97-1.32 16.007-3.185a.706.706 0 0 0 .544-.889L39.735 8.592a.7.7 0 0 1 .481-.878L46.2 5.977a2.132 2.132 0 0 0 1.448-2.635l-.528-1.809A2.132 2.132 0 0 0 44.483.085L19.542 7.334a.707.707 0 0 0-.483.878.725.725 0 0 0 .88.481L44.88 1.444a.709.709 0 0 1 .878.483l.529 1.813a.713.713 0 0 1-.485.878l-5.979 1.735a2.124 2.124 0 0 0-1.446 2.635l2.74 9.44-36.16 7.194-3.369-11.6L14.5 10.274a.706.706 0 0 0 .481-.878.715.715 0 0 0-.876-.481L.511 12.863a.715.715 0 0 0-.485.878l3.747 12.9a.71.71 0 0 0 .819.494L6 26.856v2.128a2.128 2.128 0 0 0-1.7 2.082v4.8a2.126 2.126 0 0 0 2.121 2.126H9.13A6.154 6.154 0 1 0 21.023 40.2a6.1 6.1 0 0 0-.413-2.215h3.262a6.155 6.155 0 1 0 11.481 0h16.475a6.153 6.153 0 1 0 11.481 0h5.158a.705.705 0 0 0 .7-.708v-.625a.708.708 0 0 0-1.411-.083h-5.219a6.158 6.158 0 0 0-9.938 0H47.29V17.794a.711.711 0 0 1 .71-.708h11.229a.707.707 0 0 1 .7.583l.277 1.588h-9.095a.708.708 0 0 0-.71.708v6.156a.708.708 0 0 0 .71.708H62.1l5.038.627a.712.712 0 0 1 .623.7v2.831a.71.71 0 0 0 .71.708M7.419 26.576l13.687-2.722 20.237 1.671v3.415H7.419Zm7.452 18.367A4.737 4.737 0 1 1 19.61 40.2a4.744 4.744 0 0 1-4.739 4.739m14.744 0a4.737 4.737 0 1 1 4.737-4.739 4.746 4.746 0 0 1-4.736 4.739m16.256-8.37H34.584a6.158 6.158 0 0 0-9.938 0h-4.8a6.16 6.16 0 0 0-9.94 0H6.421a.712.712 0 0 1-.708-.71v-4.8a.712.712 0 0 1 .708-.708H45.872Zm11.7-1.105A4.737 4.737 0 1 1 52.83 40.2a4.736 4.736 0 0 1 4.741-4.736m-5.752-10.05v-4.738h8.636l.828 4.739Zm16.647 7.7a.708.708 0 1 0 .7.708.71.71 0 0 0-.7-.708M51.111 29.7a.708.708 0 1 0 0 1.416H53a.708.708 0 1 0 0-1.416Zm-11.769 7.581a.707.707 0 1 0 .71-.708.708.708 0 0 0-.71.708M17.216 9.484a.707.707 0 1 0-.391-1.359.707.707 0 1 0 .391 1.359" transform="translate(0 .001)" fill="#394b31"/></g></svg>