<svg xmlns="http://www.w3.org/2000/svg" width="80.601" height="80.601"><defs><clipPath id="clip-path"><path id="Rectangle_433" data-name="Rectangle 433" fill="none" d="M0 0h80.601v80.601H0z"/></clipPath></defs><g id="Group_972" data-name="Group 972"><g id="Group_971" data-name="Group 971" clip-path="url('#clip-path')"><path id="Path_1794" data-name="Path 1794" d="M47.017 16.792H23.005a11.174 11.174 0 0 0 2.182-6.719C25.187 4.518 21.427 0 16.792 0s-8.4 4.518-8.4 10.074a11.04 11.04 0 0 0 2.651 7.312l-3.575.379A8.4 8.4 0 0 0 0 26.162v19.176a5.035 5.035 0 0 0 5.037 5.037h1.679v26.868H3.358V80.6h26.866v-3.357h-3.358V26.866h20.15a5.037 5.037 0 1 0 0-10.074M16.792 3.358c2.77 0 5.037 3.006 5.037 6.716s-2.267 6.719-5.037 6.719-5.04-3.006-5.04-6.719 2.267-6.716 5.04-6.716m1.679 73.885v-25.19h-3.358v25.19h-5.04V47.016h13.435v30.227Zm28.546-53.735h-21.83a1.679 1.679 0 0 0-1.679 1.679v18.472H10.074V26.866H6.716v20.15H5.037a1.679 1.679 0 0 1-1.679-1.679V26.2a5.039 5.039 0 0 1 4.483-5.04l9.052-1.006h30.124a1.679 1.679 0 1 1 0 3.358" fill="#394b31"/><path id="Path_1795" data-name="Path 1795" d="M58.02 67.167H14.361a1.679 1.679 0 0 1-1.679-1.679V28.545h3.358v35.264h40.3V3.358h-40.3v11.755h-3.358V1.679A1.679 1.679 0 0 1 14.361 0H58.02a1.679 1.679 0 0 1 1.68 1.679v63.809a1.679 1.679 0 0 1-1.679 1.679" transform="translate(20.903)" fill="#394b31"/><path id="Rectangle_427" data-name="Rectangle 427" transform="translate(55.414 65.488)" fill="#394b31" d="M0 0h3.358v11.755H0z"/><path id="Rectangle_428" data-name="Rectangle 428" transform="matrix(.894 -.447 .447 .894 65.664 66.23)" fill="#394b31" d="M0 0h3.358v15.012H0z"/><path id="Rectangle_429" data-name="Rectangle 429" transform="rotate(-63.44 82.676 7.7)" fill="#394b31" d="M0 0h15.012v3.358H0z"/><path id="Rectangle_430" data-name="Rectangle 430" transform="translate(63.809 8.398)" fill="#af813e" d="M0 0h8.395v3.358H0z"/><path id="Rectangle_431" data-name="Rectangle 431" transform="translate(41.98 8.398)" fill="#af813e" d="M0 0h18.471v3.358H0z"/><path id="Rectangle_432" data-name="Rectangle 432" transform="translate(55.414 16.792)" fill="#af813e" d="M0 0h16.792v3.358H0z"/><path id="Path_1796" data-name="Path 1796" d="m25.7 37.612 2.741-2.741a9.35 9.35 0 0 1 2.052-18.355l2.479-2.479-2.92-3.237a15.094 15.094 0 0 0-1.517 29.967Z" transform="translate(26.128 17.794)" fill="#af813e"/><path id="Path_1797" data-name="Path 1797" d="m25.426 10.885 2.794 3.1-2.82 2.824a9.338 9.338 0 0 1-1.91 18.212l-2.542 2.542 2.884 3.2a15.1 15.1 0 0 0 1.594-29.883" transform="translate(34.527 17.941)" fill="#af813e"/></g></g></svg>