<svg xmlns="http://www.w3.org/2000/svg" width="201.999" height="13.185"><g id="Group_945" data-name="Group 945" transform="translate(-42.999 -45.815)"><g id="pc_logo_negative" transform="translate(41.699 44.115)"><g id="Group_522" data-name="Group 522" transform="translate(1.3 1.7)" fill="#fff"><path id="Path_1148" data-name="Path 1148" d="M1.3 2.352A.378.378 0 0 1 1.652 2H5.93a4.051 4.051 0 0 1 .05 8.1H3.665v4.28a.344.344 0 0 1-.352.352H1.652a.344.344 0 0 1-.352-.352Zm4.479 5.536a1.858 1.858 0 0 0 1.862-1.862 1.806 1.806 0 0 0-1.862-1.761H3.665v3.623Z" transform="translate(-1.3 -1.849)"/><path id="Path_1149" data-name="Path 1149" d="M25.75 2.352a.333.333 0 0 1 .3-.352h5.183a3.964 3.964 0 0 1 3.976 3.875 4.053 4.053 0 0 1-2.667 3.674l2.466 4.63a.319.319 0 0 1-.3.5H32.8a.43.43 0 0 1-.3-.151L30.078 9.7h-2.013v4.63a.344.344 0 0 1-.352.352h-1.661a.344.344 0 0 1-.352-.352V2.352Zm5.334 5.435A1.882 1.882 0 0 0 32.9 5.925a1.827 1.827 0 0 0-1.812-1.761h-2.972v3.623Z" transform="translate(-13.421 -1.849)"/><path id="Path_1150" data-name="Path 1150" d="M57.691 1.7a6.517 6.517 0 1 1 0 13.034A6.444 6.444 0 0 1 51.2 8.242 6.455 6.455 0 0 1 57.691 1.7Zm0 10.719a4.177 4.177 0 1 0-4.177-4.177 4.2 4.2 0 0 0 4.177 4.177Z" transform="translate(-26.088 -1.7)"/><path id="Path_1151" data-name="Path 1151" d="M90.092 1.7a6.119 6.119 0 0 1 4.378 1.711.336.336 0 0 1 0 .5l-1.107 1.161a.283.283 0 0 1-.453 0 4.336 4.336 0 0 0-2.818-1.057 4.115 4.115 0 0 0-4.026 4.227 4.1 4.1 0 0 0 6.844 3.12.318.318 0 0 1 .453 0l1.107 1.157a.383.383 0 0 1 0 .5 6.278 6.278 0 0 1-4.428 1.761A6.486 6.486 0 0 1 83.5 8.292 6.615 6.615 0 0 1 90.092 1.7Z" transform="translate(-42.134 -1.7)"/><path id="Path_1152" data-name="Path 1152" d="M112.7 2.352a.344.344 0 0 1 .352-.352h1.711a.344.344 0 0 1 .352.352v7.4a2.606 2.606 0 0 0 2.617 2.768A2.633 2.633 0 0 0 120.4 9.8V2.352a.344.344 0 0 1 .352-.352h1.711a.344.344 0 0 1 .352.352V9.9a5.058 5.058 0 0 1-10.115 0V2.352Z" transform="translate(-56.64 -1.849)"/><path id="Path_1153" data-name="Path 1153" d="M142.4 2.352a.344.344 0 0 1 .352-.352h5.183a3.964 3.964 0 0 1 3.976 3.875 4.053 4.053 0 0 1-2.667 3.674l2.466 4.63a.319.319 0 0 1-.3.5h-1.91a.43.43 0 0 1-.3-.151L146.778 9.7h-2.013v4.63a.344.344 0 0 1-.352.352h-1.661a.344.344 0 0 1-.352-.352V2.352Zm5.334 5.435a1.882 1.882 0 0 0 1.812-1.862 1.827 1.827 0 0 0-1.812-1.761h-2.969v3.623Z" transform="translate(-71.393 -1.849)"/><path id="Path_1154" data-name="Path 1154" d="M169.7 2.352a.344.344 0 0 1 .352-.352h7.4a.344.344 0 0 1 .352.352v1.51a.344.344 0 0 1-.352.352h-5.385v2.969h4.479a.344.344 0 0 1 .352.352v1.51a.344.344 0 0 1-.352.352h-4.479v3.17h5.385a.344.344 0 0 1 .352.352v1.51a.344.344 0 0 1-.352.352h-7.4a.344.344 0 0 1-.352-.352Z" transform="translate(-84.955 -1.849)"/></g><g id="Group_523" data-name="Group 523" transform="translate(98.475 1.75)" fill="#8aa98a"><path id="Path_1155" data-name="Path 1155" d="M200.992 1.9a6.119 6.119 0 0 1 4.378 1.711.336.336 0 0 1 0 .5l-1.107 1.157a.283.283 0 0 1-.453 0 4.336 4.336 0 0 0-2.818-1.057 4.115 4.115 0 0 0-4.026 4.227 4.1 4.1 0 0 0 6.844 3.12.318.318 0 0 1 .453 0l1.107 1.157a.383.383 0 0 1 0 .5 6.278 6.278 0 0 1-4.428 1.761 6.486 6.486 0 0 1-6.542-6.484 6.615 6.615 0 0 1 6.592-6.592Z" transform="translate(-194.4 -1.85)"/><path id="Path_1156" data-name="Path 1156" d="M224.2 2.552a.344.344 0 0 1 .352-.352h1.711a.344.344 0 0 1 .352.352V14.58a.344.344 0 0 1-.352.352h-1.711a.344.344 0 0 1-.352-.352Z" transform="translate(-209.204 -1.999)"/><path id="Path_1157" data-name="Path 1157" d="M238.7 2.552a.344.344 0 0 1 .352-.352h5.183a3.964 3.964 0 0 1 3.976 3.875 4.053 4.053 0 0 1-2.667 3.674l2.466 4.63a.319.319 0 0 1-.3.5h-1.91a.43.43 0 0 1-.3-.151L243.078 9.9h-2.013v4.63a.344.344 0 0 1-.352.352h-1.661a.344.344 0 0 1-.352-.352Zm5.334 5.435a1.882 1.882 0 0 0 1.812-1.862 1.827 1.827 0 0 0-1.812-1.761h-2.969v3.623Z" transform="translate(-216.407 -1.999)"/><path id="Path_1158" data-name="Path 1158" d="M270.592 1.9a6.119 6.119 0 0 1 4.378 1.711.336.336 0 0 1 0 .5l-1.107 1.157a.283.283 0 0 1-.453 0 4.336 4.336 0 0 0-2.818-1.057 4.115 4.115 0 0 0-4.026 4.227 4.1 4.1 0 0 0 6.844 3.12.318.318 0 0 1 .453 0l1.107 1.157a.383.383 0 0 1 0 .5 6.278 6.278 0 0 1-4.428 1.761A6.486 6.486 0 0 1 264 8.492a6.583 6.583 0 0 1 6.592-6.592Z" transform="translate(-228.975 -1.85)"/><path id="Path_1159" data-name="Path 1159" d="M293.2 2.552a.344.344 0 0 1 .352-.352h1.711a.344.344 0 0 1 .352.352v7.4a2.606 2.606 0 0 0 2.617 2.768A2.633 2.633 0 0 0 300.9 10V2.552a.344.344 0 0 1 .352-.352h1.711a.344.344 0 0 1 .352.352V10.1a5.058 5.058 0 0 1-10.115 0Z" transform="translate(-243.48 -1.999)"/><path id="Path_1160" data-name="Path 1160" d="M322.8 2.552a.344.344 0 0 1 .352-.352h1.661a.344.344 0 0 1 .352.352v10.166h4.63a.344.344 0 0 1 .352.352v1.51a.344.344 0 0 1-.352.352h-6.643a.344.344 0 0 1-.352-.352Z" transform="translate(-258.185 -1.999)"/><path id="Path_1161" data-name="Path 1161" d="M342.669 14.23 348.306 2a.34.34 0 0 1 .3-.2h.2a.289.289 0 0 1 .3.2l5.594 12.23a.309.309 0 0 1-.3.453h-1.56a.484.484 0 0 1-.5-.352l-.906-1.963h-5.435l-.906 1.963a.5.5 0 0 1-.5.352h-1.56a.312.312 0 0 1-.364-.453Zm7.85-3.875-1.812-3.976h-.05l-1.757 3.976Z" transform="translate(-268.04 -1.8)"/><path id="Path_1162" data-name="Path 1162" d="M373.3 2.552a.344.344 0 0 1 .352-.352h5.183a3.964 3.964 0 0 1 3.976 3.875 4.053 4.053 0 0 1-2.667 3.674l2.466 4.63a.319.319 0 0 1-.3.5h-1.91a.43.43 0 0 1-.3-.151L377.678 9.9h-2.013v4.63a.344.344 0 0 1-.352.352h-1.661a.344.344 0 0 1-.352-.352Zm5.334 5.435a1.882 1.882 0 0 0 1.812-1.862 1.827 1.827 0 0 0-1.812-1.761h-2.969v3.623Z" transform="translate(-283.271 -1.999)"/></g><circle id="Ellipse_1" data-name="Ellipse 1" cx="1.661" cy="1.661" r="1.661" transform="translate(199.977 11.362)" fill="#8aa98a"/></g></g></svg>