<svg xmlns="http://www.w3.org/2000/svg" width="201.999" height="13.134"><g id="ProcureCircular_logo_positive_master" transform="translate(-38.9 -38.1)"><g id="Group_575" data-name="Group 575" transform="translate(38.9 38.1)" fill="#162a26"><path id="Path_1223" data-name="Path 1223" d="M38.9 38.752a.344.344 0 0 1 .352-.352h4.278a4.051 4.051 0 1 1 .05 8.1h-2.264v4.28a.344.344 0 0 1-.352.352H39.3a.344.344 0 0 1-.352-.352V38.752Zm4.479 5.536a1.858 1.858 0 0 0 1.862-1.862 1.806 1.806 0 0 0-1.862-1.761h-2.114v3.623Z" transform="translate(-38.9 -38.249)"/><path id="Path_1224" data-name="Path 1224" d="M63.4 38.752a.344.344 0 0 1 .352-.352h5.183a3.964 3.964 0 0 1 3.976 3.875 4.053 4.053 0 0 1-2.667 3.674l2.466 4.63a.319.319 0 0 1-.3.5H70.5a.43.43 0 0 1-.3-.151L67.778 46.1h-2.013v4.68a.344.344 0 0 1-.352.352h-1.661a.344.344 0 0 1-.352-.352s0-12.028 0-12.028Zm5.334 5.435a1.882 1.882 0 0 0 1.812-1.862 1.827 1.827 0 0 0-1.812-1.761h-2.969v3.623Z" transform="translate(-51.071 -38.249)"/><path id="Path_1225" data-name="Path 1225" d="M95.292 38.1a6.517 6.517 0 1 1 0 13.034 6.517 6.517 0 0 1 0-13.034Zm0 10.669a4.177 4.177 0 1 0-4.177-4.177 4.2 4.2 0 0 0 4.177 4.177Z" transform="translate(-63.688 -38.1)"/><path id="Path_1226" data-name="Path 1226" d="M127.692 38.1a6.119 6.119 0 0 1 4.378 1.711.336.336 0 0 1 0 .5l-1.107 1.157a.283.283 0 0 1-.453 0 4.336 4.336 0 0 0-2.818-1.057 4.2 4.2 0 1 0 2.818 7.347.318.318 0 0 1 .453 0l1.107 1.157a.383.383 0 0 1 0 .5 6.278 6.278 0 0 1-4.428 1.761 6.486 6.486 0 0 1-6.542-6.492 6.615 6.615 0 0 1 6.592-6.584Z" transform="translate(-79.734 -38.1)"/><path id="Path_1227" data-name="Path 1227" d="M150.3 38.752a.344.344 0 0 1 .352-.352h1.711a.344.344 0 0 1 .352.352v7.4a2.606 2.606 0 0 0 2.617 2.768A2.633 2.633 0 0 0 158 46.2v-7.448a.344.344 0 0 1 .352-.352h1.711a.344.344 0 0 1 .352.352V46.3a5.058 5.058 0 0 1-10.115 0v-7.548Z" transform="translate(-94.239 -38.249)"/><path id="Path_1228" data-name="Path 1228" d="M180 38.752a.344.344 0 0 1 .352-.352h5.183a3.964 3.964 0 0 1 3.976 3.875 4.053 4.053 0 0 1-2.667 3.674l2.466 4.63a.319.319 0 0 1-.3.5h-1.91a.43.43 0 0 1-.3-.151l-2.422-4.828h-2.013v4.68a.344.344 0 0 1-.352.352h-1.661a.344.344 0 0 1-.352-.352V38.752Zm5.334 5.435a1.882 1.882 0 0 0 1.812-1.862 1.827 1.827 0 0 0-1.812-1.761h-2.969v3.623Z" transform="translate(-108.993 -38.249)"/><path id="Path_1229" data-name="Path 1229" d="M207.4 38.752a.344.344 0 0 1 .352-.352h7.4a.344.344 0 0 1 .352.352v1.51a.344.344 0 0 1-.352.352h-5.385v2.969h4.479a.344.344 0 0 1 .352.352v1.51a.344.344 0 0 1-.352.352h-4.479v3.17h5.385a.344.344 0 0 1 .352.352v1.51a.344.344 0 0 1-.352.352h-7.4a.344.344 0 0 1-.352-.352Z" transform="translate(-122.605 -38.249)"/></g><g id="Group_576" data-name="Group 576" transform="translate(136.075 38.15)" fill="#8aaa8a"><path id="Path_1230" data-name="Path 1230" d="M238.592 38.2a6.119 6.119 0 0 1 4.378 1.711.336.336 0 0 1 0 .5l-1.107 1.157a.283.283 0 0 1-.453 0 4.336 4.336 0 0 0-2.818-1.057 4.2 4.2 0 1 0 2.818 7.347.318.318 0 0 1 .453 0l1.107 1.157a.383.383 0 0 1 0 .5 6.278 6.278 0 0 1-4.428 1.761A6.486 6.486 0 0 1 232 44.792a6.615 6.615 0 0 1 6.592-6.592Z" transform="translate(-232 -38.2)"/><path id="Path_1231" data-name="Path 1231" d="M261.8 38.952a.344.344 0 0 1 .352-.352h1.711a.344.344 0 0 1 .352.352V50.98a.344.344 0 0 1-.352.352h-1.711a.344.344 0 0 1-.352-.352Z" transform="translate(-246.804 -38.399)"/><path id="Path_1232" data-name="Path 1232" d="M276.3 38.952a.344.344 0 0 1 .352-.352h5.183a3.964 3.964 0 0 1 3.976 3.875 4.053 4.053 0 0 1-2.667 3.674l2.466 4.63a.319.319 0 0 1-.3.5h-1.91a.43.43 0 0 1-.3-.151l-2.416-4.781h-2.013v4.63a.344.344 0 0 1-.352.352h-1.661a.344.344 0 0 1-.352-.352Zm5.334 5.435a1.882 1.882 0 0 0 1.812-1.862 1.827 1.827 0 0 0-1.812-1.761h-2.969v3.623Z" transform="translate(-254.007 -38.399)"/><path id="Path_1233" data-name="Path 1233" d="M308.192 38.2a6.119 6.119 0 0 1 4.378 1.711.336.336 0 0 1 0 .5l-1.107 1.157a.283.283 0 0 1-.453 0 4.336 4.336 0 0 0-2.818-1.057 4.2 4.2 0 1 0 2.818 7.347.318.318 0 0 1 .453 0l1.107 1.157a.383.383 0 0 1 0 .5 6.278 6.278 0 0 1-4.429 1.761 6.486 6.486 0 0 1-6.542-6.492 6.615 6.615 0 0 1 6.593-6.584Z" transform="translate(-266.575 -38.2)"/><path id="Path_1234" data-name="Path 1234" d="M330.8 38.952a.344.344 0 0 1 .352-.352h1.711a.344.344 0 0 1 .352.352v7.4a2.606 2.606 0 0 0 2.617 2.768 2.633 2.633 0 0 0 2.668-2.72v-7.448a.344.344 0 0 1 .352-.352h1.711a.344.344 0 0 1 .352.352V46.5a5.058 5.058 0 0 1-10.115 0v-7.548Z" transform="translate(-281.08 -38.399)"/><path id="Path_1235" data-name="Path 1235" d="M360.5 38.952a.344.344 0 0 1 .352-.352h1.661a.344.344 0 0 1 .352.352v10.166h4.63a.344.344 0 0 1 .352.352v1.51a.344.344 0 0 1-.352.352h-6.643a.344.344 0 0 1-.352-.352Z" transform="translate(-295.834 -38.399)"/><path id="Path_1236" data-name="Path 1236" d="m380.269 50.63 5.637-12.23a.34.34 0 0 1 .3-.2h.2a.289.289 0 0 1 .3.2l5.594 12.23a.309.309 0 0 1-.3.453h-1.56a.484.484 0 0 1-.5-.352l-.906-1.963h-5.435l-.906 1.963a.5.5 0 0 1-.5.352h-1.56c-.313 0-.464-.201-.364-.453Zm7.851-3.875-1.812-3.976h-.05l-1.758 3.976Z" transform="translate(-305.639 -38.2)"/><path id="Path_1237" data-name="Path 1237" d="M410.95 38.952a.344.344 0 0 1 .352-.352h5.183a3.964 3.964 0 0 1 3.976 3.875 4.053 4.053 0 0 1-2.667 3.674l2.466 4.63a.319.319 0 0 1-.3.5H418a.43.43 0 0 1-.3-.151l-2.422-4.828h-2.013v4.63a.344.344 0 0 1-.352.352h-1.661a.344.344 0 0 1-.352-.352V38.952Zm5.334 5.435a1.882 1.882 0 0 0 1.812-1.862 1.827 1.827 0 0 0-1.812-1.761h-2.969v3.623Z" transform="translate(-320.871 -38.399)"/></g><circle id="Ellipse_5" data-name="Ellipse 5" cx="1.661" cy="1.661" r="1.661" transform="translate(237.578 47.762)" fill="#8aaa8a"/></g></svg>