<svg xmlns="http://www.w3.org/2000/svg" width="71.688" height="71.688"><defs><clipPath id="clip-path"><path id="Rectangle_277" data-name="Rectangle 277" fill="#edf0f2" d="M0 0h71.688v71.688H0z"/></clipPath></defs><g id="Group_540" data-name="Group 540" transform="translate(-562.136 -981)"><g id="Group_529" data-name="Group 529" transform="translate(562.136 981)"><g id="Group_528" data-name="Group 528" clip-path="url('#clip-path')"><path id="Path_1164" data-name="Path 1164" d="m67.687 41.874-1.379-1.6c-2.187-2.542-4.646-5.4-7.985-8.694a.826.826 0 0 0-.594-.251.854.854 0 0 0-.661.332c-.117.152-.226.292-.325.428a1.327 1.327 0 0 1-2.04.175l-.428-.424c-1.879-1.853-3.817-3.771-5.779-5.484a1.572 1.572 0 0 0-1.034-.389 1.64 1.64 0 0 0-1.11.437 2.119 2.119 0 0 1-2.945-.115l-.886-.937c-1.775-1.874-3.613-3.813-5.482-5.627a2.694 2.694 0 0 0-1.826-.767h-.06a2.665 2.665 0 0 0-1.828.728c-.541.507-1.147 1.068-1.9 1.766l-.228.21c-1.824 1.688-4.582 4.239-9.27 8.653a2.477 2.477 0 0 1-2.583.481c-.516-.212-1.031-.44-1.628-.7-.861-.382-1.927-.854-3.456-1.483a.786.786 0 0 0-.309-.062.841.841 0 0 0-.631.3c-2.744 3.173-5.141 6.223-7.255 8.917-.5.631-.976 1.241-1.444 1.833l-.831 1.046-.143-1.338a33.027 33.027 0 0 1-.184-3.465 32.381 32.381 0 0 1 64.763 0 32.805 32.805 0 0 1-.361 4.847Zm-9.96-11.648a1.922 1.922 0 0 1 1.373.574c3.269 3.221 5.7 6.032 7.837 8.519a31.847 31.847 0 0 0 .191-3.474 31.283 31.283 0 1 0-62.566 0c0 .654.021 1.315.062 1.975.191-.244.385-.488.58-.739 2.123-2.7 4.527-5.763 7.283-8.952a1.9 1.9 0 0 1 2.192-.541c1.543.633 2.618 1.11 3.481 1.494.592.262 1.1.488 1.6.691a1.361 1.361 0 0 0 1.418-.262c4.692-4.416 7.451-6.969 9.276-8.659l.228-.21c.751-.7 1.356-1.257 1.895-1.761A3.741 3.741 0 0 1 34.6 17.9v-.041h.548a3.78 3.78 0 0 1 2.652 1.074c1.888 1.83 3.73 3.778 5.514 5.659l.889.937a1.015 1.015 0 0 0 1.411.055 2.709 2.709 0 0 1 1.84-.721 2.676 2.676 0 0 1 1.761.661c1.985 1.736 3.937 3.663 5.827 5.53l.435.428a.249.249 0 0 0 .17.078.258.258 0 0 0 .2-.111c.108-.152.226-.306.35-.463a1.937 1.937 0 0 1 1.529-.762m-21.882 38A32.528 32.528 0 0 1 4.731 44.847l-.12-.417.378-.214c4.665-2.634 5.8-3.322 12.12-7.147l.039-.021a2.612 2.612 0 0 1 .992-.242h.041a2.415 2.415 0 0 1 1.474.507 133.723 133.723 0 0 1 4.257 3.431l.076.069a2.635 2.635 0 0 1 .122 3.725 1.038 1.038 0 0 0-.286.615 1.026 1.026 0 0 0 .928 1.119H32.9a.834.834 0 0 0 .645-.3c2.461-2.917 4.909-5.92 7.273-8.825l.076-.092c1.619-1.987 3.292-4.043 4.959-6.053a2.351 2.351 0 0 1 1.824-.87 2.465 2.465 0 0 1 1.7.691c.886.838 1.745 1.568 2.652 2.342l.067.055c.444.38.9.767 1.365 1.172a1.606 1.606 0 0 1 .228 2.116 57.645 57.645 0 0 1-1.674 2.22 1.321 1.321 0 0 1-2 .111 1.178 1.178 0 0 0-.1-.085.819.819 0 0 0-.61-.15.8.8 0 0 0-.532.318c-1.331 1.7-2.641 3.461-3.907 5.162l-.4.539a1.044 1.044 0 0 0-.226.553 1.012 1.012 0 0 0 .233.741 1.05 1.05 0 0 0 .7.368h21.355l-.272.739a32.5 32.5 0 0 1-30.4 21.212M5.91 44.957a31.294 31.294 0 0 0 59.025 2.415H45.089a2.131 2.131 0 0 1-1.464-.76 2.107 2.107 0 0 1-.037-2.662l.394-.53c1.271-1.706 2.583-3.47 3.912-5.169a1.884 1.884 0 0 1 1.246-.741 1.908 1.908 0 0 1 1.425.355 1.97 1.97 0 0 1 .219.191.253.253 0 0 0 .184.085.248.248 0 0 0 .18-.1 57 57 0 0 0 1.651-2.185.5.5 0 0 0-.071-.656c-.451-.391-.9-.776-1.345-1.154l-.067-.055c-.919-.783-1.787-1.522-2.7-2.383a1.368 1.368 0 0 0-.942-.387 1.255 1.255 0 0 0-.972.467 912.862 912.862 0 0 0-4.957 6.051l-.076.092c-2.369 2.908-4.819 5.915-7.283 8.837a1.936 1.936 0 0 1-1.483.7h-8.229a2.138 2.138 0 0 1-1.467-.767 2.1 2.1 0 0 1-.474-1.554 2.129 2.129 0 0 1 .578-1.262 1.537 1.537 0 0 0-.06-2.162l-.055-.046a136.42 136.42 0 0 0-4.213-3.4 1.311 1.311 0 0 0-.783-.277 1.571 1.571 0 0 0-.543.117c-6.136 3.716-7.386 4.471-11.747 6.937m29.934 26.737a35.845 35.845 0 1 1 35.844-35.847 35.886 35.886 0 0 1-35.844 35.847m0-70.959a35.113 35.113 0 1 0 35.112 35.112A35.151 35.151 0 0 0 35.844.732" transform="translate(0 -.001)" fill="#edf0f2"/></g></g></g></svg>