<svg id="Group_980" data-name="Group 980" xmlns="http://www.w3.org/2000/svg" width="50.902" height="50.972"><defs><clipPath id="clip-path"><path id="Rectangle_441" data-name="Rectangle 441" fill="none" d="M0 0h50.902v50.972H0z"/></clipPath></defs><g id="Group_979" data-name="Group 979" clip-path="url('#clip-path')"><path id="Path_1816" data-name="Path 1816" d="M21.175 44.2a21.236 21.236 0 0 1-16.982-8.39A20.9 20.9 0 0 1 7.582 7.154l-1.85-2.445 11.333.2-2.995 10.818-1.821-2.4A13.24 13.24 0 0 0 10.4 31.2a13.54 13.54 0 0 0 18.8 2.675A13.243 13.243 0 0 0 34.454 21.5l1.577-.21a14.829 14.829 0 0 1-5.891 13.862 15.139 15.139 0 0 1-21.014-2.994A14.838 14.838 0 0 1 11.9 11.55l.636-.493.864 1.143 1.585-5.73-6-.107.815 1.084-.629.48A19.3 19.3 0 0 0 5.464 34.85a19.758 19.758 0 0 0 27.422 3.9 19.392 19.392 0 0 0 7.488-19.2l1.563-.3a21 21 0 0 1-8.1 20.785A21.21 21.21 0 0 1 21.175 44.2" transform="translate(0 6.772)" fill="#394b31"/><path id="Path_1817" data-name="Path 1817" d="M12.453 22.4a6.485 6.485 0 1 1 0-12.969v1.595a4.891 4.891 0 1 0 4.957 4.891H19a6.524 6.524 0 0 1-6.547 6.483" transform="translate(8.495 13.562)" fill="#394b31"/><path id="Path_1818" data-name="Path 1818" d="m36.916 2.175-.124-.261-.261-.122A19.3 19.3 0 0 0 28.424 0 18.9 18.9 0 0 0 15.08 5.447a18.642 18.642 0 0 0-4 20.676L8.5 28.658l1.117 1.136 2.575-2.533a19.323 19.323 0 0 0 7.58 1.58A18.9 18.9 0 0 0 33.11 23.4a18.672 18.672 0 0 0 3.806-21.225m-.307 11.764.02-.432-10.011-.449 9.272-9.125a16.978 16.978 0 0 1 .719 10.006M17.1 5.861H17A17.214 17.214 0 0 1 23.487 2.3l.461 11.152-6.271 6.173ZM34.771 2.8l-9.292 9.146-.41-9.916-.58.024a17.192 17.192 0 0 1 10.282.746m-19.2 4.508.578 13.824-3.838 3.777a17.013 17.013 0 0 1 3.26-17.6m-3.1 18.03.529.539c-.129-.054-.263-.093-.39-.149-.059-.127-.085-.261-.139-.39m.963.707 3.838-3.779 14.007.641a17.307 17.307 0 0 1-11.5 4.342 17.731 17.731 0 0 1-6.342-1.2m19.286-4.611v-.056l-13.9-.636 6.256-6.156 11.233.5a17.013 17.013 0 0 1-3.589 6.347" transform="translate(12.22)" fill="#af813e"/></g></svg>