<svg id="Group_984" data-name="Group 984" xmlns="http://www.w3.org/2000/svg" width="49.409" height="49.543"><defs><clipPath id="clip-path"><path id="Rectangle_449" data-name="Rectangle 449" fill="none" d="M0 0h49.409v49.543H0z"/></clipPath></defs><g id="Group_983" data-name="Group 983" clip-path="url('#clip-path')"><path id="Path_1823" data-name="Path 1823" d="M16.521 26.613 14.3 21.6l-.611-3.509-1.8-.076-1.252-2.179 1.393-3.817 2.105-.488-1.987-.34-.3-1.756 1.934-1.108-.84-1.287L16 4.3l2.549.891 3.607-1.11a493.14 493.14 0 0 1 3.336-1.744L26.2 3.72c-1.791.928-3.391 1.772-3.391 1.772l-.134.056-4.16 1.282-2.165-.754-1.372 1.232 1.006 1.545-1.895 1.088 1.407.238 1.455 1.758-.736 1.807-1.966-.644-1.048.243-.856 2.341.463.807 2.2.095.792 4.554.692 1.562 2.424-5.712-1.216-.477-.366-3.142 2.993.6 1.654-2.084 1.6 2.85 2.179-1.453 1.14 2.244 1.633-3.269 1.76-2.6 1.289.872-1.728 2.559-2.94 5.9-1.749-3.445-2.121 1.413-1.288-2.288-.8 1.013-1.83-.366.012.086 1.832.722Z" transform="translate(13.965 3.068)" fill="#af813e"/><path id="Path_1824" data-name="Path 1824" d="m5.755 17.332-.012-1.557 2.325-.016-.4-1.568a2.075 2.075 0 0 1-.076-1.282l.669-.481 1.763-.162 2.82-2.5-.763-.923c-.865 1.032-1 1.073-1.367 1.05l-.614-.362c-.979-1.515-1.162-1.82-.94-2.264l1.335-3.2.694-1.946 1.467.523-.715 2-1.222 2.933c.046.079.1.171.164.273a55.4 55.4 0 0 0 .6-.717h1.2l1.844 2.228-.083 1.08-3.579 3.159-.442.192-1.223.114.627 2.431-.752.972Z" transform="translate(7.543 2.789)" fill="#af813e"/><path id="Path_1825" data-name="Path 1825" d="m10.986 19.948-2.211-1.807.039-3.185-1.492-2.887L9.36 7.523l5.483 4.939Zm-.645-2.538.141.116 2.424-4.71-3-2.7-.856 1.904 1.21 2.343a1 1 0 0 1 .109.5Z" transform="translate(9.616 9.879)" fill="#af813e"/><path id="Path_1826" data-name="Path 1826" d="M11.631 9.055 9.119 3.818l.681-.343A15.207 15.207 0 0 1 15 1.761l1.071-.1-1.055 4.69Zm-.442-4.52 1 2.082 1.427-1.14.444-1.971a15.829 15.829 0 0 0-2.871 1.029" transform="translate(11.977 2.175)" fill="#af813e"/><path id="Path_1827" data-name="Path 1827" d="M18.1 31.332A17.7 17.7 0 0 1 29.458 0h.042a17.762 17.762 0 0 1 12.587 5.217 17.577 17.577 0 0 1 1.219 23.626l-1.206-.986a16.151 16.151 0 0 0-12.6-26.3h-.037a16.216 16.216 0 0 0-11.474 4.71 16.038 16.038 0 0 0 1.1 23.862Zm1.64 12.932h-6.11v-1.557h5.83l17.26-6.362 10.352-7.072-.236-.234c-1.046-1.039-2.908-.676-4.127.194l-.065.044-9.461 5.423h-4.208q-.121.01-.243.014l-6.986-.014v-1.556H28.9a2.97 2.97 0 0 0 2.161-2.667H19.673l-4.8 4.189h-1.247v-1.557h.659l4.8-4.192h13.436l.06.715.042.437v.053a4.852 4.852 0 0 1-1.023 3.022h1.166l2.434-1.407 6.635-3.794c1.779-1.252 4.432-1.654 6.1-.009l.8.8a1.482 1.482 0 0 1 .13.148l.541.657-.687.5L37.44 37.74l-.09.032Zm-8.2 5.279H4.555v-1.557h5.423V32H0v-1.556h11.534Zm-5.98-5.589h2.019v1.557H5.554Z" transform="translate(0 -.001)" fill="#394b31"/></g></svg>