<svg id="Group_978" data-name="Group 978" xmlns="http://www.w3.org/2000/svg" width="48.314" height="53.132"><defs><clipPath id="clip-path"><path id="Rectangle_440" data-name="Rectangle 440" fill="none" d="M0 0h48.314v53.132H0z"/></clipPath></defs><g id="Group_977" data-name="Group 977" clip-path="url('#clip-path')"><path id="Path_1812" data-name="Path 1812" d="M16.438 24.649a10.205 10.205 0 0 1-6.777-17.9l.045-.041L16.438 0 23.2 6.734a10.205 10.205 0 0 1-6.766 17.915m0-22.3L10.748 8a8.585 8.585 0 1 0 14.312 6.427 8.535 8.535 0 0 0-2.942-6.432l-.212-.2Z" transform="translate(7.722 -.001)" fill="#af813e"/><path id="Path_1813" data-name="Path 1813" d="M14.263 12.734A6.362 6.362 0 0 1 7.891 6.4h1.662a4.7 4.7 0 0 0 4.71 4.672Z" transform="translate(9.9 8.027)" fill="#af813e"/><path id="Path_1814" data-name="Path 1814" d="m19.974 28.792-.374-5.8-8.28-8.223-.577.462c-.034.027-.059.045-.969.906-.025.023-.043.05-.065.072V12.9l-.009-.133c-.316-1.914-1.741-3.851-3.858-3.853h-.165a4.125 4.125 0 0 0-3.74-3.362H.963c-.052 0-.1 0-.18.009L0 5.617l.133 12.394L8.405 31.8H6.261v10h1.664v-8.341h13.482v12.707h1.662V31.8h-3.1Zm-11.93-15.82v4.9l-.092-.092-2.146-2.251v-4.952h.034c1.157 0 1.991 1.222 2.2 2.394m-6.252 4.57L1.68 7.216h.257c1.157 0 1.991 1.222 2.2 2.394v6.583l2.622 2.751 2.43 2.415c.047.056.1.113.149.167l4.227 4.18 1.17-1.181-4.315-4.286a1.747 1.747 0 0 1-.3-1.087 2.654 2.654 0 0 1 .782-1.806l.331-.311 6.737 6.689.329 5.093V31.8h-8l.029-.018Z" transform="translate(0 6.964)" fill="#394b31"/><path id="Path_1815" data-name="Path 1815" d="m34.262 6.4-.032-.773-.767-.068c-.052 0-.1-.009-.156-.009h-.976a4.12 4.12 0 0 0-3.74 3.362h-.161c-2.117 0-3.542 1.939-3.855 3.853l-.007 3.513c-.027-.025-.047-.059-.074-.083-.9-.911-.915-.929-.965-.967l-.579-.46-8.277 8.223-.373 5.747v3.057h-3.1v14.371h1.664V33.459h13.482v8.335h1.662v-10h-2.142l8.27-13.787Zm-5.832 4.177h.045l-.009 4.949-2.133 2.239-.108.106v-4.9c.214-1.172 1.048-2.394 2.2-2.394m4.049 6.964L23.936 31.78l.029.016h-8.006v-2.977l.331-5.093 6.716-6.669c.169.171.313.318.322.329a2.636 2.636 0 0 1 .78 1.8 1.779 1.779 0 0 1-.266 1.051l-4.315 4.288-.083.095 1.224 1.123 4.248-4.2c.061-.063.119-.131.176-.2l2.428-2.415 2.609-2.735V9.61c.214-1.172 1.048-2.394 2.2-2.394h.257Z" transform="translate(14.052 6.964)" fill="#394b31"/></g></svg>