<svg xmlns="http://www.w3.org/2000/svg" width="104.396" height="96.418"><path id="Path_1469" data-name="Path 1469" d="M431.419 164.291a19.505 19.505 0 0 0 19.514-19.514 19.729 19.729 0 0 0-19.514-19.514 16.668 16.668 0 0 0-4.108.342c0-24.992 17.8-40.055 21.226-43.137s3.766-6.5 2.054-8.217l-4.791-4.792c-2.054-2.054-4.793-2.4-8.217.685-10.955 10.271-28.758 34.92-28.758 63.336-.001 24.649 11.639 30.811 22.594 30.811Zm-61.624 0a19.505 19.505 0 0 0 19.514-19.514 19.729 19.729 0 0 0-19.509-19.514 16.668 16.668 0 0 0-4.108.342c0-24.992 17.8-40.055 21.226-43.137s3.766-6.5 2.054-8.217l-4.793-4.793c-2.054-2.054-4.793-2.4-8.216.685C365 80.415 347.2 105.064 347.2 133.48c0 24.649 11.64 30.811 22.6 30.811Z" transform="translate(-347.2 -67.874)" fill="#ba9553"/></svg>