<svg id="Group_982" data-name="Group 982" xmlns="http://www.w3.org/2000/svg" width="42.424" height="46.279"><defs><clipPath id="clip-path"><path id="Rectangle_448" data-name="Rectangle 448" fill="none" d="M0 0h42.424v46.279H0z"/></clipPath></defs><g id="Group_981" data-name="Group 981" clip-path="url('#clip-path')"><path id="Path_1819" data-name="Path 1819" d="M17.625 22.4a3.857 3.857 0 1 1 3.857-3.857 3.857 3.857 0 0 1-3.857 3.857m0-5.786a1.929 1.929 0 1 0 1.929 1.929 1.929 1.929 0 0 0-1.929-1.929" transform="translate(15.156 16.166)" fill="#af813e"/><path id="Path_1820" data-name="Path 1820" d="M6.61 22.4a3.857 3.857 0 1 1 3.857-3.857A3.857 3.857 0 0 1 6.61 22.4m0-5.786a1.929 1.929 0 1 0 1.929 1.929 1.929 1.929 0 0 0-1.929-1.928" transform="translate(3.031 16.166)" fill="#af813e"/><path id="Path_1821" data-name="Path 1821" d="M12.118 26.808a3.857 3.857 0 0 1-3.857-3.857h1.929a1.929 1.929 0 1 0 1.929-1.929 3.856 3.856 0 1 1 3.857-3.855h-1.929a1.929 1.929 0 1 0-1.929 1.926 3.857 3.857 0 1 1 0 7.714" transform="translate(9.094 14.651)" fill="#af813e"/><path id="Rectangle_442" data-name="Rectangle 442" transform="translate(20.248 40.493)" fill="#af813e" d="M0 0h1.929v2.893H0z"/><path id="Rectangle_443" data-name="Rectangle 443" transform="translate(20.248 26.031)" fill="#af813e" d="M0 0h1.929v2.893H0z"/><path id="Rectangle_444" data-name="Rectangle 444" transform="translate(3.857 26.995)" fill="#af813e" d="M0 0h1.929v1.929H0z"/><path id="Rectangle_445" data-name="Rectangle 445" transform="translate(3.857 40.493)" fill="#af813e" d="M0 0h1.929v1.929H0z"/><path id="Rectangle_446" data-name="Rectangle 446" transform="translate(36.638 26.995)" fill="#af813e" d="M0 0h1.929v1.929H0z"/><path id="Rectangle_447" data-name="Rectangle 447" transform="translate(36.638 40.493)" fill="#af813e" d="M0 0h1.929v1.929H0z"/><path id="Path_1822" data-name="Path 1822" d="M41.458 23.139H24.1v1.929h16.393v19.283H1.929V25.068h19.283a.962.962 0 0 0 .962-.964v-4.822h6.75a10.6 10.6 0 0 0 10.6-10.6.964.964 0 0 0-.964-.964h-7.707a10.585 10.585 0 0 0-8.678 4.534v-1.646A10.6 10.6 0 0 0 11.569 0H3.857a.962.962 0 0 0-.964.962A10.605 10.605 0 0 0 13.5 11.57h6.75v11.569H.964A.964.964 0 0 0 0 24.1v21.215a.964.964 0 0 0 .964.964h40.494a.964.964 0 0 0 .964-.964V24.1a.964.964 0 0 0-.964-.964m-10.6-13.5h6.691a8.678 8.678 0 0 1-8.62 7.714h-6.696a8.678 8.678 0 0 1 8.62-7.714m-17.355 0a8.678 8.678 0 0 1-8.62-7.714h6.691a8.678 8.678 0 0 1 8.62 7.714Z" fill="#394b31"/></g></svg>