<svg xmlns="http://www.w3.org/2000/svg" width="65.558" height="83.916"><defs><clipPath id="clip-path"><path id="Rectangle_426" data-name="Rectangle 426" fill="none" d="M0 0h65.558v83.916H0z"/></clipPath></defs><g id="Group_970" data-name="Group 970"><g id="Group_969" data-name="Group 969" clip-path="url('#clip-path')"><path id="Path_1790" data-name="Path 1790" d="M61.626 5.246h-11.8V1.311A1.311 1.311 0 0 0 48.516 0h-31.47a1.311 1.311 0 0 0-1.309 1.312v3.934H3.935A3.935 3.935 0 0 0 0 9.179v70.8a3.935 3.935 0 0 0 3.935 3.933h57.69a3.935 3.935 0 0 0 3.935-3.933v-70.8a3.935 3.935 0 0 0-3.935-3.933m-44.58 7.866h20.981v-2.621H18.357V2.623H47.2V11.8a1.31 1.31 0 0 0 1.312 1.312h2.621v2.624H14.425v-2.624Zm35.4 5.245a1.312 1.312 0 0 0 1.312-1.312h2.621v57.692H9.18V17.045h2.62a1.312 1.312 0 0 0 1.312 1.312Zm10.493 61.625a1.312 1.312 0 0 1-1.312 1.312H3.935a1.312 1.312 0 0 1-1.312-1.312V9.179a1.31 1.31 0 0 1 1.312-1.312h11.8v2.624h-2.622A1.311 1.311 0 0 0 11.8 11.8v2.624H7.868a1.312 1.312 0 0 0-1.312 1.312v60.313a1.311 1.311 0 0 0 1.312 1.309h49.825A1.311 1.311 0 0 0 59 76.049V15.735a1.312 1.312 0 0 0-1.312-1.312H53.76V11.8a1.311 1.311 0 0 0-1.312-1.309h-2.623V7.867h11.8a1.31 1.31 0 0 1 1.312 1.312Z" transform="translate(0 -.001)" fill="#394b31"/><path id="Rectangle_416" data-name="Rectangle 416" transform="translate(40.647 10.489)" fill="#394b31" d="M0 0h2.624v2.624H0z"/><path id="Path_1791" data-name="Path 1791" d="M6.677 19.759h7.868a1.314 1.314 0 0 0 1.312-1.312v-7.868a1.314 1.314 0 0 0-1.312-1.312H6.677a1.314 1.314 0 0 0-1.312 1.312v7.868a1.314 1.314 0 0 0 1.312 1.312m6.556-2.624h-3.4l3.4-3.4Zm-5.244-5.244h3.4l-3.4 3.4Z" transform="translate(9.057 15.645)" fill="#af813e"/><path id="Path_1792" data-name="Path 1792" d="M6.677 31.465h7.868a1.314 1.314 0 0 0 1.312-1.312v-7.868a1.314 1.314 0 0 0-1.312-1.312H6.677a1.314 1.314 0 0 0-1.312 1.312v7.868a1.314 1.314 0 0 0 1.312 1.312m6.556-2.624h-3.4l3.4-3.4ZM7.989 23.6h3.4l-3.4 3.4Z" transform="translate(9.057 35.406)" fill="#af813e"/><path id="Path_1793" data-name="Path 1793" d="M6.677 25.61h7.868a1.31 1.31 0 0 0 1.309-1.31v-7.867a1.31 1.31 0 0 0-1.309-1.312H6.677a1.312 1.312 0 0 0-1.312 1.312V24.3a1.312 1.312 0 0 0 1.312 1.31m1.312-7.868h5.245v5.245H7.989Z" transform="translate(9.057 25.527)" fill="#af813e"/><path id="Rectangle_417" data-name="Rectangle 417" transform="translate(27.535 26.223)" fill="#af813e" d="M0 0h2.624v2.624H0z"/><path id="Rectangle_418" data-name="Rectangle 418" transform="translate(32.779 26.223)" fill="#af813e" d="M0 0h2.624v2.624H0z"/><path id="Rectangle_419" data-name="Rectangle 419" transform="translate(27.535 31.47)" fill="#af813e" d="M0 0h23.602v2.624H0z"/><path id="Rectangle_420" data-name="Rectangle 420" transform="translate(27.535 41.959)" fill="#af813e" d="M0 0h2.624v2.624H0z"/><path id="Rectangle_421" data-name="Rectangle 421" transform="translate(32.779 41.959)" fill="#af813e" d="M0 0h2.624v2.624H0z"/><path id="Rectangle_422" data-name="Rectangle 422" transform="translate(27.535 47.204)" fill="#af813e" d="M0 0h23.602v2.624H0z"/><path id="Rectangle_423" data-name="Rectangle 423" transform="translate(27.535 57.693)" fill="#af813e" d="M0 0h2.624v2.624H0z"/><path id="Rectangle_424" data-name="Rectangle 424" transform="translate(32.779 57.693)" fill="#af813e" d="M0 0h2.624v2.624H0z"/><path id="Rectangle_425" data-name="Rectangle 425" transform="translate(27.535 62.937)" fill="#af813e" d="M0 0h23.602v2.624H0z"/></g></g></svg>