<svg xmlns="http://www.w3.org/2000/svg" width="77.625" height="65.479"><defs><clipPath id="clip-path"><path id="Rectangle_415" data-name="Rectangle 415" fill="none" d="M0 0h77.625v65.479H0z"/></clipPath></defs><g id="Group_968" data-name="Group 968"><g id="Group_967" data-name="Group 967" clip-path="url('#clip-path')"><path id="Path_1786" data-name="Path 1786" d="M7.689 0h16.6a1.622 1.622 0 0 1 1.544 1.13l7.529 18.28h42.647a1.617 1.617 0 0 1 1.616 1.619v36.76a7.713 7.713 0 0 1-7.692 7.689H7.689A7.708 7.708 0 0 1 0 57.789V7.691A7.708 7.708 0 0 1 7.689 0Zm15.526 3.234H7.689a4.474 4.474 0 0 0-4.456 4.457v50.1a4.479 4.479 0 0 0 4.456 4.456h62.244a4.47 4.47 0 0 0 4.454-4.456V22.645H32.32a1.619 1.619 0 0 1-1.531-1l1.5-.615-1.491.612Z" transform="translate(0 -.001)" fill="#394b31"/><path id="Path_1787" data-name="Path 1787" d="M10.885 1.826h43.6a7.708 7.708 0 0 1 7.689 7.692v8.456a1.617 1.617 0 0 1-1.616 1.616H16.84a1.614 1.614 0 0 1-1.54-1.127L9.367 4.057h-.005a1.619 1.619 0 0 1 1.523-2.234Zm43.6 3.235h-41.22l4.652 11.3h41.027V9.518a4.474 4.474 0 0 0-4.456-4.456Z" transform="translate(15.445 3.053)" fill="#394b31"/><path id="Path_1788" data-name="Path 1788" d="M7.669 17.7a1.618 1.618 0 0 0 0 3.235h42.046a1.618 1.618 0 1 0 0-3.235Z" transform="translate(10.119 29.592)" fill="#af813e"/><path id="Path_1789" data-name="Path 1789" d="M7.669 13.464a1.618 1.618 0 0 0 0 3.235h42.046a1.618 1.618 0 1 0 0-3.235Z" transform="translate(10.119 22.509)" fill="#af813e"/></g></g></svg>