<svg width="91" height="91" viewBox="0 0 91 91" fill="none" xmlns="http://www.w3.org/2000/svg">
<path d="M53.3973 45.7842C48.786 50.637 42.6227 53.5823 35.8723 53.5823C29.1222 53.5823 22.9589 50.637 18.3474 45.7842C10.2397 50.8919 4.51501 59.4374 3.22359 69.3759C2.92873 71.6456 4.69719 73.6606 6.99174 73.6606H47.1323C47.1323 64.1747 52.8218 55.9934 60.9668 52.3477C58.7965 49.7949 56.2442 47.5777 53.3973 45.7842Z" fill="black"/>
<path d="M35.8727 47.5859C46.8891 47.5859 55.8197 36.9334 55.8197 23.7929C55.8197 10.6525 46.8891 0 35.8727 0C24.8563 0 15.9258 10.6525 15.9258 23.7929C15.9258 36.9334 24.8563 47.5859 35.8727 47.5859Z" fill="black"/>
<path d="M70.4683 56.3213C60.9073 56.3213 53.1289 64.0997 53.1289 73.6607C53.1289 83.2217 60.9074 90.9999 70.4683 90.9999C80.029 90.9999 87.8075 83.2216 87.8075 73.6605C87.8075 64.0995 80.0292 56.3213 70.4683 56.3213ZM77.3489 76.6594H73.467V80.5413C73.467 82.1975 72.1244 83.5401 70.4683 83.5401C68.8122 83.5401 67.4696 82.1975 67.4696 80.5413V76.6594H63.5875C61.9314 76.6594 60.5888 75.3168 60.5888 73.6607C60.5888 72.0044 61.9314 70.662 63.5875 70.662H67.4696V66.7801C67.4696 65.1239 68.8122 63.7813 70.4683 63.7813C72.1244 63.7813 73.467 65.1239 73.467 66.7801V70.662H77.3489C79.0051 70.662 80.3477 72.0046 80.3477 73.6607C80.3479 75.3168 79.0053 76.6594 77.3489 76.6594Z" fill="black"/>
</svg>
