<svg width="24" height="24" viewBox="0 0 24 24" fill="none" xmlns="http://www.w3.org/2000/svg">
<path d="M21.4398 11.0509L12.2498 20.2409C11.124 21.3667 9.59699 21.9992 8.0048 21.9992C6.41262 21.9992 4.88565 21.3667 3.7598 20.2409C2.63396 19.1151 2.00146 17.5881 2.00146 15.9959C2.00146 14.4037 2.63396 12.8767 3.7598 11.7509L12.9498 2.5609C13.7004 1.81033 14.7183 1.38867 15.7798 1.38867C16.8413 1.38867 17.8592 1.81033 18.6098 2.5609C19.3604 3.31146 19.782 4.32944 19.782 5.3909C19.782 6.45235 19.3604 7.47033 18.6098 8.2209L9.4098 17.4109C9.03452 17.7862 8.52553 17.997 7.9948 17.997C7.46407 17.997 6.95508 17.7862 6.5798 17.4109C6.20452 17.0356 5.99369 16.5266 5.99369 15.9959C5.99369 15.4652 6.20452 14.9562 6.5798 14.5809L15.0698 6.1009" stroke="white" stroke-width="2" stroke-linecap="round" stroke-linejoin="round"/>
</svg>
