<svg width="22" height="20" viewBox="0 0 22 20" fill="none" xmlns="http://www.w3.org/2000/svg">
<path d="M0.5 19.9994H6.147V14.3524H3.82085L3.82067 9.51429H10.6905V14.3524L8.35765 14.3526V19.9995H14.0046V14.3526H11.696L11.6893 9.51447H18.5591L18.559 14.353H16.2153V20H21.8623V14.353H19.5536L19.5538 8.43562H11.6893V5.64699H14.0135V0H8.36651V5.64699H10.6907V8.43562H2.82622L2.8264 14.353H0.500071V20L0.5 19.9994ZM9.35638 19.0008V15.3511H13.0061V19.0008H9.35638ZM9.36523 4.64781V0.997921H13.0151V4.64781H9.36523ZM17.2139 19.0008V15.3511H20.8636V19.0008H17.2139ZM1.49893 19.0008V15.3509H5.14882V19.0008H1.49893Z" fill="white"/>
</svg>
