<svg width="23" height="20" viewBox="0 0 23 20" fill="none" xmlns="http://www.w3.org/2000/svg">
<path d="M17.8164 9.95508C17.3955 9.95508 16.9941 10.0891 16.6537 10.3274C16.322 10.095 15.9197 9.95508 15.4843 9.95508C14.3584 9.95508 13.4427 10.8708 13.4427 11.9959C13.4427 13.1224 14.3584 14.0381 15.4843 14.0381C15.9197 14.0381 16.3218 13.8991 16.6537 13.665C16.9941 13.9033 17.3955 14.0381 17.8164 14.0381C18.9423 14.0381 19.8572 13.121 19.8572 11.9951C19.858 10.87 18.9423 9.95513 17.8164 9.95513V9.95508ZM14.1674 11.9959C14.1674 11.27 14.7586 10.6795 15.4845 10.6795C16.2104 10.6795 16.8016 11.27 16.8016 11.9959C16.8016 12.7226 16.2112 13.3137 15.4845 13.3137C14.7578 13.3137 14.1674 12.7226 14.1674 11.9959ZM17.8164 13.3137C17.5882 13.3137 17.3695 13.2506 17.1746 13.1398C17.3964 12.8138 17.5259 12.4198 17.5259 11.9959C17.5259 11.572 17.3956 11.1787 17.1746 10.8526C17.3703 10.7425 17.5882 10.6794 17.8164 10.6794C18.5423 10.6794 19.1328 11.269 19.1328 11.9951C19.1336 12.7226 18.5423 13.3137 17.8164 13.3137Z" fill="black"/>
<path d="M20.6253 7.40918H4.99026C3.97958 7.40918 3.15808 8.2315 3.15808 9.24218V18.1666C3.15808 19.1779 3.9804 19.9996 4.99026 19.9996L20.6253 19.9994C21.636 19.9994 22.4583 19.1771 22.4583 18.1664V9.24198C22.4583 8.2313 21.636 7.40918 20.6253 7.40918ZM21.7338 18.1665C21.7338 18.7779 21.2368 19.275 20.6253 19.275H4.99026C4.37958 19.275 3.88255 18.7774 3.88255 18.1665V9.24208C3.88255 8.63063 4.37961 8.13354 4.99026 8.13354L20.6253 8.13375C21.2367 8.13375 21.7338 8.63141 21.7338 9.24228V18.1665Z" fill="black"/>
<path d="M6.11938 16.4512H9.29032V17.1756H6.11938V16.4512Z" fill="black"/>
<path d="M11.2227 16.4512H14.3931V17.1756H11.2227V16.4512Z" fill="black"/>
<path d="M16.325 16.4512H19.4954V17.1756H16.325V16.4512Z" fill="black"/>
<path d="M0.724157 10.7577V5.59501H18.5766V6.68455H19.301V1.83301C19.301 0.821701 18.4787 0 17.468 0H1.833C0.822322 0 0 0.822322 0 1.83301V10.7574C0 11.7687 0.822322 12.5904 1.833 12.5904H2.43354V11.8659L1.833 11.8657C1.22155 11.8657 0.724467 11.3689 0.724467 10.7574L0.724157 10.7577ZM0.724157 1.83326C0.724157 1.22181 1.22122 0.724726 1.83269 0.724726H17.4688C18.0802 0.724726 18.5773 1.22239 18.5773 1.83326V2.02226H0.724364L0.724157 1.83326ZM0.724157 2.74594H18.5766V4.8708H0.724157V2.74594Z" fill="black"/>
</svg>
