<svg xmlns="http://www.w3.org/2000/svg" width="16.586" height="16.586" viewBox="0 0 16.586 16.586">
  <path id="cross-small" d="M21.907,6.093h0a1.318,1.318,0,0,0-1.863,0L14,12.137,7.956,6.093a1.318,1.318,0,0,0-1.863,0h0a1.318,1.318,0,0,0,0,1.863L12.137,14,6.093,20.044a1.318,1.318,0,0,0,0,1.863h0a1.318,1.318,0,0,0,1.863,0L14,15.863l6.044,6.044a1.318,1.318,0,0,0,1.863,0h0a1.318,1.318,0,0,0,0-1.863L15.863,14l6.044-6.044A1.318,1.318,0,0,0,21.907,6.093Z" transform="translate(-5.707 -5.707)" fill="red"/>
</svg>
