<svg width="32" height="32" viewBox="0 0 32 32" fill="none" xmlns="http://www.w3.org/2000/svg">
<path fill-rule="evenodd" clip-rule="evenodd" d="M10.8008 8C8.89687 8 7.3335 9.54926 7.3335 11.4472C7.3335 13.3451 8.89681 14.8944 10.8008 14.8944C12.7157 14.8944 14.2817 13.3451 14.2817 11.4472C14.2817 9.54926 12.7157 8 10.8008 8Z" fill="#394A9C"/>
<path fill-rule="evenodd" clip-rule="evenodd" d="M10.8029 18.373C12.4571 18.373 14.1109 18.6152 15.4789 19.0913V19.0911H15.4793C16.5485 19.4623 17.4386 19.9723 18.0355 20.5754C18.6323 21.1786 18.9488 21.8473 18.9488 22.6765V24.0003H2.6665V22.6765C2.6665 21.7261 3.07876 20.9773 3.84995 20.3192C4.62112 19.6612 5.75926 19.1385 7.07664 18.8063C8.22929 18.5157 9.51604 18.3719 10.8026 18.3731L10.8029 18.373Z" fill="#394A9C"/>
<path fill-rule="evenodd" clip-rule="evenodd" d="M20.3364 18.3783C21.6024 18.3932 22.8611 18.5486 23.9851 18.8446C25.2696 19.1829 26.3736 19.7044 27.1205 20.3546C27.8673 21.005 28.266 21.742 28.266 22.6746V23.9984H20.2285V22.6746C20.2285 21.4988 19.7306 20.4669 18.9451 19.6732C18.531 19.2547 18.0397 18.8955 17.4927 18.5879C18.4076 18.438 19.3732 18.3667 20.3361 18.3781L20.3364 18.3783Z" fill="#394A9C"/>
<path fill-rule="evenodd" clip-rule="evenodd" d="M20.1316 8C18.2277 8 16.6646 9.54926 16.6646 11.4472C16.6646 13.3451 18.2275 14.8944 20.1316 14.8944C22.0356 14.8944 23.5987 13.3451 23.5987 11.4472C23.5987 9.54926 22.0358 8 20.1316 8Z" fill="#394A9C"/>
</svg>
