<svg width="33" height="33" viewBox="0 0 33 33" fill="none" xmlns="http://www.w3.org/2000/svg">
<g clip-path="url(#clip0_382_1144)">
<path d="M16.7996 18.8867C16.1685 18.8867 15.6567 19.3979 15.6567 20.0295V21.1724C15.6567 21.804 16.1685 22.3152 16.7996 22.3152C17.4307 22.3152 17.9425 21.804 17.9425 21.1724V20.0295C17.9425 19.3979 17.4307 18.8867 16.7996 18.8867Z" fill="white"/>
<path d="M31.6569 15.457H28.2283C27.5967 15.457 27.0854 15.9683 27.0854 16.5999C27.0854 17.2315 27.5967 17.7427 28.2283 17.7427H30.514V20.0285C30.514 20.6601 31.0253 21.1713 31.6569 21.1713C32.2886 21.1713 32.7998 20.6601 32.7998 20.0285V16.5999C32.7998 15.9683 32.2886 15.457 31.6569 15.457Z" fill="white"/>
<path d="M31.657 22.3164C31.0254 22.3164 30.5142 22.8276 30.5142 23.4592V25.7449C30.5142 26.3766 31.0254 26.8878 31.657 26.8878C32.2887 26.8878 32.7999 26.3766 32.7999 25.7449V23.4592C32.7999 22.8276 32.2887 22.3164 31.657 22.3164Z" fill="white"/>
<path d="M31.657 28.0273C31.0254 28.0273 30.5142 28.5386 30.5142 29.1702V31.4559C30.5142 32.0875 31.0254 32.5988 31.657 32.5988C32.2887 32.5988 32.7999 32.0875 32.7999 31.4559V29.1702C32.7999 28.5386 32.2887 28.0273 31.657 28.0273Z" fill="white"/>
<path d="M25.9427 21.169H23.6569V17.7405H24.7998C25.4314 17.7405 25.9427 17.2292 25.9427 16.5976C25.9427 15.966 25.4314 15.4548 24.7998 15.4548H23.6569C23.6569 14.8231 23.1457 14.3119 22.5141 14.3119H14.5141V10.8833C14.5141 9.62342 15.5393 8.59766 16.7998 8.59766C18.0598 8.59766 19.0855 9.62342 19.0855 10.8833C19.0855 11.515 19.5967 12.0262 20.2284 12.0262C20.86 12.0262 21.3712 11.515 21.3712 10.8833C21.3712 8.36223 19.3209 6.31194 16.7998 6.31194C14.2791 6.31194 12.2284 8.36223 12.2284 10.8833V14.3119H11.0855C10.4544 14.3119 9.94266 14.8231 9.94266 15.4548H8.7998V1.74052C8.7998 1.10888 8.28807 0.597656 7.65695 0.597656C7.02582 0.597656 6.51409 1.10888 6.51409 1.74052V16.5976C6.51409 17.2292 7.02582 17.7405 7.65695 17.7405H9.94266V21.169H3.08552V1.74052C3.08552 1.10888 2.57379 0.597656 1.94266 0.597656C1.31154 0.597656 0.799805 1.10888 0.799805 1.74052V22.3119C0.799805 22.9435 1.31154 23.4548 1.94266 23.4548H10.3423C11.2867 26.1137 13.8207 28.0262 16.7995 28.0262C19.7783 28.0262 22.3122 26.1137 23.2566 23.4548H24.7995V25.7405C24.7995 26.3721 25.3107 26.8833 25.9423 26.8833C26.574 26.8833 27.0852 26.3721 27.0852 25.7405V22.3119C27.0852 21.6803 26.5744 21.169 25.9427 21.169ZM16.7998 25.7405C14.2791 25.7405 12.2284 23.6902 12.2284 21.169V16.5976H21.3712V21.169C21.3712 23.6902 19.3209 25.7405 16.7998 25.7405Z" fill="white"/>
<path d="M25.9427 28.0273C25.311 28.0273 24.7998 28.5386 24.7998 29.1702V31.4559C24.7998 32.0875 25.311 32.5988 25.9427 32.5988C26.5743 32.5988 27.0855 32.0875 27.0855 31.4559V29.1702C27.0855 28.5386 26.5743 28.0273 25.9427 28.0273Z" fill="white"/>
</g>
<defs>
<clipPath id="clip0_382_1144">
<rect width="33" height="33" fill="white"/>
</clipPath>
</defs>
</svg>
