<svg width="33" height="33" viewBox="0 0 33 33" fill="none" xmlns="http://www.w3.org/2000/svg">
<g clip-path="url(#clip0_382_1151)">
<path d="M16.7996 18.8867C16.1685 18.8867 15.6567 19.3979 15.6567 20.0295V21.1724C15.6567 21.804 16.1685 22.3152 16.7996 22.3152C17.4307 22.3152 17.9425 21.804 17.9425 21.1724V20.0295C17.9425 19.3979 17.4307 18.8867 16.7996 18.8867Z" fill="white"/>
<path d="M31.657 15.4554H23.657C23.657 14.8238 23.1453 14.3125 22.5142 14.3125H21.3713V10.8839C21.3713 8.36279 19.3206 6.3125 16.7999 6.3125C14.2792 6.3125 12.2284 8.36279 12.2284 10.8839V14.3125H11.0856C10.4545 14.3125 9.94273 14.8238 9.94273 15.4554H8.79987V13.1697C8.79987 12.5381 8.28814 12.0268 7.65702 12.0268C7.02589 12.0268 6.51416 12.5381 6.51416 13.1697V16.5983C6.51416 17.2299 7.02589 17.7411 7.65702 17.7411H9.94273V21.1697H8.79987C8.16875 21.1697 7.65702 21.6809 7.65702 22.3126C7.65702 22.9442 8.16875 23.4554 8.79987 23.4554H10.3427C11.2871 26.1143 13.8211 28.0268 16.7999 28.0268C19.7787 28.0268 22.3126 26.1143 23.257 23.4554H24.7999V31.4554C24.7999 32.087 25.3116 32.5983 25.9427 32.5983C26.5739 32.5983 27.0856 32.087 27.0856 31.4554V22.3126C27.0856 21.6809 26.5739 21.1697 25.9427 21.1697H23.657V17.7411H30.5142V31.4554C30.5142 32.087 31.0259 32.5983 31.657 32.5983C32.2881 32.5983 32.7999 32.087 32.7999 31.4554V16.5983C32.7999 15.9666 32.2881 15.4554 31.657 15.4554ZM14.5142 10.8839C14.5142 9.62398 15.5394 8.59822 16.7999 8.59822C18.0603 8.59822 19.0856 9.62398 19.0856 10.8839V14.3125H14.5142V10.8839ZM16.7999 25.7411C14.2792 25.7411 12.2284 23.6908 12.2284 21.1697V16.5983H21.3713V21.1697C21.3713 23.6908 19.3206 25.7411 16.7999 25.7411Z" fill="white"/>
<path d="M5.37123 21.1708H3.08552V18.885C3.08552 18.2534 2.57379 17.7422 1.94266 17.7422C1.31154 17.7422 0.799805 18.2534 0.799805 18.885V22.3136C0.799805 22.9453 1.31154 23.4565 1.94266 23.4565H5.37123C6.00236 23.4565 6.51409 22.9453 6.51409 22.3136C6.51409 21.682 6.00236 21.1708 5.37123 21.1708Z" fill="white"/>
<path d="M1.94266 16.5988C2.57379 16.5988 3.08552 16.0875 3.08552 15.4559V13.1702C3.08552 12.5386 2.57379 12.0273 1.94266 12.0273C1.31154 12.0273 0.799805 12.5386 0.799805 13.1702V15.4559C0.799805 16.0875 1.31154 16.5988 1.94266 16.5988Z" fill="white"/>
<path d="M1.94266 10.8839C2.57379 10.8839 3.08552 10.3728 3.08552 9.74107V7.45536C3.08552 6.82373 2.57379 6.3125 1.94266 6.3125C1.31154 6.3125 0.799805 6.82373 0.799805 7.45536V9.74107C0.799805 10.3728 1.31154 10.8839 1.94266 10.8839Z" fill="white"/>
<path d="M1.94266 5.16909C2.57379 5.16909 3.08552 4.65786 3.08552 4.02623V1.74052C3.08552 1.10888 2.57379 0.597656 1.94266 0.597656C1.31154 0.597656 0.799805 1.10888 0.799805 1.74052V4.02623C0.799805 4.65786 1.31154 5.16909 1.94266 5.16909Z" fill="white"/>
<path d="M7.65702 10.8839C8.28814 10.8839 8.79987 10.3728 8.79987 9.74107V7.45536C8.79987 6.82373 8.28814 6.3125 7.65702 6.3125C7.02589 6.3125 6.51416 6.82373 6.51416 7.45536V9.74107C6.51416 10.3728 7.02589 10.8839 7.65702 10.8839Z" fill="white"/>
<path d="M7.65702 5.16909C8.28814 5.16909 8.79987 4.65786 8.79987 4.02623V1.74052C8.79987 1.10888 8.28814 0.597656 7.65702 0.597656C7.02589 0.597656 6.51416 1.10888 6.51416 1.74052V4.02623C6.51416 4.65786 7.02589 5.16909 7.65702 5.16909Z" fill="white"/>
</g>
<defs>
<clipPath id="clip0_382_1151">
<rect width="33" height="33" fill="white"/>
</clipPath>
</defs>
</svg>
