<svg width="200" height="200" viewBox="0 0 200 200" fill="none" xmlns="http://www.w3.org/2000/svg">
<path d="M86.4374 157.979C86.125 151.794 80.8921 149.857 78.3147 149.857L25.2833 149.857L78.0023 58.7895L137.829 162.119C138.913 163.743 140.562 165.529 141.499 166.024C142.937 167.024 145.431 167.065 146.498 166.961C149.935 167.024 152.408 163.759 153.215 162.119L187.814 102.371C185.44 102.495 182.035 101.225 180.629 100.574C177.567 99.512 174.302 95.7058 173.053 93.9355L145.483 141.5L121.896 100.496L85.1878 36.9208C83.8132 33.9217 80.0851 33.0678 78.3929 33.0157C74.394 32.7657 71.6761 35.567 70.8169 36.9989L34.6556 99.715L4.58613 151.653C2.33678 154.652 1.93071 157.328 2.00884 158.292C1.88388 164.54 7.05945 166.623 9.66286 166.883H79.4082C85.7188 165.633 86.7238 160.426 86.4374 157.979Z" fill="url(#paint0_linear_1719_6443)"/>
<circle cx="188.986" cy="83.3139" r="8.59125" fill="#00C0F2"/>
<defs>
<linearGradient id="paint0_linear_1719_6443" x1="178.589" y1="100.012" x2="81.9767" y2="161.244" gradientUnits="userSpaceOnUse">
<stop offset="0.0101553" stop-color="#00B5E6"/>
<stop offset="0.125" stop-color="#01A7D8"/>
<stop offset="0.234375" stop-color="#019ECE"/>
<stop offset="0.375" stop-color="#037DAB"/>
<stop offset="0.520833" stop-color="#046794"/>
<stop offset="0.65625" stop-color="#06406E"/>
<stop offset="0.864169" stop-color="#063D6B"/>
<stop offset="1" stop-color="#07132D"/>
</linearGradient>
</defs>
</svg>
