<svg width="20" height="19" viewBox="0 0 20 19" fill="none" xmlns="http://www.w3.org/2000/svg">
<path d="M7.90914 5.59071C8.0962 5.85851 8.40227 6.01806 8.72893 6.01806H15.846C16.015 6.01806 16.1681 6.08254 16.274 6.18357C16.3783 6.2831 16.4276 6.40785 16.4276 6.52749V14.8294C16.4276 14.949 16.3783 15.0738 16.274 15.1733C16.1681 15.2743 16.015 15.3388 15.846 15.3388H3.1934C3.02448 15.3388 2.87133 15.2743 2.76546 15.1733C2.66118 15.0738 2.61182 14.949 2.61182 14.8294V4.26334C2.61182 4.14369 2.66118 4.01895 2.76546 3.91942C2.87133 3.81839 3.02448 3.75391 3.1934 3.75391H6.62607L7.90914 5.59071Z" stroke="#394A9C" stroke-width="2" stroke-linecap="round" stroke-linejoin="round"/>
</svg>
