<svg width="29" height="33" viewBox="0 0 29 33" fill="none" xmlns="http://www.w3.org/2000/svg">
<g clip-path="url(#clip0_382_1160)">
<path d="M22.7341 31.7612H16.5845V29.1113H22.7341V31.7612ZM22.6842 26.5111C22.2841 26.861 22.0841 27.4111 22.0841 27.9111V28.1112H17.3342L17.2343 24.9111C17.2343 24.4111 17.4344 23.9112 17.8344 23.5611L23.4344 18.7613C23.8844 18.3612 24.5844 18.4613 24.9343 19.0112C25.1842 19.4113 25.1343 19.9112 24.7342 20.2611L22.1343 22.6111C21.9343 22.8111 21.8843 23.1111 22.0843 23.3111C22.2844 23.5111 22.5843 23.5611 22.7843 23.3611L25.3843 21.0111C25.8343 20.611 26.0843 20.0611 26.0343 19.461L25.9844 12.9112C25.9844 12.4113 26.3343 12.0112 26.8345 11.9612C27.3844 11.9113 27.8843 12.3111 27.8843 12.8612L28.0344 21.1612C28.0344 21.5612 27.8843 21.9112 27.5844 22.1611L22.6842 26.5111Z" fill="white"/>
<path d="M1.13434 22.1123C0.834409 21.8623 0.684326 21.4623 0.684326 21.1124L0.834409 12.8124C0.834409 12.2625 1.33437 11.8125 1.88426 11.9124C2.38423 11.9624 2.73435 12.3625 2.73435 12.8624C2.73435 15.5123 2.6844 19.312 2.6844 19.4623C2.6844 20.0122 2.88443 20.6123 3.33443 20.9622L5.93437 23.3121C6.1344 23.5122 6.48428 23.4622 6.63437 23.2622C6.8344 23.0622 6.78445 22.7123 6.58442 22.5622L3.98448 20.2122C3.58441 19.8623 3.58441 19.3122 3.78445 18.9623C4.08438 18.4124 4.8343 18.3123 5.28433 18.7123L10.8843 23.5122C11.2843 23.862 11.4844 24.312 11.4844 24.8622L11.3845 28.0622H6.63464V27.8622C6.68459 27.3123 6.43461 26.8124 6.03452 26.4622L1.13434 22.1123ZM12.1844 31.8124H6.08425V32.3123V29.1125H6.1342H6.18415H12.2342L12.1844 31.8124Z" fill="white"/>
<path d="M12.4342 4.76247L12.8342 4.46254C12.9341 4.41259 13.0342 4.36264 13.1341 4.36264C13.234 4.36264 13.3342 4.41259 13.4341 4.46254L14.3341 5.16254L15.2341 4.46254C15.4841 4.31246 15.734 4.31246 15.8839 4.46254L16.2839 4.76247V0.3125H12.4341L12.4342 4.76247Z" fill="white"/>
<path d="M23.2841 2.16253C23.2841 1.11268 22.434 0.3125 21.4341 0.3125H17.3342V5.76236C17.3342 5.96238 17.2343 6.11224 17.0343 6.21237C16.8842 6.3125 16.6842 6.3125 16.5341 6.16242L15.6341 5.46242L14.7341 6.16242C14.5341 6.3125 14.2841 6.3125 14.134 6.16242L13.234 5.46242L12.334 6.16242C12.0842 6.3125 11.8842 6.3125 11.7343 6.21237C11.5843 6.11247 11.4344 5.96238 11.4344 5.76236V0.3125H7.33459C6.83462 0.3125 6.38462 0.51253 6.03453 0.862412C5.68465 1.2123 5.48462 1.6623 5.48462 2.16247V15.562C5.48462 16.6119 6.33471 17.412 7.33465 17.412H21.4843C21.9843 17.412 22.4343 17.212 22.7844 16.8621C23.1343 16.5123 23.3343 16.0623 23.3343 15.5621L23.2841 2.16253Z" fill="white"/>
</g>
<defs>
<clipPath id="clip0_382_1160">
<rect width="29" height="33" fill="white"/>
</clipPath>
</defs>
</svg>
