<svg width="20" height="20" viewBox="0 0 20 20" fill="none" xmlns="http://www.w3.org/2000/svg">
<path d="M18.6422 3.36194C15.8762 2.24979 12.7951 2.20761 9.99967 3.24361C7.20425 2.20761 4.12319 2.24979 1.35717 3.36194C1.20241 3.42377 1.06974 3.53059 0.976298 3.66859C0.882859 3.8066 0.832947 3.96945 0.833008 4.13611L0.833008 16.6669C0.832958 16.8031 0.866282 16.9372 0.930064 17.0576C0.993846 17.1779 1.08614 17.2807 1.19888 17.3571C1.31161 17.4335 1.44135 17.4811 1.57674 17.4957C1.71213 17.5104 1.84905 17.4916 1.97551 17.4411C4.45073 16.4451 7.21528 16.4451 9.69051 17.4411C9.78322 17.4762 9.88137 17.4949 9.98051 17.4961C9.98717 17.4961 9.99301 17.4961 9.99967 17.4961C10.0063 17.4961 10.0122 17.4961 10.0188 17.4961C10.118 17.4949 10.2161 17.4762 10.3088 17.4411C12.7841 16.4451 15.5486 16.4451 18.0238 17.4411C18.1503 17.4917 18.2871 17.5106 18.4225 17.4961C18.5579 17.4815 18.6877 17.4341 18.8005 17.3578C18.9133 17.2813 19.0057 17.1784 19.0695 17.0579C19.1332 16.9375 19.1665 16.8032 19.1663 16.6669V4.13611C19.1664 3.96945 19.1165 3.8066 19.0231 3.66859C18.9296 3.53059 18.7969 3.42377 18.6422 3.36194ZM9.16634 15.5078C6.9902 14.8703 4.67725 14.8677 2.49967 15.5003V4.71611C4.66191 3.98214 7.0065 3.98595 9.16634 4.72694V15.5078ZM17.4997 15.5003C15.3222 14.8695 13.0105 14.8695 10.833 15.5003V4.72694C12.9928 3.98595 15.3374 3.98214 17.4997 4.71611V15.5003Z" fill="white"/>
</svg>
