<svg width="17" height="17" viewBox="0 0 17 17" fill="none" xmlns="http://www.w3.org/2000/svg">
<path d="M12.4525 4.51397C12.166 4.24397 11.7573 4.14727 11.3802 4.26028C11.0032 4.37343 10.7151 4.67898 10.6244 5.06212C10.5338 5.44514 10.6545 5.8474 10.9409 6.11751L12.2989 7.39847H5.85993C5.47245 7.40726 5.11811 7.61902 4.92686 7.95632C4.73548 8.29347 4.73548 8.70629 4.92686 9.04344C5.11812 9.3806 5.47248 9.59249 5.85993 9.6013H12.2989L10.941 10.8845C10.6547 11.1548 10.5344 11.5572 10.6254 11.9402C10.7163 12.3231 11.0046 12.6285 11.3818 12.7413C11.7588 12.854 12.1675 12.7571 12.4538 12.4868L15.8302 9.29932C16.0498 9.09099 16.1742 8.80148 16.1742 8.49875C16.1742 8.19601 16.0498 7.90651 15.8302 7.69818L12.4525 4.51397Z" fill="black"/>
<path d="M7.35738 14.2977H2.38363V2.70231H7.35738C7.75084 2.70231 8.11438 2.49245 8.31097 2.15173C8.5077 1.81103 8.5077 1.39132 8.31097 1.05058C8.11437 0.709871 7.75084 0.5 7.35738 0.5H1.28208C0.989913 0.500255 0.709846 0.61646 0.503302 0.823004C0.296758 1.02955 0.180679 1.30961 0.180298 1.60165V15.3989C0.180808 15.6909 0.297012 15.9707 0.503559 16.1771C0.710103 16.3835 0.99004 16.4996 1.28208 16.5H7.35738C7.75083 16.5 8.11437 16.2901 8.31097 15.9494C8.5077 15.6087 8.5077 15.189 8.31097 14.8483C8.11436 14.5076 7.75083 14.2977 7.35738 14.2977L7.35738 14.2977Z" fill="black"/>
</svg>
