<svg width="17" height="20" viewBox="0 0 17 20" fill="none" xmlns="http://www.w3.org/2000/svg">
<path fill-rule="evenodd" clip-rule="evenodd" d="M16.3305 3.24306L13.1706 0.0830534C13.1175 0.0298983 13.0454 0 12.9701 0H0.783442C0.626996 0 0.5 0.127 0.5 0.283442V19.7166C0.5 19.873 0.627 20 0.783442 20H16.13C16.2864 20 16.4134 19.873 16.4134 19.7166V3.44337C16.4134 3.36832 16.3837 3.29613 16.3305 3.24313L16.3305 3.24306ZM13.2536 0.96767L15.446 3.16002H13.2536V0.96767ZM1.06702 19.4332V0.566784H12.6869V3.44334C12.6869 3.59979 12.8139 3.72679 12.9704 3.72679H15.8469V19.4332H1.0671L1.06702 19.4332ZM4.20046 16.3061H2.56943C2.41299 16.3061 2.28599 16.4331 2.28599 16.5895V18.2205C2.28599 18.377 2.41299 18.504 2.56943 18.504H4.20046C4.35691 18.504 4.48391 18.377 4.48391 18.2205V16.5895C4.48391 16.4328 4.35721 16.3061 4.20046 16.3061ZM3.91732 17.9371H2.85318V16.8729H3.91732V17.9371ZM14.6276 17.5282C14.6276 17.6846 14.5006 17.8116 14.3441 17.8116L5.15663 17.8118C5.00018 17.8118 4.87319 17.6848 4.87319 17.5283C4.87319 17.3719 5.00019 17.2449 5.15663 17.2449H14.3441C14.5009 17.2447 14.6277 17.3717 14.6277 17.5282H14.6276ZM14.6276 10.9567C14.6276 11.1131 14.5006 11.2401 14.3441 11.2401H5.15663C5.00018 11.2401 4.87319 11.1131 4.87319 10.9567C4.87319 10.8002 5.00019 10.6732 5.15663 10.6732H14.3441C14.5009 10.6732 14.6277 10.8002 14.6277 10.9567H14.6276ZM4.2003 9.85775H2.56927C2.41283 9.85775 2.28583 9.98475 2.28583 10.1412V11.7722C2.28583 11.9287 2.41283 12.0557 2.56927 12.0557H4.2003C4.35675 12.0557 4.48374 11.9287 4.48374 11.7722V10.1412C4.48374 9.98445 4.35705 9.85775 4.2003 9.85775ZM3.91716 11.4887H2.85302V10.4245H3.91716V11.4887ZM14.6274 14.1807C14.6274 14.3372 14.5004 14.4642 14.344 14.4642L5.15647 14.4643C5.00002 14.4643 4.87303 14.3373 4.87303 14.1809C4.87303 14.0244 5.00003 13.8974 5.15647 13.8974H14.344C14.5007 13.8973 14.6276 14.0243 14.6276 14.1807H14.6274ZM4.20014 13.0818H2.56911C2.41266 13.0818 2.28567 13.2088 2.28567 13.3653V14.9963C2.28567 15.1527 2.41267 15.2797 2.56911 15.2797H4.20014C4.35659 15.2797 4.48358 15.1527 4.48358 14.9963V13.3653C4.48358 13.2087 4.35689 13.0818 4.20014 13.0818ZM3.917 14.713H2.85285V13.6485H3.917V14.713ZM5.11026 2.38759C5.33466 2.38759 5.5207 2.55219 5.54594 2.77552L6.04456 7.20073C6.10843 7.76611 6.5894 8.19754 7.15853 8.19754H7.17786C7.02157 8.33299 6.9222 8.53248 6.9222 8.75507C6.9222 9.16202 7.25352 9.49336 7.6605 9.49336C8.06748 9.49336 8.39879 9.16205 8.39879 8.75507C8.39879 8.53248 8.29928 8.33284 8.14313 8.19754H10.1618C10.0055 8.33299 9.90617 8.53248 9.90617 8.75507C9.90617 9.16202 10.2375 9.49336 10.6445 9.49336C11.0514 9.49336 11.3828 9.16205 11.3828 8.75507C11.3828 8.53248 11.2832 8.33284 11.1271 8.19754H11.8764C12.0652 8.19754 12.2183 8.04442 12.2183 7.85565C12.2183 7.66689 12.0652 7.51376 11.8764 7.51376L7.15856 7.51361C6.93416 7.51361 6.74813 7.34901 6.72288 7.12568L6.70053 6.92725L10.8404 6.9274C11.227 6.9274 11.5179 6.67265 11.6005 6.26221L12.1563 3.72905C12.1574 3.72437 12.1583 3.71939 12.1591 3.7144C12.192 3.51462 12.1394 3.31576 12.0147 3.16897C11.8809 3.01132 11.6787 2.92449 11.4451 2.92449H6.24981L6.2246 2.70039C6.16102 2.13502 5.67975 1.70359 5.11062 1.70359H5.03738C4.84862 1.70359 4.6955 1.85671 4.6955 2.04548C4.6955 2.23424 4.84862 2.38736 5.03738 2.38736H5.11047L5.11026 2.38759ZM7.66066 8.92663C7.56598 8.92663 7.48912 8.84977 7.48912 8.75508C7.48912 8.66055 7.56598 8.58354 7.66066 8.58354C7.7552 8.58354 7.83221 8.6604 7.83221 8.75508C7.83191 8.84977 7.75504 8.92663 7.66066 8.92663ZM10.6443 8.92663C10.5498 8.92663 10.4728 8.84977 10.4728 8.75508C10.4728 8.66055 10.5496 8.58354 10.6443 8.58354C10.7388 8.58354 10.8159 8.6604 10.8159 8.75508C10.8159 8.84977 10.739 8.92663 10.6443 8.92663ZM10.5594 4.63286H11.3776L11.2559 5.18768H10.4968L10.5594 4.63286ZM8.0622 4.63286H9.98892L9.9264 5.18768H8.12458L8.0622 4.63286ZM8.18844 5.75457H9.86238L9.79412 6.36073H8.25684L8.18844 5.75457ZM7.99817 4.06597L7.93338 3.49155H10.1174L10.0526 4.06613H7.99814L7.99817 4.06597ZM7.55437 5.18768H6.50472L6.4422 4.63286H7.49185L7.55437 5.18768ZM6.56843 5.75457H7.61808L7.68633 6.36073H6.63684L6.56843 5.75457ZM11.0447 6.14915C11.0027 6.36072 10.8846 6.36072 10.8402 6.36072H10.3647L10.4329 5.75456H11.1313L11.046 6.14353C11.0455 6.14535 11.0451 6.14731 11.0446 6.14912L11.0447 6.14915ZM11.5822 3.53578C11.6025 3.55964 11.6037 3.59195 11.6002 3.61672L11.5016 4.06597H10.623L10.6878 3.49139H11.4448C11.5082 3.49154 11.5584 3.50754 11.5822 3.53578ZM7.36309 3.49153L7.42787 4.06611H6.37822L6.31344 3.49153H7.36309Z" fill="white"/>
</svg>
