<svg width="25" height="16" viewBox="0 0 25 16" fill="none" xmlns="http://www.w3.org/2000/svg">
<path d="M21.1265 5.03179H17.1094V2.55245H8.49255C7.84024 1.05062 6.37754 0 4.67849 0C2.37477 0 0.5 1.92914 0.5 4.30024C0.5 6.50668 2.12437 8.3284 4.20672 8.57087V13.6895H5.82701C5.94616 14.5414 6.65262 15.2 7.51226 15.2C8.37215 15.2 9.0786 14.5411 9.19777 13.6895H18.8837C19.0029 14.5414 19.7094 15.2 20.5692 15.2C21.4289 15.2 22.1356 14.5411 22.2545 13.6895H24.5V8.8378L21.1265 5.03179ZM1.19271 4.3003C1.19271 2.32245 2.75639 0.713151 4.6783 0.713151C6.60022 0.713151 8.16389 2.32239 8.16389 4.3003C8.16389 6.27822 6.60022 7.88746 4.6783 7.88746C2.75639 7.88746 1.19271 6.27796 1.19271 4.3003ZM7.51226 14.4869C6.95155 14.4869 6.49522 14.0176 6.49522 13.44C6.49522 12.8635 6.95128 12.3939 7.51226 12.3939C8.07322 12.3939 8.52949 12.8632 8.52949 13.44C8.52925 14.0176 8.07319 14.4869 7.51226 14.4869ZM16.4162 12.9764H9.15433C8.95518 12.2319 8.29828 11.681 7.51233 11.681C6.72662 11.681 6.06998 12.2319 5.87081 12.9764H4.89999V11.333H16.4161L16.4162 12.9764ZM16.4162 5.03173V10.6197H4.89943V8.58902C7.1002 8.46913 8.85654 6.59423 8.85654 4.30024C8.85654 3.94307 8.80917 3.59785 8.72942 3.26579H16.4157L16.4162 5.03173ZM20.5693 14.4874C20.0084 14.4874 19.5521 14.018 19.5521 13.4405C19.5521 12.8639 20.0081 12.3943 20.5693 12.3943C21.13 12.3943 21.5863 12.8637 21.5863 13.4405C21.5863 14.018 21.13 14.4874 20.5693 14.4874ZM23.8077 12.9768H22.2113C22.0122 12.2324 21.3553 11.6814 20.5698 11.6814C19.7836 11.6814 19.127 12.2324 18.9278 12.9768H17.1093V5.74533H20.8209L23.8078 9.11459V12.9771L23.8077 12.9768Z" fill="white"/>
<path d="M6.79948 4.88195C6.99114 4.88195 7.14606 4.72227 7.14606 4.52527C7.14606 4.32803 6.99114 4.1686 6.79948 4.1686H5.15165V1.44652C5.15165 1.24928 4.99673 1.08984 4.80507 1.08984C4.6139 1.08984 4.4585 1.24928 4.4585 1.44652V4.5253C4.4585 4.57455 4.46816 4.62156 4.48581 4.66434C4.49451 4.68598 4.5107 4.70239 4.52351 4.72204C4.53559 4.7407 4.54454 4.76159 4.55952 4.77726C4.57451 4.79293 4.59553 4.80189 4.61317 4.81432C4.63227 4.8275 4.64846 4.84417 4.66925 4.85312C4.71082 4.87128 4.7565 4.88123 4.80435 4.88123L6.79945 4.88148L6.79948 4.88195Z" fill="white"/>
</svg>
