<svg width="20" height="20" viewBox="0 0 20 20" fill="none" xmlns="http://www.w3.org/2000/svg">
<g clip-path="url(#clip0_470_1889)">
<path d="M19.6105 15.7143L20.0005 19.2071C20.0224 19.4157 19.9629 19.6019 19.8219 19.7657C19.681 19.9219 19.5024 20 19.2862 20H0.714799C0.498608 20 0.320037 19.9219 0.179085 19.7657C0.0381322 19.6019 -0.0213916 19.4157 0.000513131 19.2071L0.390513 15.7143H19.6091H19.6105ZM18.5719 6.35L19.5319 15H0.469085L1.42908 6.35C1.45099 6.17191 1.52908 6.02143 1.66337 5.89857C1.79766 5.77571 1.95766 5.71429 2.14337 5.71429H5.00051V7.14286C5.00051 7.53714 5.14004 7.87381 5.41908 8.15286C5.69813 8.4319 6.0348 8.57143 6.42908 8.57143C6.82337 8.57143 7.16004 8.4319 7.43908 8.15286C7.71813 7.87381 7.85766 7.53714 7.85766 7.14286V5.71429H12.1434V7.14286C12.1434 7.53714 12.2829 7.87381 12.5619 8.15286C12.841 8.4319 13.1777 8.57143 13.5719 8.57143C13.9662 8.57143 14.3029 8.4319 14.5819 8.15286C14.861 7.87381 15.0005 7.53714 15.0005 7.14286V5.71429H17.8577C18.0434 5.71429 18.2034 5.77571 18.3377 5.89857C18.4719 6.02143 18.55 6.17191 18.5719 6.35ZM14.2862 4.28571V7.14286C14.2862 7.33619 14.2158 7.50381 14.0748 7.64571C13.9338 7.78762 13.7662 7.8581 13.5719 7.85714C13.3777 7.85619 13.21 7.78571 13.0691 7.64571C12.9281 7.50571 12.8577 7.3381 12.8577 7.14286V4.28571C12.8577 3.49714 12.5786 2.82381 12.0205 2.26571C11.4624 1.70762 10.7891 1.42857 10.0005 1.42857C9.21194 1.42857 8.53861 1.70762 7.98051 2.26571C7.42242 2.82381 7.14337 3.49714 7.14337 4.28571V7.14286C7.14337 7.33619 7.07289 7.50381 6.93194 7.64571C6.79099 7.78762 6.62337 7.8581 6.42908 7.85714C6.2348 7.85619 6.06718 7.78571 5.92623 7.64571C5.78527 7.50571 5.7148 7.3381 5.7148 7.14286V4.28571C5.7148 3.10286 6.13337 2.09286 6.97051 1.25571C7.80766 0.418571 8.81766 0 10.0005 0C11.1834 0 12.1934 0.418571 13.0305 1.25571C13.8677 2.09286 14.2862 3.10286 14.2862 4.28571Z" fill="black"/>
</g>
<defs>
<clipPath id="clip0_470_1889">
<rect width="20" height="20" fill="white"/>
</clipPath>
</defs>
</svg>
