<svg width="21" height="20" viewBox="0 0 21 20" fill="none" xmlns="http://www.w3.org/2000/svg">
<mask id="mask0_1620_6134" style="mask-type:luminance" maskUnits="userSpaceOnUse" x="0" y="0" width="21" height="20">
<path d="M0.5 0H20.5V20H0.5V0Z" fill="white"/>
</mask>
<g mask="url(#mask0_1620_6134)">
<path d="M12.2522 19.9988C11.5822 20.0027 10.9387 19.7386 10.4646 19.2653L1.23357 10.0246C0.710815 9.50268 0.442815 8.77793 0.500029 8.04146L0.915779 2.74254C0.971862 2.14418 1.23512 1.58404 1.66007 1.15896C2.08514 0.734035 2.64528 0.470749 3.24364 0.414678L8.55471 -0.00107227C9.28699 -0.0546437 10.0064 0.213074 10.5256 0.732463L19.7591 9.96354C20.2332 10.438 20.4995 11.0814 20.4995 11.7522C20.4995 12.4231 20.2332 13.0664 19.7591 13.541L14.0398 19.2581C13.5657 19.7312 12.9221 19.9954 12.2523 19.9916L12.2522 19.9988ZM8.75049 0.952392H8.62828L3.31721 1.36561C2.94596 1.40453 2.59928 1.56971 2.33535 1.83379C2.07126 2.09773 1.90607 2.44443 1.86718 2.81564L1.45882 8.12671C1.42352 8.58543 1.59065 9.03661 1.91614 9.36164L11.1372 18.5827C11.432 18.88 11.8336 19.0464 12.2523 19.0449C12.6674 19.0435 13.065 18.8773 13.3575 18.5827L19.0843 12.8656C19.3792 12.57 19.5448 12.1694 19.5448 11.7517C19.5448 11.3342 19.3792 10.9336 19.0843 10.638L9.86321 1.41193C9.56787 1.11742 9.16775 0.952106 8.75064 0.952249L8.75049 0.952392Z" fill="white"/>
</g>
<path d="M6.875 8.83945C6.18039 8.83945 5.51421 8.56351 5.02314 8.07231C4.53207 7.58124 4.2561 6.9151 4.2561 6.22045C4.2561 5.52599 4.53205 4.85981 5.02314 4.3686C5.51421 3.87753 6.18035 3.60156 6.875 3.60156C7.5696 3.60156 8.23578 3.87751 8.72685 4.3686C9.21807 4.85981 9.49389 5.52596 9.49389 6.22045C9.49333 6.91492 9.2171 7.58067 8.72617 8.0716C8.2351 8.56267 7.56935 8.83874 6.87503 8.83945H6.875ZM6.875 4.55517C6.43332 4.55517 6.00975 4.73053 5.69753 5.04288C5.38517 5.35511 5.20982 5.77867 5.20982 6.22035C5.20982 6.66203 5.38518 7.0856 5.69753 7.39795C6.00975 7.71018 6.43332 7.88567 6.875 7.88567C7.31667 7.88567 7.74025 7.71017 8.05246 7.39795C8.36482 7.08559 8.54017 6.66206 8.54017 6.22035C8.53962 5.77896 8.36397 5.35581 8.05175 5.0436C7.73966 4.73152 7.31639 4.55574 6.875 4.55517Z" fill="white"/>
</svg>
