<svg width="32" height="32" viewBox="0 0 32 32" fill="none" xmlns="http://www.w3.org/2000/svg">
<path d="M18.4688 22.0625C18.4687 22.5846 18.2613 23.0854 17.8921 23.4546C17.5229 23.8238 17.0221 24.0312 16.5 24.0312C15.9779 24.0312 15.4771 23.8238 15.1079 23.4546C14.7387 23.0854 14.5312 22.5846 14.5312 22.0625C14.5312 21.5404 14.7387 21.0396 15.1079 20.6704C15.4771 20.3012 15.9779 20.0938 16.5 20.0938C17.0221 20.0938 17.5229 20.3012 17.8921 20.6704C18.2613 21.0396 18.4688 21.5404 18.4688 22.0625ZM18.4688 15.5C18.4687 16.0221 18.2613 16.5229 17.8921 16.8921C17.5229 17.2613 17.0221 17.4688 16.5 17.4688C15.9779 17.4688 15.4771 17.2613 15.1079 16.8921C14.7387 16.5229 14.5312 16.0221 14.5312 15.5C14.5312 14.9779 14.7387 14.4771 15.1079 14.1079C15.4771 13.7387 15.9779 13.5312 16.5 13.5312C17.0221 13.5312 17.5229 13.7387 17.8921 14.1079C18.2613 14.4771 18.4688 14.9779 18.4688 15.5ZM18.4688 8.9375C18.4687 9.45964 18.2613 9.9604 17.8921 10.3296C17.5229 10.6988 17.0221 10.9062 16.5 10.9062C15.9779 10.9062 15.4771 10.6988 15.1079 10.3296C14.7387 9.9604 14.5312 9.45964 14.5312 8.9375C14.5312 8.41536 14.7387 7.9146 15.1079 7.54538C15.4771 7.17617 15.9779 6.96875 16.5 6.96875C17.0221 6.96875 17.5229 7.17617 17.8921 7.54538C18.2613 7.9146 18.4688 8.41536 18.4688 8.9375Z" fill="#8D8D8D"/>
<circle cx="16" cy="16" r="15.5" stroke="#8D8D8D"/>
</svg>
