<svg width="32" height="32" viewBox="0 0 32 32" fill="none" xmlns="http://www.w3.org/2000/svg">
<circle cx="16" cy="16" r="15.5" stroke="#8D8D8D"/>
<path fill-rule="evenodd" clip-rule="evenodd" d="M16 13.5C14.6192 13.5 13.5 14.6192 13.5 16C13.5 17.3807 14.6192 18.5 16 18.5C17.3807 18.5 18.5 17.3807 18.5 16C18.5 14.6192 17.3807 13.5 16 13.5ZM15.1667 16C15.1667 15.5397 15.5397 15.1667 16 15.1667C16.4602 15.1667 16.8333 15.5397 16.8333 16C16.8333 16.4602 16.4602 16.8333 16 16.8333C15.5397 16.8333 15.1667 16.4602 15.1667 16Z" fill="#8D8D8D"/>
<path fill-rule="evenodd" clip-rule="evenodd" d="M24.1915 15.3999C22.2848 11.9592 19.1767 10.166 15.9998 10.166C12.823 10.166 9.7148 11.9592 7.8082 15.3999C7.62181 15.7363 7.61951 16.1511 7.80008 16.489C9.67636 20.0004 12.8022 21.8327 15.9998 21.8327C19.1975 21.8327 22.3233 20.0004 24.1996 16.489C24.3802 16.1511 24.3778 15.7363 24.1915 15.3999ZM15.9998 20.166C13.5506 20.166 11.0336 18.8097 9.40961 15.9566C11.057 13.1628 13.5608 11.8327 15.9998 11.8327C18.4388 11.8327 20.9427 13.1628 22.5901 15.9566C20.9661 18.8097 18.449 20.166 15.9998 20.166Z" fill="#8D8D8D"/>
</svg>
