<svg width="25" height="25" viewBox="0 0 25 25" fill="none" xmlns="http://www.w3.org/2000/svg">
<path d="M3.75879 6.75317H5.75879H21.7588" stroke="black" stroke-width="2" stroke-linecap="round" stroke-linejoin="round"/>
<path d="M19.7588 6.75317V20.7532C19.7588 21.2836 19.5481 21.7923 19.173 22.1674C18.7979 22.5425 18.2892 22.7532 17.7588 22.7532H7.75879C7.22836 22.7532 6.71965 22.5425 6.34458 22.1674C5.9695 21.7923 5.75879 21.2836 5.75879 20.7532V6.75317M8.75879 6.75317V4.75317C8.75879 4.22274 8.9695 3.71403 9.34458 3.33896C9.71965 2.96389 10.2284 2.75317 10.7588 2.75317H14.7588C15.2892 2.75317 15.7979 2.96389 16.173 3.33896C16.5481 3.71403 16.7588 4.22274 16.7588 4.75317V6.75317" stroke="black" stroke-width="2" stroke-linecap="round" stroke-linejoin="round"/>
<path d="M10.7588 11.7532V17.7532" stroke="black" stroke-width="2" stroke-linecap="round" stroke-linejoin="round"/>
<path d="M14.7588 11.7532V17.7532" stroke="black" stroke-width="2" stroke-linecap="round" stroke-linejoin="round"/>
</svg>
