<svg width="20" height="20" viewBox="0 0 20 20" fill="none" xmlns="http://www.w3.org/2000/svg">
<path d="M19.1165 10.6278H17.3084C17.0885 10.6278 16.9085 10.8078 16.9085 11.0278V12.1437H16.8245L16.4285 11.0718C16.0364 10.0157 15.0166 9.30371 13.8885 9.30371L6.10808 9.30388C4.98006 9.30388 3.95999 10.0159 3.56806 11.0719L3.17212 12.1439H3.08808V11.0279C3.08808 10.8079 2.90812 10.628 2.68813 10.628L0.879916 10.6278C0.395921 10.6278 0 11.0239 0 11.5119V12.0599C0 12.5479 0.395935 12.9438 0.880088 12.9438H2.66808C1.85613 13.5277 1.3241 14.4798 1.3241 15.5558V17.3478C1.3241 17.9918 1.84812 18.5158 2.49215 18.5158H2.79617V18.8918C2.796 19.504 3.29204 19.9999 3.90413 19.9999H6.02024C6.6323 19.9999 7.12821 19.5039 7.12821 18.8919V18.5159H12.8682V18.8919C12.868 19.504 13.364 19.9999 13.9761 19.9999H16.0922C16.7041 19.9999 17.2002 19.504 17.2002 18.8919V18.5159H17.5042C18.1483 18.5159 18.6763 17.9919 18.6763 17.3479V15.5559C18.6763 14.48 18.1443 13.5279 17.3323 12.9439H19.1163C19.6003 12.9438 20.0002 12.5478 20.0002 12.0598V11.5119C20.0002 11.0239 19.6003 10.6278 19.1163 10.6278L19.1165 10.6278ZM4.50027 16.4758C3.92019 16.4758 3.45227 16.0077 3.45227 15.4278C3.45227 14.8477 3.92019 14.3757 4.50027 14.3757C5.08035 14.3757 5.5523 14.8477 5.5523 15.4278C5.5523 16.0078 5.08018 16.4758 4.50027 16.4758ZM12.0441 16.7398H7.95218C7.7322 16.7398 7.55223 16.5598 7.55223 16.3398C7.55223 16.1199 7.7322 15.9399 7.95218 15.9399H12.0443C12.2642 15.9399 12.4442 16.1199 12.4442 16.3398C12.4442 16.5598 12.2643 16.7398 12.0441 16.7398ZM12.0441 14.9158H7.95218C7.7322 14.9158 7.55223 14.7358 7.55223 14.5158C7.55223 14.2918 7.7322 14.1159 7.95218 14.1159H12.0443C12.2642 14.1159 12.4442 14.2918 12.4442 14.5158C12.4442 14.7358 12.2643 14.9158 12.0441 14.9158ZM4.54013 12.3358C4.3322 12.3358 4.12812 12.3559 3.93206 12.3957L4.32013 11.3477C4.59619 10.6037 5.3122 10.1037 6.10812 10.1037H13.8881C14.6842 10.1037 15.4002 10.6037 15.6761 11.3477L16.0642 12.3957C15.8681 12.3557 15.6642 12.3358 15.4561 12.3358H4.54013ZM15.4963 16.4758C14.9162 16.4758 14.4443 16.0077 14.4443 15.4278C14.4443 14.8477 14.9162 14.3757 15.4963 14.3757C16.0764 14.3757 16.5443 14.8477 16.5443 15.4278C16.5443 16.0079 16.0764 16.4758 15.4963 16.4758Z" fill="white"/>
<path d="M4.5997 5.4001C4.5997 6.54021 4.96365 7.64011 5.6117 8.54013C5.77576 8.51619 5.93966 8.50413 6.10774 8.50413H13.8877C14.0558 8.50413 14.2237 8.51619 14.3878 8.54013C15.0318 7.64011 15.3998 6.54003 15.3998 5.4001C15.3998 2.424 12.9758 0 9.99971 0C7.01958 0 4.59961 2.424 4.59961 5.4001H4.5997ZM10.3997 1.95205V2.24804C11.0316 2.41595 11.4997 2.96003 11.4997 3.61212C11.4997 3.83612 11.3198 4.01207 11.0998 4.01207C10.8798 4.01207 10.6998 3.83611 10.6998 3.61212C10.6998 3.26808 10.3838 2.98815 9.99988 2.98815C9.61181 2.98815 9.29589 3.26823 9.29589 3.61212C9.29589 3.71206 9.2959 4.01609 10.1078 4.25216C10.4519 4.3521 11.4999 4.65613 11.4999 5.66013C11.4999 6.31221 11.0319 6.86015 10.3998 7.02824V7.32422C10.3998 7.5442 10.2198 7.72417 9.99984 7.72417C9.77584 7.72417 9.59989 7.5442 9.59989 7.32422V7.02824C8.96388 6.86015 8.49578 6.31221 8.49578 5.66013C8.49578 5.44015 8.67575 5.26018 8.89573 5.26018C9.11571 5.26018 9.29568 5.44015 9.29568 5.66013C9.29568 6.00416 9.61176 6.2841 9.99967 6.2841C10.3837 6.2841 10.6996 6.00418 10.6996 5.66013C10.6996 5.4522 10.5997 5.2282 9.88768 5.02009C8.9637 4.75206 8.49565 4.2801 8.49565 3.61212C8.49565 2.96003 8.96357 2.41612 9.59976 2.24804V1.95205C9.59976 1.72805 9.77571 1.5521 9.99971 1.5521C10.2197 1.55193 10.3997 1.72805 10.3997 1.95205Z" fill="white"/>
</svg>
