<svg width="34" height="20" viewBox="0 0 34 20" fill="none" xmlns="http://www.w3.org/2000/svg">
<path d="M30.7688 0C32.4765 0 33.8457 1.36923 33.8457 3.07692V15.3846H30.7688C30.7688 17.9385 28.7072 20 26.1534 20C23.5995 20 21.538 17.9385 21.538 15.3846H12.3072C12.3072 17.9385 10.2457 20 7.69186 20C5.13801 20 3.07647 17.9385 3.07647 15.3846H-0.000451326V9.23077C-0.000451326 7.52308 1.36878 6.15385 3.07647 6.15385L7.69186 0H30.7688ZM12.3072 2.30769H8.46109L5.4457 6.15385H12.3072V2.30769ZM26.1534 13.0769C24.8765 13.0769 23.8457 14.1077 23.8457 15.3846C23.8457 16.6615 24.8765 17.6923 26.1534 17.6923C27.4303 17.6923 28.4611 16.6615 28.4611 15.3846C28.4611 14.1077 27.4303 13.0769 26.1534 13.0769ZM7.69186 13.0769C6.41493 13.0769 5.38416 14.1077 5.38416 15.3846C5.38416 16.6615 6.41493 17.6923 7.69186 17.6923C8.96878 17.6923 9.99955 16.6615 9.99955 15.3846C9.99955 14.1077 8.96878 13.0769 7.69186 13.0769Z" fill="white"/>
</svg>
