<svg width="21" height="21" viewBox="0 0 21 21" fill="none" xmlns="http://www.w3.org/2000/svg">
<path d="M11.9882 10.0576H3.47574L1.99282 12.909L0.322266 12.9088V14.2475H1.31442V20.3821H3.93062V18.8802H11.705V20.3821H14.3224V14.2475H15.3732V12.9088H13.5892L11.9882 10.0576ZM4.27237 11.1967H11.3052L12.6712 13.5299H3.16206L4.27237 11.1967ZM3.16194 17.0021C2.54941 17.0021 2.05275 16.5055 2.05275 15.893C2.05275 15.2804 2.54941 14.7825 3.16194 14.7825C3.77447 14.7825 4.27237 15.2804 4.27237 15.893C4.27237 16.5055 3.77447 17.0021 3.16194 17.0021ZM12.1303 17.0021C11.5178 17.0021 11.0199 16.5055 11.0199 15.893C11.0199 15.2804 11.5178 14.7825 12.1303 14.7825C12.744 14.7825 13.2407 15.2804 13.2407 15.893C13.2407 16.5055 12.7441 17.0021 12.1303 17.0021Z" fill="white"/>
<path d="M8.28218 6.20917L7.46493 7.11609L8.32881 7.97997L9.2336 7.16028C9.52343 7.34351 9.84613 7.47934 10.1909 7.55685L10.2544 8.77567H11.4761L11.5362 7.55654C11.881 7.47885 12.2037 7.34287 12.4934 7.1595L13.4003 7.97675L14.2641 7.11287L13.4445 6.20809C13.6277 5.91825 13.7635 5.59555 13.841 5.25078L15.0598 5.18733V3.9656L13.8407 3.90549C13.763 3.56069 13.6271 3.23799 13.4437 2.94833L14.2609 2.04142L13.397 1.17753L12.4923 1.99722C12.2024 1.814 11.8797 1.67817 11.535 1.60066L11.4715 0.381836H10.2498L10.1897 1.60097C9.84487 1.67865 9.52216 1.81463 9.23251 1.998L8.3256 1.18059L7.46171 2.04448L8.2814 2.94926C8.09818 3.23909 7.96235 3.56179 7.88483 3.90657L6.66602 3.97002V5.19174L7.88515 5.25186C7.96283 5.59681 8.09881 5.91952 8.28218 6.20917ZM11.4718 3.37841C11.733 3.49577 11.9458 3.70837 12.0632 3.96958C12.5994 5.16313 11.4478 6.31488 10.2542 5.77868C9.993 5.66133 9.78023 5.44872 9.66288 5.18751C9.12668 3.99397 10.2783 2.84237 11.4718 3.37841Z" fill="white"/>
<path d="M19.7306 7.86833C19.6656 7.57956 19.5516 7.30925 19.398 7.0665L20.0825 6.30694L19.359 5.58342L18.6011 6.26999C18.3583 6.11645 18.088 6.00273 17.7991 5.93791L17.7459 4.91699H16.7226L16.6722 5.93822C16.3834 6.00319 16.1131 6.11721 15.8704 6.27076L15.1108 5.58632L14.3873 6.30983L15.0739 7.06773C14.9203 7.31047 14.8066 7.58075 14.7416 7.86971L13.7207 7.92286V8.94619L14.7419 8.99661C14.8069 9.28538 14.9209 9.55569 15.0745 9.79843L14.39 10.558L15.1135 11.2815L15.8714 10.5949C16.1142 10.7485 16.3845 10.8622 16.6734 10.9272L16.7266 11.9481H17.7499L17.8003 10.9269C18.0891 10.8619 18.3594 10.7479 18.6021 10.5943L19.3617 11.2788L20.0852 10.5553L19.3987 9.79736C19.5522 9.55462 19.6659 9.28434 19.7307 8.99538L20.7517 8.94223V7.9189L19.7306 7.86833ZM16.7264 9.43755C16.5076 9.33927 16.3294 9.16104 16.2311 8.9424C15.782 7.94268 16.7466 6.97808 17.7463 7.42706C17.9651 7.52534 18.1433 7.70357 18.2414 7.92221C18.6907 8.92208 17.7261 9.88668 16.7264 9.43755Z" fill="white"/>
</svg>
