<svg viewBox="0 0 2048 585" width="1280" height="1280" xmlns="http://www.w3.org/2000/svg"><path d="m245 35 10 1 6 3 5 5 8 13 15 26 14 24 16 28 14 24 60 104 14 24 16 28 2 5 3-3 13-23 14-24 30-52 13-22 5 5 9 8 12 6 13 3-2 6-14 24-15 26-14 24-16 28-14 24-15 26-7 8-7 4h-14l-8-5-5-6-15-26-14-24-16-28-14-24-45-78-14-24-16-28-11-19-12-20v-2h-2l-2 5-16 28-14 24-15 26-16 28-14 24-60 104h141l9 3 8 8 3 9-1 10-4 7-7 6-4 2H63l-8-5-5-6-2-4-1-8 2-8 15-27 10-17 30-52 14-24 16-28 14-24 45-78 14-24 16-28 7-11 5-5 6-3z" fill="#071841"/><path d="M136 344h119l6 3 7 7 3 9-1 10-4 7-7 6-4 2H70v-1l7-1 5-5 15-10 19-13 8-5 7-3z" fill="#071025"/><path d="M960 130h6l6 5 24 34 6 8v2h2l2-4 13-19 18-24 3-2h6l6 4 1 2v96l-4 5-2 1h-8l-5-5-1-2-1-56-12 16-10 14-4 2-9-1-8-10-11-16-4-6-1 57-4 6-2 1h-8l-5-4-1-2v-96l5-5z" fill="#071841"/><path d="M670 130h41l13 4 9 7 7 10 3 10v11l-3 10-6 9-9 8-2 2 16 17 5 7v6l-4 6-2 1h-8l-8-7-15-16-9-10-1-1-14-1v28l-3 5-3 2h-8l-6-5-1-4v-90l3-6zm13 21v32h28l8-5 3-5 1-7-3-9-6-5-2-1z" fill="#0B1C44"/><path d="M816 130h65l6 4 2 5-1 6-5 5-4 1h-51v23h39l6 5 1 2-1 9-5 4-39 1-1 23h53l5 3 2 2 1 7-3 6-3 2h-69l-5-5-1-2v-94l5-6z" fill="#071841"/><path d="M1287 130h41l13 4 8 6 6 7 4 8 1 4v15l-4 11-8 10-10 6-6 2h-32v28l-3 5-3 2h-8l-6-5-1-5v-87l2-7zm13 21v32h28l7-4 5-8v-8l-3-6-6-5-2-1z" fill="#0C1C45"/><path d="m1164 130 8 1 4 5 19 43 17 39 3 7-1 9-5 4h-8l-5-4-10-23v-2h-39l-3 9-7 16-5 4h-8l-5-4-1-9 17-39 18-41 6-12zm2 36-9 20v3h19l-1-5-8-18z" fill="#081941"/><path d="m1078 292 5 1 11 13 9 12 20 26 13 17 10 13 1-79 2-3h5l2 4v92l-2 4h-5l-12-15-13-17-14-18-13-17-12-16-1 81-2 2-5-1-1-1v-96zM1655 292h18l13 4 9 6 5 4 1 5-2 2h-5l-8-7-13-5h-18l-13 5-12 11-5 10-2 7v16l4 12 6 8 9 8 13 5h18l13-5 6-5 1-27h-33l-2-2 1-5 1-1h39l2 3v35l-5 5-5 4-10 5-8 2h-18l-13-4-9-6-6-5-6-8-5-10-2-8v-18l4-13 9-13 10-8 10-5zM1506 292h18l13 4 11 7 7 7 6 10 3 7 2 12-1 13-3 10-5 9-9 10-11 7-13 4h-18l-13-4-10-7-9-9-7-14-2-9v-14l3-12 6-11 11-11 11-6zm1 8-11 4-9 6-8 9-5 11-1 5v14l3 10 6 10 10 9 11 5 4 1h17l11-4 11-8 6-8 5-12 1-6v-8l-3-12-5-9-6-7-11-7-9-3zM1245 292h18l13 4 10 7 9 9 8 16 1 6v16l-2 9-7 13-11 11-10 6-11 3h-18l-13-4-9-6-8-7-7-11-4-12v-20l4-12 6-9 6-7 10-7 11-4zm0 8-13 5-10 9-6 8-4 11v18l4 11 6 8 7 7 12 6 4 1h18l12-5 8-6 7-8 4-8 2-7v-16l-4-12-7-9-8-7-8-4-6-2zM1946 292h31l9 4 5 4 5 8 2 8-1 6-5 1-2-2-3-11-6-7-5-2h-30l-6 4h-2l-2 4-2 5v10l5 8 5 4 4 1 28 1 10 4 7 7 4 8 1 11-3 10-5 7-7 5-6 2h-31l-9-4-6-5-4-6-2-7v-7l2-2 5 1 1 1 2 10 3 4v2l8 4h30l6-3 5-6 2-6-1-10-6-8-7-3-28-1-10-4-5-4-6-10-1-4v-10l3-9 7-8 8-4zM699 292h68l2 2-1 5-2 1h-61v38h46l3 3-1 4-2 1h-46v38h61l3 2-1 5-1 1h-68l-2-3v-94zM1807 292h68l2 2-1 5-2 1h-61v38h46l2 2v5l-2 1h-46v38h61l3 3-1 4-1 1h-68l-2-2v-96zM954 292h5l1 1v45h60v-44l2-2 5 1 1 1v96l-2 2-5-1-1-1v-44h-60v45l-1 1h-5l-2-3v-94zM858 292h18l13 4 11 7 4 4v5l-1 1h-5l-9-7-9-4-4-1h-17l-11 4-9 6-6 7-5 10-2 8v12l4 13 7 10 9 7 9 4 4 1h17l11-4 9-6 2-2h5l1 1v5l-8 7-12 6-8 2h-18l-12-4-10-6-9-9-6-10-3-9-1-6v-12l3-12 5-10 9-10 8-6 12-5z" fill="#FEFEFE"/><path d="M537 145h7l8 3 8 7 3 7v11l-5 10-5 4-6 3h-13l-10-6-5-8-1-4v-9l5-10 6-5z" fill="#071841"/><path d="M985 476h58v8h-45v9h26l1 1v7l-26 1v9l45 1v8h-59zM1144 476h13v36l37-1 1-35h13v39l-3 4-3 1h-53l-5-5zM1065 476h57v5l-14 11-18 14-5 4h-2v2h39v8h-61v-5l9-8 13-10 15-12-33-1-1-1v-6zM571 292h76l2 2-1 5-1 1h-34v91l-1 1h-5l-2-3v-89h-33l-2-2v-5zM1354 292h5l1 1v91h63l3 2-1 5-1 1h-70l-2-3v-94zM854 476h15l10 13 12 17 2 1 2-5 10-14 8-12h14l-4 7-13 18-12 17-2 2h-10l-14-18-14-19-4-5zM1751 292l5 1 1 1v96l-2 2-5-1-1-1v-96zM1262 492l4 1v7h6l1 8-5 1 1 7h5l1 8 4-1v-7h5v-7l5 1v-6l5 1v-5l4 1 2 1v-5l6 2v-4l5 2 1 1v5l-5-2-1 4-6-2v5l-6-2v6l-5-1v6h-4v7h-4v6l4 1 1 7-5 1 1 2v6l-5 1v-7l-5 1-1-1v-6l-5 1-1-1v-8l4-1v-8l-6 1-1-9 5-1-1-7h-5l-1-1v-8zm8 33v7l4 1 1-1v-7zm9 6-3 1v7l3 1 2-1v-7zM943 476h13v44h-13z" fill="#FEFEFE"/><path d="M107 342h2l1 3-9 6-13 7-14 8-20 12-3 1v-5l13-8 16-9 14-8 10-6z" fill="#071025"/><path d="M651 507h5l3 6 3-6h5l2 4v3h2l1-6 1-1h5l-4 12-1 1h-5l-3-6-4 6h-5zM1330 510l6 2-2 4-5-1-2 2-5-2v3l-6-1-1 4-5-2v5l-5-2v6l-4-1-1 5-5-1v-6h4l1-5 5 1v-4l5 1 1-4 5 1 2-3 5 2v-3l6 1zM988 541h5l4 5 4-5h5v13l-5-1-1-4-2 2-4-1-1-2-1 6-5-1v-11zM1160 541h6l5 5 1-5h4v13l-5-1-5-5-2 6-4-1zM1037 541h6l5 5 1-5h4v13l-5-1-5-5-2 6-4-1zM787 507h13l3 9-2 3-4 1h-9l-1-1zm5 2v3h4l-1-3zm0 5v3h5v-3zM897 541h12l3 2-1 5v2l3 4-7-1-5-4v5l-5-1zm5 3v3l5-1v-2zM750 507h12l5 3v6l-4 3-4 1h-9zm6 2-1 1v7h5l2-2-1-5zM706 507h12l3 2-1 4v3l3 4-7-1-5-4-1 5h-4zm5 2v4l5-1v-2zM1202 541h6l4 5 2 1v-6h4v13l-5-1-6-6-1 7h-4zM944 541h8l5 3v7l-5 3h-8l-4-2-1-7 3-3zm1 3-1 1v5l1 1h6l1-1v-5l-1-1zM631 507h10l4 3 1 4-2 4-4 2h-8l-4-2-1-2v-6zm3 2-2 2v5l1 1h6l1-1v-5l-2-2zM1230 541h10l2 1v3h-10l-1 4 6 2v-2h-3v-2h8v6l-2 1h-9l-5-3-1-5zM965 541h11l3 2-1 7 3 2v2h-5l-5-4-2-1v5h-4zm4 3v3l5-1v-2zM1136 541h5l1 9 5 1v-9l5-1v11l-4 2h-8l-4-3zM1083 541h13v3h-8v2h8v2h-8v3h8v3h-13zM729 507h13v3h-7v1l7 1v2h-8v3h8v3h-13zM606 507h12l3 3-1 4-5 2h-5v4l-5-1v-11zm5 2v4l5-1-3-3zM685 507h13l-1 3h-7v2h8v2h-8v3h8v3h-13zM855 541h11l4 3-2 5-8 1-1 4h-4zm5 3v3l5-1-1-2zM1019 541h5l5 8 2 5h-5l-1-3h-7l-1 3h-4l2-6zm2 4-1 4h3l-1-4zM877 541h13v3l-8 1 7 1v2l-7 1-1 2h9l-1 3h-12zM1294 487l5 2 1 1v6l-5-2-1 5-5-1v5l-6-1v-7l5 1v-6l6 2zM920 541h13v3h-8v2h8l-1 3h-7v5l-5-1zM1066 541h9l1 4h-9l-1 5h10v3l-2 1h-8l-4-2-1-7 2-3z" fill="#FEFEFE"/><path d="m1300 508 5 3v5l-5-1v5l-5-1v6l-5-1-1-7 5 1v-6l6 2zM808 507h6l2 3h2l2-3h6l-5 7-2 6h-4l-2-6zM1184 541h10v3h-2v7h2v3h-10v-3h3v-7h-3zM1114 541h16v3h-6v10h-4v-10h-6zM1318 503l5 2 1 3-2 2-4-2-1 3-6-2v4l-6-2v-5l4 1 2 1v-4l6 2zM1278 501l5 1 1 7h-4l-1 7h-5l-1-8h5zM1282 480l6 3v6l-6-1 1 7-6-2-1-8 6 2zM1316 521l5 2-2 4-4-1-1 4-5-1v5l-5-1 1-5h5v-4l5 1zM1300 532l4 1 1 5 4 2-1 4h-4l-1-5-3-1-1 6h-4v-6l4-1zM1290 531h5v7h-4v6l-5 1v-7h4zM1326 525l5 1v4h4l1 2 6 1v3l-5 1v-2l-4-1-4-2 1-3h-4zM1259 475h4l1 2v7h-6l-1-8z" fill="#FEFEFE"/><path d="m1314 530 5 1v5h4v3l3 1v3h-4v-3h-4v-5h-4zM1230 477l3 1 4 4 3-5h2v10h-1v-6h-2l-2 4-3-1-1-2-1 5h-2zM1264 484h6l1 2v6h-6zM1271 542h1l1 9-5 2-1-8zM1271 492l6 1 1 8-6-1zM1270 476l6 2v7l-6-1zM1328 517l6 2-1 4 5 1-2 3-4-1v-4l-5-1zM1217 477h10v2h-4v8h-2v-8h-4zM1285 524h5v7h-5z" fill="#FEFEFE"/><path d="m1335 516 6 2-1 3 5 1-1 2h-6v-3l-4-2zM1337 527h5l3 2 2 2-7 1v-2h-4zM1347 519h5v3l4-1-1 2-9-1zM1328 536h4v2h3v2l-4 1v-2l-4-1zM1320 527l5 1-1 4-5-1zM1322 519l5 2-1 3-5-1zM1309 534l5 1-1 4h-4zM1313 539l5 1-1 4h-4zM1324 532l5 1-1 3h-5zM1344 524h5l2 3-4 1v-2l-4 1zM1342 515l6 2-1 2-6-1zM1355 517h5l-1 2h-5z" fill="#FEFEFE"/></svg>