<svg width="246" height="17" viewBox="0 0 246 17" fill="none" xmlns="http://www.w3.org/2000/svg">
<path d="M0.000115888 1.34692C0.00752907 1.23579 0.0550204 1.13112 0.133769 1.05237C0.212517 0.973611 0.317171 0.926115 0.428291 0.918701H5.63208C6.92061 0.938255 8.15022 1.46185 9.05734 2.37727C9.96447 3.29268 10.4769 4.52707 10.4849 5.81585C10.4928 7.10463 9.99565 8.34525 9.0999 9.27179C8.20414 10.1983 6.98109 10.7371 5.6929 10.7725H2.87692V15.9793C2.87825 16.0359 2.86808 16.0921 2.84704 16.1447C2.82599 16.1972 2.7945 16.245 2.75447 16.285C2.71445 16.325 2.66671 16.3565 2.61416 16.3776C2.56161 16.3986 2.50533 16.4088 2.44874 16.4075H0.428291C0.371698 16.4088 0.315423 16.3986 0.262872 16.3776C0.210322 16.3565 0.162588 16.325 0.122559 16.285C0.0825311 16.245 0.051041 16.1972 0.0299947 16.1447C0.00894847 16.0921 -0.00121627 16.0359 0.000115888 15.9793V1.34692ZM5.4484 8.08159C5.74602 8.08223 6.04083 8.02408 6.31592 7.91047C6.591 7.79686 6.84094 7.63003 7.05139 7.41957C7.26184 7.2091 7.42865 6.95913 7.54224 6.68402C7.65584 6.40891 7.71399 6.11407 7.71335 5.81642C7.70627 5.52672 7.64195 5.24127 7.5241 4.97653C7.40625 4.71179 7.2372 4.47298 7.02668 4.27386C6.81615 4.07473 6.56832 3.91923 6.29745 3.8163C6.02658 3.71337 5.73802 3.66505 5.4484 3.67412H2.87692V8.08159H5.4484Z" fill="#162A26"/>
<path d="M14.997 1.3467C14.9905 1.24195 15.0249 1.13877 15.093 1.0589C15.161 0.979022 15.2574 0.928683 15.3619 0.918483H21.6665C22.9293 0.914342 24.1434 1.40582 25.0478 2.28729C25.9521 3.16877 26.4746 4.36988 26.503 5.63251C26.4701 6.61625 26.1435 7.56762 25.5653 8.36417C24.9872 9.16071 24.1839 9.76597 23.2588 10.102L26.2585 15.7345C26.3016 15.796 26.326 15.8686 26.3287 15.9436C26.3314 16.0187 26.3123 16.0929 26.2737 16.1573C26.2351 16.2217 26.1786 16.2735 26.1111 16.3064C26.0436 16.3393 25.9681 16.352 25.8935 16.3428H23.5726C23.5026 16.3382 23.4342 16.3196 23.3715 16.288C23.3088 16.2565 23.2531 16.2126 23.2077 16.1591L20.2616 10.2857H17.813V15.9182C17.8143 15.9748 17.8041 16.0311 17.7831 16.0836C17.762 16.1362 17.7305 16.1839 17.6905 16.224C17.6505 16.264 17.6027 16.2955 17.5502 16.3165C17.4976 16.3376 17.4414 16.3478 17.3848 16.3464H15.3643C15.3077 16.3478 15.2515 16.3376 15.1989 16.3165C15.1464 16.2955 15.0986 16.264 15.0586 16.224C15.0186 16.1839 14.9871 16.1362 14.966 16.0836C14.945 16.0311 14.9348 15.9748 14.9362 15.9182V1.3467H14.997ZM21.4853 7.9585C22.0742 7.93786 22.6325 7.69088 23.044 7.26895C23.4555 6.84703 23.6884 6.28267 23.6943 5.69334C23.6736 5.12104 23.4329 4.5788 23.0222 4.17968C22.6116 3.78057 22.0627 3.55537 21.4901 3.55104H17.875V7.9585H21.4853Z" fill="#162A26"/>
<path d="M38.4423 0.735234C39.4833 0.735234 40.5142 0.940299 41.476 1.33872C42.4377 1.73715 43.3116 2.32112 44.0478 3.05731C44.7839 3.7935 45.3678 4.66749 45.7662 5.62937C46.1646 6.59125 46.3696 7.62218 46.3696 8.66331C46.3696 9.70444 46.1646 10.7354 45.7662 11.6973C45.3678 12.6591 44.7839 13.5331 44.0478 14.2693C43.3116 15.0055 42.4377 15.5895 41.476 15.9879C40.5142 16.3863 39.4833 16.5914 38.4423 16.5914C37.4032 16.599 36.373 16.3999 35.4115 16.0057C34.45 15.6115 33.5765 15.03 32.8418 14.2951C32.1071 13.5602 31.5258 12.6865 31.1318 11.7249C30.7378 10.7633 30.5388 9.73292 30.5466 8.69372C30.5325 7.64993 30.7267 6.61381 31.1177 5.64594C31.5087 4.67807 32.0888 3.79789 32.824 3.05687C33.5592 2.31584 34.4347 1.72885 35.3994 1.33022C36.3641 0.931589 37.3985 0.729317 38.4423 0.735234ZM38.4423 13.7751C39.4472 13.7751 40.4296 13.4771 41.2651 12.9188C42.1007 12.3604 42.7519 11.5668 43.1365 10.6383C43.521 9.70979 43.6217 8.68809 43.4256 7.70239C43.2296 6.71669 42.7456 5.81127 42.0351 5.10062C41.3245 4.38997 40.4192 3.90602 39.4335 3.70995C38.4479 3.51388 37.4263 3.61451 36.4979 3.99911C35.5695 4.38371 34.776 5.03501 34.2177 5.87064C33.6594 6.70628 33.3614 7.68872 33.3614 8.69372C33.3687 10.0391 33.9064 11.3273 34.8577 12.2787C35.8089 13.2301 37.097 13.7678 38.4423 13.7751Z" fill="#162A26"/>
<path d="M58.3364 0.7349C59.3175 0.713651 60.293 0.886612 61.2069 1.24383C62.1209 1.60105 62.9552 2.13548 63.6618 2.81637C63.7045 2.8547 63.7387 2.9016 63.762 2.95399C63.7854 3.00639 63.7975 3.06313 63.7975 3.1205C63.7975 3.17788 63.7854 3.23461 63.762 3.28701C63.7387 3.33941 63.7045 3.3863 63.6618 3.42463L62.3153 4.83701C62.2832 4.87982 62.2416 4.91456 62.1938 4.93849C62.146 4.96243 62.0932 4.97489 62.0398 4.97489C61.9863 4.97489 61.9336 4.96243 61.8857 4.93849C61.8379 4.91456 61.7963 4.87982 61.7643 4.83701C60.8118 4.01283 59.5959 3.55671 58.3364 3.55115C57.6766 3.56518 57.0261 3.70955 56.4223 3.97596C55.8185 4.24237 55.2734 4.62556 54.8182 5.10347C54.3631 5.58139 54.0069 6.14461 53.7703 6.76071C53.5336 7.37681 53.4211 8.03363 53.4392 8.69339C53.4216 9.66534 53.6884 10.6212 54.2067 11.4436C54.7251 12.2659 55.4724 12.9188 56.3569 13.3221C57.2413 13.7253 58.2243 13.8613 59.185 13.7133C60.1457 13.5653 61.0422 13.1397 61.7643 12.4889C61.8002 12.4524 61.8431 12.4234 61.8904 12.4036C61.9377 12.3838 61.9885 12.3736 62.0398 12.3736C62.091 12.3736 62.1418 12.3838 62.1891 12.4036C62.2364 12.4234 62.2793 12.4524 62.3153 12.4889L63.6618 13.8965C63.7347 13.981 63.7748 14.089 63.7748 14.2006C63.7748 14.3122 63.7347 14.4201 63.6618 14.5047C62.2177 15.899 60.2828 16.6686 58.2756 16.647C57.2336 16.656 56.2001 16.4585 55.2349 16.0658C54.2696 15.6732 53.3917 15.0932 52.6519 14.3594C51.912 13.6255 51.3248 12.7523 50.9242 11.7903C50.5236 10.8282 50.3175 9.79636 50.3179 8.75422C50.3252 6.62963 51.1724 4.59417 52.6746 3.09185C54.1768 1.58953 56.212 0.742274 58.3364 0.7349Z" fill="#162A26"/>
<path d="M68.192 1.34679C68.1907 1.29019 68.2008 1.23391 68.2219 1.18135C68.2429 1.1288 68.2744 1.08106 68.3145 1.04103C68.3545 1.001 68.4022 0.969503 68.4548 0.948454C68.5073 0.927406 68.5636 0.917241 68.6202 0.918573H70.7015C70.7581 0.917241 70.8143 0.927406 70.8669 0.948454C70.9194 0.969503 70.9672 1.001 71.0072 1.04103C71.0472 1.08106 71.0787 1.1288 71.0998 1.18135C71.1208 1.23391 71.131 1.29019 71.1296 1.34679V10.3491C71.1026 10.7828 71.165 11.2174 71.3131 11.626C71.4611 12.0346 71.6915 12.4084 71.99 12.7242C72.2885 13.04 72.6488 13.291 73.0484 13.4617C73.448 13.6324 73.8785 13.7191 74.313 13.7164C74.7462 13.7224 75.1761 13.6404 75.5768 13.4754C75.9774 13.3105 76.3404 13.0659 76.6438 12.7566C76.9472 12.4472 77.1846 12.0795 77.3419 11.6758C77.4991 11.272 77.5727 10.8405 77.5583 10.4075V1.34679C77.557 1.29019 77.5672 1.23391 77.5882 1.18135C77.6093 1.1288 77.6408 1.08106 77.6808 1.04103C77.7208 1.001 77.7686 0.969503 77.8211 0.948454C77.8737 0.927406 77.9299 0.917241 77.9865 0.918573H80.0678C80.1244 0.917241 80.1807 0.927406 80.2332 0.948454C80.2858 0.969503 80.3335 1.001 80.3735 1.04103C80.4135 1.08106 80.445 1.1288 80.4661 1.18135C80.4871 1.23391 80.4973 1.29019 80.496 1.34679V10.5291C80.4732 12.1459 79.8151 13.6887 78.6638 14.824C77.5126 15.9593 75.9608 16.5958 74.344 16.5958C72.7272 16.5958 71.1754 15.9593 70.0241 14.824C68.8729 13.6887 68.2147 12.1459 68.192 10.5291V1.34679Z" fill="#162A26"/>
<path d="M86.3737 1.34679C86.3723 1.29019 86.3825 1.23391 86.4035 1.18135C86.4246 1.1288 86.4561 1.08106 86.4961 1.04103C86.5361 1.001 86.5839 0.969503 86.6364 0.948454C86.689 0.927406 86.7452 0.917241 86.8018 0.918573H93.1065C94.3693 0.914431 95.5833 1.40591 96.4877 2.28738C97.392 3.16886 97.9145 4.36997 97.9429 5.6326C97.91 6.61634 97.5835 7.56771 97.0053 8.36426C96.4271 9.1608 95.6238 9.76606 94.6987 10.1021L97.6984 15.7346C97.7416 15.796 97.766 15.8687 97.7687 15.9437C97.7714 16.0188 97.7523 16.093 97.7136 16.1574C97.675 16.2218 97.6185 16.2735 97.5511 16.3065C97.4836 16.3394 97.408 16.352 97.3335 16.3429H95.0101C94.9401 16.3383 94.8717 16.3197 94.809 16.2881C94.7463 16.2566 94.6906 16.2127 94.6452 16.1592L91.6991 10.2858H89.2505V15.9183C89.2518 15.9749 89.2416 16.0312 89.2206 16.0837C89.1995 16.1363 89.168 16.184 89.128 16.2241C89.088 16.2641 89.0403 16.2956 88.9877 16.3166C88.9352 16.3377 88.8789 16.3478 88.8223 16.3465H86.8018C86.7452 16.3478 86.689 16.3377 86.6364 16.3166C86.5839 16.2956 86.5361 16.2641 86.4961 16.2241C86.4561 16.184 86.4246 16.1363 86.4035 16.0837C86.3825 16.0312 86.3723 15.9749 86.3737 15.9183V1.34679ZM92.862 7.95859C93.4501 7.93673 94.0071 7.68921 94.4176 7.26741C94.828 6.84562 95.0603 6.28195 95.0661 5.69342C95.0454 5.12113 94.8047 4.57889 94.394 4.17977C93.9834 3.78066 93.4346 3.55546 92.862 3.55113H89.2505V7.95859H92.862Z" fill="#162A26"/>
<path d="M103.085 1.34679C103.083 1.29019 103.093 1.23391 103.114 1.18135C103.136 1.1288 103.167 1.08106 103.207 1.04103C103.247 1.001 103.295 0.969503 103.347 0.948454C103.4 0.927406 103.456 0.917241 103.513 0.918573H112.514C112.571 0.917241 112.627 0.927406 112.68 0.948454C112.732 0.969503 112.78 1.001 112.82 1.04103C112.86 1.08106 112.891 1.1288 112.912 1.18135C112.934 1.23391 112.944 1.29019 112.942 1.34679V3.18374C112.944 3.24034 112.934 3.29662 112.912 3.34917C112.891 3.40173 112.86 3.44947 112.82 3.4895C112.78 3.52953 112.732 3.56102 112.68 3.58207C112.627 3.60312 112.571 3.61329 112.514 3.61195H105.964V7.22381H111.412C111.469 7.22248 111.525 7.23264 111.578 7.25369C111.63 7.27474 111.678 7.30623 111.718 7.34627C111.758 7.3863 111.789 7.43404 111.81 7.48659C111.831 7.53915 111.842 7.59543 111.84 7.65203V9.48898C111.842 9.54557 111.831 9.60185 111.81 9.65441C111.789 9.70697 111.758 9.7547 111.718 9.79474C111.678 9.83477 111.63 9.86626 111.578 9.88731C111.525 9.90836 111.469 9.91852 111.412 9.91719H105.964V13.7736H112.514C112.571 13.7722 112.627 13.7824 112.68 13.8034C112.732 13.8245 112.78 13.856 112.82 13.896C112.86 13.9361 112.891 13.9838 112.912 14.0364C112.934 14.0889 112.944 14.1452 112.942 14.2018V16.0387C112.944 16.0953 112.934 16.1516 112.912 16.2042C112.891 16.2567 112.86 16.3045 112.82 16.3445C112.78 16.3845 112.732 16.416 112.68 16.4371C112.627 16.4581 112.571 16.4683 112.514 16.4669H103.513C103.456 16.4683 103.4 16.4581 103.347 16.4371C103.295 16.416 103.247 16.3845 103.207 16.3445C103.167 16.3045 103.136 16.2567 103.114 16.2042C103.093 16.1516 103.083 16.0953 103.085 16.0387V1.34679Z" fill="#162A26"/>
<path d="M126.223 0.856482C127.204 0.835233 128.18 1.00819 129.094 1.36541C130.008 1.72263 130.842 2.25706 131.549 2.93795C131.591 2.97629 131.625 3.02318 131.649 3.07558C131.672 3.12798 131.684 3.18471 131.684 3.24208C131.684 3.29946 131.672 3.35619 131.649 3.40859C131.625 3.46099 131.591 3.50788 131.549 3.54621L130.202 4.95373C130.17 4.99653 130.128 5.03128 130.081 5.05521C130.033 5.07914 129.98 5.0916 129.926 5.0916C129.873 5.0916 129.82 5.07914 129.772 5.05521C129.725 5.03128 129.683 4.99653 129.651 4.95373C128.699 4.12954 127.483 3.67342 126.223 3.66787C125.563 3.68189 124.913 3.82626 124.309 4.09267C123.705 4.35908 123.16 4.74227 122.705 5.22019C122.25 5.69811 121.894 6.26132 121.657 6.87742C121.42 7.49353 121.308 8.15035 121.326 8.81011C121.308 9.78205 121.575 10.738 122.093 11.5603C122.612 12.3826 123.359 13.0356 124.244 13.4388C125.128 13.842 126.111 13.978 127.072 13.83C128.032 13.682 128.929 13.2564 129.651 12.6057C129.687 12.5691 129.73 12.5401 129.777 12.5203C129.824 12.5005 129.875 12.4903 129.926 12.4903C129.978 12.4903 130.029 12.5005 130.076 12.5203C130.123 12.5401 130.166 12.5691 130.202 12.6057L131.549 14.0132C131.621 14.0977 131.662 14.2057 131.662 14.3173C131.662 14.4289 131.621 14.5369 131.549 14.6214C130.104 16.0157 128.169 16.7853 126.162 16.7637C125.121 16.7727 124.088 16.5754 123.123 16.183C122.158 15.7907 121.28 15.2111 120.54 14.4778C119.8 13.7445 119.213 12.8719 118.812 11.9104C118.411 10.9489 118.205 9.91753 118.205 8.8758C118.212 6.75121 119.059 4.71575 120.561 3.21343C122.063 1.71111 124.099 0.863856 126.223 0.856482Z" fill="#8AAA8A"/>
<path d="M136.446 1.46886C136.445 1.41226 136.455 1.35598 136.476 1.30343C136.497 1.25087 136.528 1.20313 136.568 1.1631C136.608 1.12307 136.656 1.09157 136.709 1.07052C136.761 1.04948 136.818 1.03931 136.874 1.04064H138.955C139.012 1.03931 139.068 1.04948 139.121 1.07052C139.173 1.09157 139.221 1.12307 139.261 1.1631C139.301 1.20313 139.333 1.25087 139.354 1.30343C139.375 1.35598 139.385 1.41226 139.384 1.46886V16.1012C139.385 16.1578 139.375 16.2141 139.354 16.2666C139.333 16.3192 139.301 16.3669 139.261 16.407C139.221 16.447 139.173 16.4785 139.121 16.4995C139.068 16.5206 139.012 16.5307 138.955 16.5294H136.874C136.818 16.5307 136.761 16.5206 136.709 16.4995C136.656 16.4785 136.608 16.447 136.568 16.407C136.528 16.3669 136.497 16.3192 136.476 16.2666C136.455 16.2141 136.445 16.1578 136.446 16.1012V1.46886Z" fill="#8AAA8A"/>
<path d="M145.322 1.46886C145.321 1.41226 145.331 1.35598 145.352 1.30343C145.373 1.25087 145.404 1.20313 145.444 1.1631C145.484 1.12307 145.532 1.09157 145.585 1.07052C145.637 1.04948 145.693 1.03931 145.75 1.04064H152.055C153.318 1.0365 154.532 1.52798 155.436 2.40945C156.34 3.29093 156.863 4.49204 156.891 5.75467C156.858 6.73841 156.532 7.68978 155.954 8.48633C155.375 9.28287 154.572 9.88813 153.647 10.2242L156.647 15.8567C156.69 15.9181 156.714 15.9908 156.717 16.0658C156.72 16.1408 156.7 16.215 156.662 16.2794C156.623 16.3438 156.567 16.3956 156.499 16.4285C156.432 16.4615 156.356 16.4741 156.282 16.4649H153.958C153.888 16.4604 153.82 16.4418 153.757 16.4102C153.695 16.3786 153.639 16.3348 153.593 16.2812L150.647 10.4079H148.199V16.0404C148.2 16.097 148.19 16.1532 148.169 16.2058C148.148 16.2584 148.116 16.3061 148.076 16.3461C148.036 16.3862 147.988 16.4177 147.936 16.4387C147.883 16.4598 147.827 16.4699 147.771 16.4686H145.75C145.693 16.4699 145.637 16.4598 145.585 16.4387C145.532 16.4177 145.484 16.3862 145.444 16.3461C145.404 16.3061 145.373 16.2584 145.352 16.2058C145.331 16.1532 145.321 16.097 145.322 16.0404V1.46886ZM151.81 8.08066C152.398 8.0588 152.955 7.81128 153.366 7.38948C153.776 6.96769 154.008 6.40402 154.014 5.8155C153.994 5.2432 153.753 4.70096 153.342 4.30185C152.932 3.90273 152.383 3.67753 151.81 3.6732H148.199V8.08066H151.81Z" fill="#8AAA8A"/>
<path d="M168.828 0.856482C169.809 0.835233 170.784 1.00819 171.698 1.36541C172.612 1.72263 173.446 2.25706 174.153 2.93795C174.196 2.97629 174.23 3.02318 174.253 3.07558C174.277 3.12798 174.289 3.18471 174.289 3.24208C174.289 3.29946 174.277 3.35619 174.253 3.40859C174.23 3.46099 174.196 3.50788 174.153 3.54621L172.807 4.95373C172.774 4.99653 172.733 5.03128 172.685 5.05521C172.637 5.07914 172.584 5.0916 172.531 5.0916C172.478 5.0916 172.425 5.07914 172.377 5.05521C172.329 5.03128 172.288 4.99653 172.255 4.95373C171.303 4.12954 170.087 3.67342 168.828 3.66787C168.168 3.68189 167.517 3.82626 166.914 4.09267C166.31 4.35908 165.765 4.74227 165.309 5.22019C164.854 5.69811 164.498 6.26132 164.261 6.87742C164.025 7.49353 163.912 8.15035 163.93 8.81011C163.913 9.78205 164.18 10.738 164.698 11.5603C165.216 12.3826 165.964 13.0356 166.848 13.4388C167.733 13.842 168.716 13.978 169.676 13.83C170.637 13.682 171.533 13.2564 172.255 12.6057C172.291 12.5691 172.334 12.5401 172.382 12.5203C172.429 12.5005 172.48 12.4903 172.531 12.4903C172.582 12.4903 172.633 12.5005 172.68 12.5203C172.728 12.5401 172.771 12.5691 172.807 12.6057L174.153 14.0132C174.226 14.0977 174.266 14.2057 174.266 14.3173C174.266 14.4289 174.226 14.5369 174.153 14.6214C172.709 16.0157 170.774 16.7853 168.767 16.7637C167.725 16.7727 166.692 16.5754 165.727 16.183C164.762 15.7907 163.885 15.2111 163.145 14.4778C162.405 13.7445 161.818 12.8719 161.417 11.9104C161.016 10.9489 160.809 9.91753 160.809 8.8758C160.808 7.82228 161.014 6.77883 161.417 5.80523C161.819 4.83164 162.41 3.94702 163.154 3.20207C163.899 2.45712 164.784 1.86648 165.757 1.46398C166.731 1.06148 167.774 0.85504 168.828 0.856482Z" fill="#8AAA8A"/>
<path d="M178.684 1.46886C178.683 1.41226 178.693 1.35598 178.714 1.30343C178.735 1.25087 178.767 1.20313 178.807 1.1631C178.847 1.12307 178.894 1.09157 178.947 1.07052C178.999 1.04948 179.056 1.03931 179.112 1.04064H181.194C181.25 1.03931 181.306 1.04948 181.359 1.07052C181.412 1.09157 181.459 1.12307 181.499 1.1631C181.539 1.20313 181.571 1.25087 181.592 1.30343C181.613 1.35598 181.623 1.41226 181.622 1.46886V10.4711C181.595 10.9049 181.657 11.3395 181.805 11.7481C181.953 12.1567 182.184 12.5305 182.482 12.8463C182.781 13.162 183.141 13.4131 183.541 13.5838C183.94 13.7544 184.371 13.8411 184.805 13.8385C185.238 13.8445 185.668 13.7625 186.069 13.5975C186.47 13.4325 186.833 13.188 187.136 12.8786C187.439 12.5693 187.677 12.2016 187.834 11.7978C187.991 11.3941 188.065 10.9626 188.051 10.5295V1.46886C188.049 1.41226 188.059 1.35598 188.08 1.30343C188.101 1.25087 188.133 1.20313 188.173 1.1631C188.213 1.12307 188.261 1.09157 188.313 1.07052C188.366 1.04948 188.422 1.03931 188.479 1.04064H190.56C190.617 1.03931 190.673 1.04948 190.725 1.07052C190.778 1.09157 190.826 1.12307 190.866 1.1631C190.906 1.20313 190.937 1.25087 190.958 1.30343C190.979 1.35598 190.989 1.41226 190.988 1.46886V10.6512C190.965 12.268 190.307 13.8108 189.156 14.9461C188.005 16.0814 186.453 16.7178 184.836 16.7178C183.219 16.7178 181.668 16.0814 180.516 14.9461C179.365 13.8108 178.707 12.268 178.684 10.6512V1.46886Z" fill="#8AAA8A"/>
<path d="M196.803 1.46886C196.802 1.41226 196.812 1.35598 196.833 1.30343C196.854 1.25087 196.885 1.20313 196.925 1.1631C196.965 1.12307 197.013 1.09157 197.066 1.07052C197.118 1.04948 197.174 1.03931 197.231 1.04064H199.251C199.308 1.03931 199.364 1.04948 199.417 1.07052C199.469 1.09157 199.517 1.12307 199.557 1.1631C199.597 1.20313 199.629 1.25087 199.65 1.30343C199.671 1.35598 199.681 1.41226 199.68 1.46886V13.836H205.312C205.368 13.8347 205.425 13.8449 205.477 13.8659C205.53 13.887 205.577 13.9185 205.617 13.9585C205.657 13.9985 205.689 14.0463 205.71 14.0988C205.731 14.1514 205.741 14.2076 205.74 14.2642V16.1012C205.741 16.1578 205.731 16.2141 205.71 16.2666C205.689 16.3192 205.657 16.3669 205.617 16.407C205.577 16.447 205.53 16.4785 205.477 16.4995C205.425 16.5206 205.368 16.5307 205.312 16.5294H197.231C197.174 16.5307 197.118 16.5206 197.066 16.4995C197.013 16.4785 196.965 16.447 196.925 16.407C196.885 16.3669 196.854 16.3192 196.833 16.2666C196.812 16.2141 196.802 16.1578 196.803 16.1012V1.46886Z" fill="#8AAA8A"/>
<path d="M208.984 15.9171L215.841 1.03903C215.873 0.968333 215.924 0.908034 215.988 0.865013C216.053 0.821991 216.128 0.79798 216.206 0.795721H216.449C216.528 0.788908 216.608 0.809275 216.674 0.853481C216.74 0.897687 216.79 0.963111 216.814 1.03903L223.619 15.9171C223.65 15.9769 223.665 16.0441 223.662 16.1117C223.659 16.1794 223.638 16.2449 223.6 16.3013C223.563 16.3577 223.511 16.403 223.45 16.4324C223.389 16.4618 223.321 16.4742 223.254 16.4682H221.356C221.221 16.4777 221.087 16.4403 220.976 16.3623C220.865 16.2843 220.784 16.1704 220.748 16.04L219.646 13.6519H213.035L211.933 16.04C211.893 16.1686 211.812 16.2804 211.702 16.3579C211.591 16.4354 211.459 16.4742 211.324 16.4682H209.427C209.354 16.491 209.276 16.4914 209.203 16.4692C209.13 16.447 209.065 16.4033 209.017 16.3438C208.969 16.2843 208.941 16.2117 208.935 16.1356C208.929 16.0595 208.946 15.9833 208.984 15.9171ZM218.533 11.2031L216.329 6.36618H216.268L214.131 11.2031H218.533Z" fill="#8AAA8A"/>
<path d="M227.716 1.46886C227.715 1.41226 227.725 1.35598 227.746 1.30343C227.767 1.25087 227.799 1.20313 227.839 1.1631C227.879 1.12307 227.927 1.09157 227.979 1.07052C228.032 1.04948 228.088 1.03931 228.145 1.04064H234.449C235.712 1.0365 236.926 1.52798 237.83 2.40945C238.735 3.29093 239.257 4.49204 239.286 5.75467C239.253 6.73841 238.926 7.68978 238.348 8.48633C237.77 9.28287 236.967 9.88813 236.042 10.2242L239.041 15.8567C239.084 15.9181 239.109 15.9908 239.111 16.0658C239.114 16.1408 239.095 16.215 239.056 16.2794C239.018 16.3438 238.961 16.3956 238.894 16.4285C238.826 16.4615 238.751 16.4741 238.676 16.4649H236.353C236.283 16.4604 236.214 16.4418 236.152 16.4102C236.089 16.3786 236.033 16.3348 235.988 16.2812L233.042 10.4079H230.593V16.0404C230.595 16.097 230.584 16.1532 230.563 16.2058C230.542 16.2584 230.511 16.3061 230.471 16.3461C230.431 16.3862 230.383 16.4177 230.33 16.4387C230.278 16.4598 230.222 16.4699 230.165 16.4686H228.145C228.088 16.4699 228.032 16.4598 227.979 16.4387C227.927 16.4177 227.879 16.3862 227.839 16.3461C227.799 16.3061 227.767 16.2584 227.746 16.2058C227.725 16.1532 227.715 16.097 227.716 16.0404V1.46886ZM234.205 8.08066C234.793 8.0588 235.35 7.81128 235.76 7.38948C236.171 6.96769 236.403 6.40402 236.409 5.8155C236.388 5.2432 236.147 4.70096 235.737 4.30185C235.326 3.90273 234.777 3.67753 234.205 3.6732H230.593V8.08066H234.205Z" fill="#8AAA8A"/>
<path d="M243.692 16.5303C244.808 16.5303 245.713 15.6256 245.713 14.5097C245.713 13.3937 244.808 12.489 243.692 12.489C242.576 12.489 241.672 13.3937 241.672 14.5097C241.672 15.6256 242.576 16.5303 243.692 16.5303Z" fill="#8AAA8A"/>
</svg>
