<svg width="147" height="28" viewBox="0 0 147 28" fill="none" xmlns="http://www.w3.org/2000/svg">
<g clip-path="url(#clip0_25_12867)">
<g opacity="0.5">
<path d="M128.567 1.47774C128.566 1.76981 128.48 2.05528 128.317 2.29806C128.155 2.54085 127.924 2.73005 127.655 2.84175C127.385 2.95346 127.088 2.98265 126.801 2.92563C126.515 2.86862 126.252 2.72796 126.045 2.52144C125.839 2.31492 125.698 2.0518 125.641 1.76535C125.584 1.47891 125.613 1.18199 125.725 0.912124C125.837 0.642262 126.026 0.411575 126.269 0.249223C126.511 0.0868711 126.797 0.000142367 127.089 0C127.481 0 127.857 0.15569 128.134 0.432821C128.411 0.709952 128.567 1.08582 128.567 1.47774Z" fill="#445D40"/>
<path d="M103.445 1.47774C103.445 1.76981 103.358 2.05528 103.196 2.29806C103.033 2.54085 102.803 2.73005 102.533 2.84175C102.263 2.95346 101.966 2.98265 101.68 2.92563C101.393 2.86862 101.13 2.72796 100.924 2.52144C100.717 2.31492 100.577 2.0518 100.52 1.76535C100.463 1.47891 100.492 1.18199 100.603 0.912124C100.715 0.642262 100.904 0.411575 101.147 0.249223C101.39 0.0868711 101.675 0.000142367 101.967 0C102.359 0 102.735 0.15569 103.012 0.432821C103.289 0.709952 103.445 1.08582 103.445 1.47774Z" fill="#445D40"/>
<path d="M78.3229 1.47774C78.3228 1.76981 78.236 2.05528 78.0737 2.29806C77.9114 2.54085 77.6807 2.73005 77.4109 2.84175C77.141 2.95346 76.8441 2.98265 76.5577 2.92563C76.2713 2.86862 76.0082 2.72796 75.8017 2.52144C75.5952 2.31492 75.4546 2.0518 75.3976 1.76535C75.3405 1.47891 75.3697 1.18199 75.4814 0.912124C75.5931 0.642262 75.7823 0.411575 76.0251 0.249223C76.2678 0.0868711 76.5533 0.000142367 76.8453 0C77.2372 0 77.613 0.15569 77.8901 0.432821C78.1672 0.709952 78.3229 1.08582 78.3229 1.47774Z" fill="#445D40"/>
<path d="M53.2008 1.47774C53.2007 1.76981 53.114 2.05528 52.9516 2.29806C52.7893 2.54085 52.5586 2.73005 52.2888 2.84175C52.019 2.95346 51.7221 2.98265 51.4357 2.92563C51.1492 2.86862 50.8861 2.72796 50.6796 2.52144C50.4731 2.31492 50.3325 2.0518 50.2755 1.76535C50.2185 1.47891 50.2477 1.18199 50.3594 0.912124C50.471 0.642263 50.6602 0.411576 50.903 0.249223C51.1458 0.0868713 51.4312 0.000142543 51.7232 1.75491e-07C51.9173 -9.44317e-05 52.1095 0.038064 52.2888 0.112294C52.4681 0.186524 52.631 0.29537 52.7683 0.43261C52.9055 0.56985 53.0143 0.732793 53.0886 0.912124C53.1628 1.09145 53.2009 1.28366 53.2008 1.47774Z" fill="#445D40"/>
<path d="M28.0793 1.47774C28.0791 1.76981 27.9924 2.05528 27.8301 2.29806C27.6677 2.54085 27.4371 2.73005 27.1672 2.84175C26.8974 2.95346 26.6005 2.98265 26.3141 2.92563C26.0277 2.86862 25.7646 2.72796 25.5581 2.52144C25.3516 2.31492 25.2109 2.0518 25.1539 1.76535C25.0969 1.47891 25.1261 1.18199 25.2378 0.912124C25.3495 0.642262 25.5386 0.411575 25.7814 0.249223C26.0242 0.0868711 26.3096 0.000142367 26.6017 0C26.9935 0 27.3694 0.15569 27.6465 0.432821C27.9236 0.709952 28.0793 1.08582 28.0793 1.47774Z" fill="#445D40"/>
<path d="M2.95377 1.47775C2.95362 1.76997 2.86681 2.05558 2.70431 2.29844C2.54182 2.5413 2.31094 2.7305 2.0409 2.8421C1.77085 2.9537 1.47377 2.98267 1.18726 2.92537C0.900738 2.86806 0.637656 2.72705 0.431297 2.52016C0.224938 2.31328 0.0845781 2.04983 0.0279761 1.76315C-0.0286259 1.47646 0.00107434 1.17943 0.113319 0.90963C0.225563 0.639832 0.415307 0.409395 0.658542 0.247476C0.901777 0.0855566 1.18757 -0.000566787 1.47976 2.80716e-06C1.87102 0.000955801 2.24593 0.157067 2.52226 0.434094C2.79858 0.711122 2.95377 1.08645 2.95377 1.47775Z" fill="#445D40"/>
<path d="M128.567 26.5947C128.566 26.8868 128.48 27.1722 128.317 27.415C128.155 27.6578 127.924 27.847 127.655 27.9587C127.385 28.0704 127.088 28.0996 126.801 28.0426C126.515 27.9856 126.252 27.8449 126.045 27.6384C125.839 27.4319 125.698 27.1687 125.641 26.8823C125.584 26.5958 125.613 26.2989 125.725 26.0291C125.837 25.7592 126.026 25.5285 126.269 25.3662C126.511 25.2038 126.797 25.1171 127.089 25.1169C127.481 25.1169 127.857 25.2726 128.134 25.5498C128.411 25.8269 128.567 26.2028 128.567 26.5947Z" fill="#445D40"/>
<path d="M103.445 26.5947C103.445 26.8868 103.358 27.1722 103.196 27.415C103.033 27.6578 102.803 27.847 102.533 27.9587C102.263 28.0704 101.966 28.0996 101.68 28.0426C101.393 27.9856 101.13 27.8449 100.924 27.6384C100.717 27.4319 100.577 27.1687 100.52 26.8823C100.463 26.5958 100.492 26.2989 100.603 26.0291C100.715 25.7592 100.904 25.5285 101.147 25.3662C101.39 25.2038 101.675 25.1171 101.967 25.1169C102.359 25.1169 102.735 25.2726 103.012 25.5498C103.289 25.8269 103.445 26.2028 103.445 26.5947Z" fill="#445D40"/>
<path d="M78.3229 26.5947C78.3228 26.8868 78.236 27.1722 78.0737 27.415C77.9114 27.6578 77.6807 27.847 77.4109 27.9587C77.141 28.0704 76.8441 28.0996 76.5577 28.0426C76.2713 27.9856 76.0082 27.8449 75.8017 27.6384C75.5952 27.4319 75.4546 27.1687 75.3976 26.8823C75.3405 26.5958 75.3697 26.2989 75.4814 26.0291C75.5931 25.7592 75.7823 25.5285 76.0251 25.3662C76.2678 25.2038 76.5533 25.1171 76.8453 25.1169C77.2372 25.1169 77.613 25.2726 77.8901 25.5498C78.1672 25.8269 78.3229 26.2028 78.3229 26.5947Z" fill="#445D40"/>
<path d="M53.2008 26.5947C53.2007 26.8868 53.114 27.1722 52.9516 27.415C52.7893 27.6578 52.5586 27.847 52.2888 27.9587C52.019 28.0704 51.7221 28.0996 51.4357 28.0426C51.1492 27.9856 50.8861 27.8449 50.6796 27.6384C50.4731 27.4319 50.3325 27.1687 50.2755 26.8823C50.2185 26.5958 50.2477 26.2989 50.3594 26.0291C50.471 25.7592 50.6602 25.5285 50.903 25.3662C51.1458 25.2038 51.4312 25.1171 51.7232 25.1169C51.9173 25.1168 52.1095 25.155 52.2888 25.2292C52.4681 25.3035 52.631 25.4123 52.7683 25.5496C52.9055 25.6868 53.0143 25.8497 53.0886 26.0291C53.1628 26.2084 53.2009 26.4006 53.2008 26.5947Z" fill="#445D40"/>
<path d="M28.0793 26.5947C28.0791 26.8868 27.9924 27.1722 27.8301 27.415C27.6677 27.6578 27.4371 27.847 27.1672 27.9587C26.8974 28.0704 26.6005 28.0996 26.3141 28.0426C26.0277 27.9856 25.7646 27.8449 25.5581 27.6384C25.3516 27.4319 25.2109 27.1687 25.1539 26.8823C25.0969 26.5958 25.1261 26.2989 25.2378 26.0291C25.3495 25.7592 25.5386 25.5285 25.7814 25.3662C26.0242 25.2038 26.3096 25.1171 26.6017 25.1169C26.9935 25.1169 27.3694 25.2726 27.6465 25.5498C27.9236 25.8269 28.0793 26.2028 28.0793 26.5947Z" fill="#445D40"/>
<path d="M2.95377 26.5947C2.95362 26.8868 2.8669 27.1722 2.70457 27.415C2.54223 27.6578 2.31156 27.847 2.04173 27.9587C1.77189 28.0704 1.475 28.0996 1.18858 28.0426C0.902161 27.9856 0.639072 27.8449 0.432569 27.6384C0.226067 27.4319 0.0854224 27.1687 0.0284137 26.8823C-0.0285951 26.5958 0.000591429 26.2989 0.112284 26.0291C0.223976 25.7592 0.413161 25.5285 0.655922 25.3662C0.898684 25.2038 1.18412 25.1171 1.47616 25.1169C1.86805 25.1169 2.24388 25.2726 2.52099 25.5498C2.79809 25.8269 2.95377 26.2028 2.95377 26.5947Z" fill="#445D40"/>
</g>
</g>
<defs>
<clipPath id="clip0_25_12867">
<rect width="147" height="28" fill="white"/>
</clipPath>
</defs>
</svg>
